<?xml version="1.0" encoding="UTF-8"?>
<svg id="Layer_1" xmlns="http://www.w3.org/2000/svg" viewBox="0 0 700 700">
  <defs>
    <style>
      .cls-1 {
        fill: #453631;
      }

      .cls-2 {
        fill: #bb730e;
      }

      .cls-3 {
        fill: #fefefe;
      }
    </style>
  </defs>
  <path class="cls-3" d="M700,700H0V0h700v700ZM346.88,663.61c8.92-1.25,18.24-.5,27.56-1.41,14.76-1.44,29.38-3.5,43.84-6.72,30.47-6.79,59.19-18.1,86.36-33.46,22.07-12.48,42.33-27.42,60.62-44.89,22.23-21.23,41.12-45.13,56.4-71.91,25.37-44.48,37.47-92.55,39.3-143.43.47-13.12-.5-26.2-1.81-39.29-1.75-17.53-4.81-34.78-9.7-51.64-16.96-58.42-47.81-108.16-93.53-148.56-13.98-12.35-28.83-23.51-44.72-33.18-37.85-23.04-78.61-37.93-122.78-43.27-20.67-2.5-41.26-3.5-62.1-2.05-21.94,1.52-43.34,5.28-64.49,11.13-44.41,12.27-83.9,33.71-118.81,63.61-20.38,17.46-38.14,37.39-53.46,59.42-33,47.46-50.83,100.31-54.37,157.82-1.1,17.86-.67,35.84,1.61,53.76,2.27,17.79,5.65,35.27,10.87,52.39,19.83,65.01,57.28,117.72,111.37,158.67,55.43,41.96,118.38,61.64,187.83,63.01Z"/>
  <path class="cls-1" d="M346.88,663.61c-69.45-1.37-132.4-21.05-187.83-63.01-54.09-40.95-91.54-93.66-111.37-158.67-5.22-17.12-8.6-34.6-10.87-52.39-2.29-17.92-2.71-35.91-1.61-53.76,3.54-57.52,21.37-110.37,54.37-157.82,15.32-22.03,33.08-41.96,53.46-59.42,34.91-29.91,74.4-51.34,118.81-63.61,21.14-5.84,42.55-9.6,64.49-11.13,20.84-1.45,41.43-.45,62.1,2.05,44.17,5.34,84.93,20.24,122.78,43.27,15.89,9.67,30.74,20.82,44.72,33.18,45.72,40.4,76.57,90.14,93.53,148.56,4.89,16.86,7.95,34.11,9.7,51.64,1.31,13.09,2.28,26.17,1.81,39.29-1.83,50.88-13.93,98.94-39.3,143.43-15.27,26.78-34.17,50.68-56.4,71.91-18.3,17.47-38.56,32.42-60.62,44.89-27.17,15.36-55.89,26.67-86.36,33.46-14.46,3.22-29.08,5.28-43.84,6.72-9.32.91-18.64.16-27.56,1.41ZM348.8,645.59c12.36-.41,25.83-.84,39.24-2.57,39.14-5.04,75.75-17.51,109.84-37.32,14.81-8.6,28.59-18.71,41.75-29.67,21.46-17.86,39.68-38.61,55.35-61.66,8.38-12.33,15.26-25.53,21.71-38.9,15.81-32.79,23.78-67.67,25.97-103.87,2.9-48.02-5.83-93.96-25.66-137.77-19-41.97-46.57-77.36-82.39-106.3-48.71-39.37-104.27-61.58-166.76-66.07-29.55-2.12-58.8.49-87.76,6.79-38.4,8.36-73.02,25.28-105.61,46.62-7.5,4.91-13.78,11.69-20.61,17.63-37.77,32.86-65.94,72.66-83.23,119.53-17.65,47.83-22.97,97.22-14.58,147.88,6.86,41.46,21.77,79.61,45.08,114.53,19.5,29.21,44.02,53.59,71.8,74.86,15.73,12.04,32.9,21.92,50.75,30.07,20.05,9.15,40.98,16.28,63,20.07,20.24,3.48,40.46,6.09,62.12,6.15Z"/>
  <path class="cls-3" d="M348.8,645.59c-21.66-.06-41.88-2.67-62.12-6.15-22.02-3.79-42.95-10.92-63-20.07-17.85-8.14-35.02-18.03-50.75-30.07-27.78-21.27-52.3-45.64-71.8-74.86-23.31-34.92-38.21-73.07-45.08-114.53-8.39-50.67-3.07-100.05,14.58-147.88,17.3-46.87,45.46-86.67,83.23-119.53,6.83-5.94,13.11-12.72,20.61-17.63,32.59-21.34,67.21-38.26,105.61-46.62,28.96-6.31,58.21-8.91,87.76-6.79,62.49,4.49,118.05,26.7,166.76,66.07,35.82,28.95,63.39,64.34,82.39,106.3,19.83,43.8,28.56,89.75,25.66,137.77-2.19,36.21-10.16,71.08-25.97,103.87-6.45,13.37-13.32,26.57-21.71,38.9-15.67,23.05-33.89,43.8-55.35,61.66-13.17,10.96-26.94,21.06-41.75,29.67-34.09,19.81-70.69,32.28-109.84,37.32-13.41,1.73-26.88,2.15-39.24,2.57ZM512.62,154.26c-.87.13-1.66.39-2,1.33-7.3,4.06-10.89,10.85-12.8,18.49-4.17,16.71-8.34,33.43-11.8,50.3-3.03,14.79-9.39,27.29-21.71,36.27-12.37,9.01-22.28,20.06-30.15,33.23-9.46,15.85-22.4,28.94-35.29,41.97-25.81,26.1-37.15,58.61-40.7,94.1-1.68,16.84-.66,33.93-1.25,50.89-.58,16.5-3.54,32.49-11.53,47.26-9.13,16.89-22.17,30.1-38.07,40.55-10.56,6.94-21.57,13.19-32.08,20.19-10.93,7.27-17.66,17.31-18.85,30.81-.3,3.41,1.29,4.94,3.68,5.29,6.94,1.02,13.47,3.56,20.29,4.92,7.74,1.54,15.41,3.52,23.73,4.07-.2-2.1-.28-3.73-.54-5.34-2.2-13.57,1.05-25.33,11.09-35.1,6.97-6.78,15.07-12.04,22.74-17.89,20.71-15.8,37.16-34.36,39.9-62.46,2.94,9.42,3.36,18.21,1.13,27.13-4.56,18.24-15.63,32.05-29.7,43.86-6.37,5.35-13.1,10.31-18.77,16.46-8.48,9.2-12.61,19.81-10.36,32.47.31,1.74.56,3.14,2.78,3.42,4.9.6,9.79.85,15.12.63-2.34-15.1,3.75-26.76,13.02-37.26,4.08-4.62,8.22-9.19,12.16-13.93,11.42-13.74,21.1-28.28,20.68-47.22-.01-.53.39-.84,1.22-.66.07,1.58.23,3.22.2,4.86-.04,2-.18,3.99-.38,5.98-1.73,17.62-8.68,33.3-17.77,48.22-5.18,8.5-11.12,16.65-14.03,26.33-1.37,4.56-4.19,9.03-2.08,14.28,12.89-.46,25.63-.82,38.66-3.16-1.57-11.76,2.8-21.86,7.35-31.89,6.91-15.22,8.38-30.52,1.91-46.36-2.46-6.03-4.03-12.44-4.84-19,1.24-.09,1.18.67,1.37,1.27,3.03,9.84,6.13,19.65,9.08,29.51,2.95,9.88,9,17.33,17.6,22.77,7.44,4.71,15.77,6.83,24.36,8.3,9.94,1.7,20.26,2.26,28.87,8.54,1.66,1.21,3.08.43,4.6-.41,9.93-5.44,19.67-11.2,28.98-17.63,1.62-1.12,3.99-1.72,4.46-4.2-9.29-3.95-19.06-3.62-28.63-4.52-15.74-1.48-31.34-3.4-46.06-9.78-13.08-5.67-22.76-14.61-28.27-27.89,6.92,12.43,17.27,20.77,30.49,25.66,13.41,4.95,27.43,6.39,41.58,7.49,12.39.96,25.01.42,37.03,4.53,1.09.37,1.89.07,2.71-.63,4.65-3.96,9.98-7.1,14.35-11.79-8.61-5.07-17.86-6.48-27.28-6.51-13.12-.05-26.32.22-39.18-2.32-24.9-4.93-47.58-14.16-64.57-34.48-6.69-8.01-12.68-16.31-16.02-26.03-12.87-37.48-6.29-72.53,16.06-104.33,19.64-27.95,52.07-36.44,83.69-23.85,3.34,1.33,6.75,2.52,10.21,3.52,6.35,1.83,12.76,3.55,19.47,2.35,13.9-2.48,27.27-6.82,40.58-11.44,20.37-7.06,40.33-7.3,59.47,4.09,1.14.68,2.27,1.47,4.17-.61-8.37-5.23-15.79-11.54-25.56-14.02-14.41-3.65-28.72-2.19-43.03.45-8,1.48-15.93,3.46-23.98,4.57-13.95,1.92-26.57-2.63-38.63-9.09-15.39-8.24-31.77-10.3-48.86-7.82-7.44,1.08-14.44,3.78-21.49,6.25-.29-.27-.59-.55-.88-.82,34.38-36.95,76.92-50.2,126.24-42.98,16.13,2.36,30.21,9.85,43.01,19.81,6.57,5.12,13.49,9.61,21.56,12.15,2.06.65,3.83.95,5.96-.28-8.73-3.44-15.73-9.22-22.68-15.06-4.31-3.63-8.38-7.58-12.88-10.94-16.69-12.48-35.24-20.08-56.16-22.32-16.16-1.73-32.07-1.17-47.93,2.01-9.06,1.82-17.73,4.99-26.32,8.34-.18-.2-.37-.39-.57-.57.39-.92.76-1.84,1.16-2.74,5.34-12.11,14.99-20.59,24.57-29.13,8.77-7.82,13.9-17.64,15.77-29.14,1.96-12.09,2.06-24.47,6.06-36.24,1.1-3.25,1.62-6.73,2.09-10.15,1.68-12.34,2.75-24.85,11.95-34.58.69-.12,1.24-.38,1.19-1.22.26-.33.8-.79.72-.98-.34-.79-.91-.65-1.44-.1ZM292.39,102.55c2.74,5.44,6.57,8.8,10.93,11.58,3.36,2.14,6.85,4.06,10.31,6.06,14.87,8.59,24.04,21.38,28.32,37.93,2.75,10.61,2.21,21.47,2.87,32.23.8,13.08,3.53,25.61,9.95,37.18,4.82,8.69,10.45,16.93,14.36,26.12,7.62,17.9,6.65,35.98,1.22,54.18-5.48,18.39-17.13,33.7-25.29,51.69-8.25-25.37-19.04-48.67-33.55-70.1-11.48-16.96-15.86-35.53-14.71-55.82.67-11.95,1.65-23.95.37-35.95-2.36-22.12-11.52-39.42-33.76-47.33-3.71-1.32-6.77-3.28-8.75-6.64-2.22,1.2-1.91,2.31-1.05,4.19,2.04,4.45,5.57,7.35,9.3,10.11,9.94,7.34,16.48,17.01,18.68,29.11,2.42,13.38,2.36,26.85-1.29,40.1-3.34,12.12-5.87,24.3-3.32,36.92.96,4.75,2.19,9.45,3.39,14.53-6.32-2.99-12.48-5.02-18.74-6.61-12.05-3.07-21.92-9.41-29.78-18.95-5.71-6.94-11.36-13.94-16.96-20.98-13.82-17.35-19.03-36.85-15.1-58.84,2.38-13.32,4.55-26.76-1.34-39.85-1.34-2.98-2.17-6.48-6.63-7.93,2.1,5.51,4.47,10.13,4.96,15.44,1.12,12-2.14,23.42-4.59,34.88-4.53,21.17-1.47,40.69,10.22,59.02,7.14,11.2,15.22,21.7,22.88,32.5,8.84,12.47,20.13,21.41,35.41,24.89,5.95,1.35,11.52,3.95,16.35,8.32-.69.17-1.06.4-1.29.3-16.29-6.93-33.4-6.69-50.6-6-7.15.29-14.32.63-21.46-.35-11.96-1.63-21.59-7.97-31.13-14.82-21.46-15.4-44.53-17.86-68.64-6.97-9.7,4.38-17.41,11.88-19.68,17.58,2.17.51,3.32-1.08,4.63-2.26,17.81-16.09,57.75-21.41,79.23,1.2,4.5,4.74,9.22,9.42,14.84,12.9,11.55,7.17,24.17,10.23,37.78,9.99,11.65-.21,23.39-.46,34.82,2.29,21.46,5.18,33.83,20.37,42.17,39.57,4.25,9.78,6.43,20.24,9,30.55.38,1.54.61,3.15-.04,4.78-27.91-35.04-66.69-46.25-108.09-36.85-12.43,2.82-23.46,9.22-35.26,13.66-13.51,5.08-25.46,2.66-35.94-7.18-5.74-5.39-10.64-11.44-14.27-18.49-.94-1.81-1.4-4.11-4.25-5.22,0,1.55-.07,2.81.01,4.05,1.44,21.32,23.73,39.1,41.69,40,10.05.5,19.22-2.83,28.57-5.5,17.57-5.02,35.25-8.01,53.51-4.17,24.1,5.07,42.81,18.63,57.85,37.44,31.27,39.09,29.41,91.24.62,127.94-12.8,16.32-30.55,24.92-50.27,29.91-12.4,3.14-25.25,4.4-37.29,9-7.66,2.92-14.49,7.04-19.97,13.68,17.07,11.3,34.51,20.93,53.45,28.35-.06-22.02,9.31-29.31,23.53-37.13,2.91-1.6,5.88-3.08,8.83-4.6,7.24-3.71,14.63-7.14,21.7-11.14,24.5-13.87,42.84-33.27,52.77-59.99,6.33-17.03,6.6-34.92,7.06-52.71.92-35.83,8.28-69.84,26.81-101.02,10.13-17.05,16.15-35.7,19.32-55.22,2.91-17.89,10.25-33.21,24.25-45.09,3.17-2.69,5.99-5.79,9.05-8.61,11.29-10.41,18.84-23.02,22.9-37.83,3.59-13.09,7.45-26.1,11.23-39.13,2.19-7.54,3.61-15.23,3.45-23.07-.09-4.38-.68-8.88-3.8-14.05-.24,2.4-.45,3.23-.38,4.03,1.17,14.03-2.85,26.91-8.41,39.52-3,6.81-6.27,13.59-8.31,20.71-5.28,18.47-16.46,32.39-31.02,44.44-8.25,6.83-15.35,15.09-21.12,24.3-.92,1.47-.17,4.28-3.36,4.26-2.21-13.66-6.96-26.35-14.27-37.91-10.73-16.96-15.98-35.44-18.29-55.29-2.74-23.48-15.63-40.66-35.85-52.83-9.09-5.47-20.43-6.55-28.02-14.78-.32-.34-1.22-.14-2.74-.27ZM123.49,410.61c25.1,18.94,71.64,1.24,81.18-30.56-36.61-5.3-63.21,6.02-81.18,30.56ZM308.87,233.66c-.3,14.29,3.24,26.61,8.5,38.58,8.7,19.8,24.93,34.18,36.96,52.26.8-1.96,1.47-3.4,1.98-4.89.37-1.09.6-2.23.8-3.37,3.35-19.26-2.73-36.1-13.78-51.42-9.05-12.54-21.84-21.09-34.46-31.17ZM395.13,633.86c22.42-3.53,43.56-9.2,64.09-17.8-4.5-5.21-8.4-7.67-20.12-11.04-13.03-3.74-24.94-8.96-32.94-20.6-.1-.15-.6-.02-.99-.02-1.69,16.56-11.77,31.45-10.04,49.45ZM351.73,86.55c-9.08,23.59,3.79,48.31,21.37,66.04,8.36-9.44,12.77-20.17,10.59-32.75-3.14-18.15-17.35-25.84-31.96-33.29ZM163.29,238.18c1.87,30.84,44.34,50.12,61.42,42.27-16.45-33.09-32.01-41.96-61.42-42.27ZM408.22,310.67c17.52-8.9,36.82-49.37,33.37-69.72-6.43,4.43-12.5,8.98-18.16,14.07-8.87,7.98-15.78,17.26-17.93,29.26-1.58,8.85-2.63,17.82,2.71,26.39ZM329.75,166.04c-22.22,13.01-27.68,50.4-9.59,64.17,18.44-12.47,23.84-47.71,9.59-64.17ZM151.42,180.61c-3.16,12.09-3.38,23.67,3.85,34.58,7.99,12.06,20.09,15.85,33.7,17.59-2.84-27.95-14.11-46.48-37.55-52.18ZM80.54,337.13c17.05-.15,45.2-34.19,44.33-53.22-28.45,2.28-44.74,26.72-44.33,53.22ZM244.16,195.54c-16.58,18.09-8.54,44.14,11.83,59.39,12.67-26.88,8.64-40.12-11.83-59.39ZM329.11,147.91c-3.4-9.47-9.73-15.54-17.58-20.48-12.14-7.63-24.18-7.83-36.54-.61-2.28,1.33-2.7,2.47-1.46,4.69,3.98,7.11,9.42,12.69,17.06,15.71,12.54,4.96,25.27,3.06,38.52.7ZM617.2,377.86c-18.53-15-44.39-12.34-67.1,3.65,16.59,11.88,55.2,13.95,67.1-3.65ZM501.65,409.04c-8.35-23.96-22.95-36.48-50.4-31.66,5.33,22,30.86,38.21,50.4,31.66ZM430.44,202.88c14.87-20.34,14.21-45.37-10.34-54.91-10.9,15.95-6.3,41.1,10.34,54.91ZM375.19,194.95c18.78-9.79,33.7-35.74,29.3-50.97-24.63,2.64-38.23,24.34-29.3,50.97ZM133.75,384.63c-8.86-14.77-46.1-19.38-59.9-7.42,10.24,17.89,40.32,21.1,59.9,7.42ZM139.67,286.2c.54,7.93,3.96,14.92,7.74,21.65,7.87,14.02,25.99,17.03,38.58,6.65-13.06-19.62-30.41-31.95-46.31-28.3ZM252.31,328.83c-14.39-15.66-51.02-13.29-62.4,4.05,11.37,11.64,44.89,5.33,62.4-4.05ZM468.57,323.45c19.58,9.9,37.33,21.31,59.9,22.56-9.34-24.49-36.41-38.57-59.9-22.56ZM493.33,278.62c20.26,1.21,39.1-22.46,35.35-44.42-26.34,12.18-36.02,23.53-35.35,44.42ZM129.98,313.7c-.23,13.01,2.54,24.11,11.98,32.63,5.1,4.6,11.29,7.01,18.24,6.57,6.25-.39,7.11-1.76,5.43-7.85-4.92-17.85-17.03-27.61-35.65-31.35ZM540.29,312.44c10.41,21.75,39.25,36.15,53.85,27.18-12.1-17.65-36.2-29.93-53.85-27.18ZM258.39,390.26c-3.55-2.99-7.22-4.31-11-5.62-14.09-4.91-26.55-.15-33.72,12.94-1.72,3.15-1.51,5.09,2.1,6.47,4.53,1.74,9.1,3.17,14,3.02,12.42-.36,20.75-7.71,28.61-16.82ZM233.5,157.49c-9.35,3.68-17.86,8.29-20.35,18.75-2.18,9.14.21,17.62,6.25,24.96,15.37-8.91,21.68-27.96,14.1-43.7ZM449.63,155.83c2.4-4.74,2.16-9.45,1.86-14.04-.9-13.69-4.8-26.15-15.6-35.52-1.74-1.51-3.58-3.65-6-2.89-2.35.74-1.84,3.63-2.46,5.61-5.19,16.76,10.51,38.21,22.2,46.85ZM553.28,266.15c2.94.54,5.04-1.54,7.11-2.84,12.4-7.79,22.67-17.14,22.29-33.49-.15-6.49-2.52-7.92-8.49-5.18-15.04,6.92-24.02,24.67-20.91,41.51ZM504.89,232.34c16.25-1.12,37.39-19.99,34.84-34.57-20.75-1.08-36.27,12.98-34.84,34.57ZM114.58,364.63c-2.76-3.84-5.03-7.52-7.8-10.78-9.38-11.09-20.49-13.78-34.02-8.57-1.98.76-4.06,1.28-2.41,4.09,8.37,14.21,27.56,22.44,44.23,15.26ZM113.29,229.15c-.99,12.49,19.92,31.7,38.12,29.27.56-16.47-22.41-31.84-38.12-29.27ZM153.36,150.18c-4.97-.2-5.68.64-4.17,5.38,4.71,14.77,15.55,21.86,30.23,24.53,4.59.83,5.8-.65,5.2-4.76-.17-1.14-.39-2.28-.71-3.39-3.84-13.03-15.24-21.13-30.55-21.75ZM448.34,262.06c18.32-4.83,30.35-21.15,29.61-40.15-19.84,9.51-31.12,21.94-29.61,40.15ZM546.61,276.94c5.61,6.51,12.62,8.58,19.62,10.06,15.39,3.26,24.86-2.45,29.74-17.42.8-2.45,2.42-5.02.02-8.45-14.25,11.38-31.14,14.59-49.39,15.8ZM399.32,239.38c17.71-10.17,19.5-21.54,11.93-37.19-1.27-2.63-2.77-3.4-5.38-1.37-13.17,10.24-17.09,24.79-6.55,38.56ZM341.48,224c-3.7,7.48-3.59,14.39.66,23.41,6.26,13.28,16.56,24.26,21.67,38.26.64-23.34-5.16-44.27-22.33-61.66ZM521.25,388.38c3.66,12.85,14.62,20.72,39.43,26.45-3.67-17.85-20.46-31.8-39.43-26.45ZM508.08,179.87c16.51,4.23,35.65-10.51,35.05-24.49-18.59-1.63-34.21,10.12-35.05,24.49ZM473.03,158.45c-.94,9.6-4.31,17.44-1.77,26.18,2.33,8,2.73,16.34.48,24.61-.33,1.23-1.07,2.86.85,4.35,9.11-6.11,12.09-15.34,12.75-25.52.72-11.16-1.6-21.35-12.31-29.63ZM261.91,136.33c1.37-1.55.92-3.43.74-5.18-1.24-11.87-6.32-21.54-16.39-28.31-5.3-3.56-6.9-2.83-7.92,3.68-2.38,15.26,7.43,27.69,23.56,29.81ZM545.62,242.04c-12.64,10.44-19.11,22.76-23.13,36.76,7.18,2.42,12.75.94,17.62-5.25,7.1-9.01,6.54-19.48,5.51-31.51ZM588.89,305.46c11.36-.18,22.47-9.78,24.56-21.09.7-3.8-1.42-4.41-4.26-3.91-10.75,1.91-20.31,5.79-25.69,16.23-1.06,2.06-2.89,4.39-1.36,6.45,1.43,1.92,4.21,2.34,6.75,2.32ZM497.88,146.9c.17-5.1-1.95-9.33-4.89-13.29-1.96-2.64-3.79-2.47-6.16-.31-8.84,8.08-10.12,20.48-2.72,29.63,1.37,1.69,3.38,3.8,5.77,1.12,4.38-4.9,8.24-10.08,8-17.14ZM332.21,113.92c1.15-4.73-.59-9.02-3.01-12.99-5.64-9.24-15.5-12.72-24.5-17.24-2.77-1.39-3.78.65-3.74,3.34.13,8.55,5.1,13.64,12.18,17.29,5.39,2.78,11.58,4.21,15.56,9.38.76.99,2.07.88,3.52.22ZM244.96,172.91c-1.75,7.29,2.4,12.46,6.9,16.9,6.62,6.53,13.71,12.55,18.2,20.9.08.15.57.07.88.08,4.69-14.44-10.49-36.85-25.98-37.88ZM285.87,356.6c4.37-13.76-13.44-34.96-27.12-33.06,7.49,12.22,13.49,25.36,27.12,33.06ZM604.45,313.77c-.13,7.65,1.49,9.52,5.19,8.47,10.24-2.89,16.2-16.57,11.38-26.03-1.01-1.98-2.27-2.99-4.21-1.25-6.41,5.75-11.86,12.09-12.36,18.81ZM458.39,123.47c11.27-8.22,11.1-21.16-.14-26.76-9.29,8.19-9.35,19.3.14,26.76ZM489.65,113.21c-10.89-1.25-22.55,10.23-20.16,19.87,11.95-.29,19.48-7.71,20.16-19.87ZM108.3,255.46c-8.36-4.69-20.36,1.8-22.99,11.96,11.29,3.28,21.42-1.99,22.99-11.96ZM546.84,212.67c-9.9,4.27-14.72,17.9-10.65,28,7.66-7.69,8.22-17.67,10.65-28ZM549.22,233.39c8.44-2.53,12.99-8.99,12.39-16.99-.21-2.78-1.39-3.34-3.89-2.53-7.64,2.47-11.52,11.07-8.5,19.52ZM235.92,133.49c-2.89,7.01,1.28,13.91,5.98,16.89,2.94,1.86,4.13.89,4.76-2.12,1.49-7.14-2.42-12.72-10.74-14.77Z"/>
  <path class="cls-1" d="M292.39,102.55c1.51.13,2.42-.08,2.74.27,7.59,8.24,18.93,9.31,28.02,14.78,20.22,12.17,33.11,29.34,35.85,52.83,2.31,19.84,7.57,38.32,18.29,55.29,7.31,11.56,12.06,24.25,14.27,37.91,3.19.02,2.44-2.79,3.36-4.26,5.77-9.21,12.87-17.47,21.12-24.3,14.55-12.05,25.73-25.97,31.02-44.44,2.03-7.11,5.31-13.9,8.31-20.71,5.56-12.61,9.58-25.5,8.41-39.52-.07-.8.14-1.63.38-4.03,3.11,5.17,3.71,9.67,3.8,14.05.15,7.84-1.27,15.53-3.45,23.07-3.78,13.03-7.64,26.04-11.23,39.13-4.06,14.81-11.61,27.42-22.9,37.83-3.06,2.82-5.88,5.92-9.05,8.61-14,11.88-21.34,27.2-24.25,45.09-3.17,19.51-9.19,38.17-19.32,55.22-18.53,31.18-25.89,65.19-26.81,101.02-.46,17.79-.73,35.68-7.06,52.71-9.93,26.72-28.27,46.11-52.77,59.99-7.07,4-14.46,7.44-21.7,11.14-2.95,1.51-5.92,3-8.83,4.6-14.22,7.82-23.59,15.11-23.53,37.13-18.94-7.42-36.38-17.05-53.45-28.35,5.48-6.64,12.31-10.76,19.97-13.68,12.04-4.6,24.89-5.86,37.29-9,19.72-4.99,37.47-13.59,50.27-29.91,28.79-36.7,30.64-88.86-.62-127.94-15.05-18.81-33.76-32.37-57.85-37.44-18.26-3.84-35.94-.85-53.51,4.17-9.35,2.67-18.52,6-28.57,5.5-17.96-.89-40.25-18.68-41.69-40-.08-1.25-.01-2.5-.01-4.05,2.84,1.11,3.31,3.4,4.25,5.22,3.63,7.05,8.52,13.1,14.27,18.49,10.48,9.83,22.43,12.25,35.94,7.18,11.8-4.43,22.83-10.83,35.26-13.66,41.4-9.4,80.18,1.81,108.09,36.85.66-1.63.43-3.24.04-4.78-2.57-10.31-4.76-20.77-9-30.55-8.34-19.2-20.7-34.39-42.17-39.57-11.43-2.76-23.17-2.5-34.82-2.29-13.61.24-26.23-2.82-37.78-9.99-5.62-3.48-10.34-8.17-14.84-12.9-21.49-22.61-61.42-17.3-79.23-1.2-1.31,1.18-2.46,2.77-4.63,2.26,2.27-5.7,9.98-13.19,19.68-17.58,24.12-10.89,47.19-8.44,68.64,6.97,9.54,6.85,19.17,13.18,31.13,14.82,7.14.97,14.31.63,21.46.35,17.19-.69,34.31-.93,50.6,6,.23.1.6-.13,1.29-.3-4.83-4.37-10.4-6.97-16.35-8.32-15.28-3.48-26.57-12.42-35.41-24.89-7.66-10.81-15.74-21.31-22.88-32.5-11.69-18.34-14.75-37.85-10.22-59.02,2.45-11.45,5.71-22.87,4.59-34.88-.49-5.31-2.86-9.93-4.96-15.44,4.46,1.45,5.29,4.95,6.63,7.93,5.88,13.08,3.72,26.53,1.34,39.85-3.93,21.99,1.28,41.49,15.1,58.84,5.6,7.03,11.24,14.03,16.96,20.98,7.85,9.54,17.72,15.89,29.78,18.95,6.26,1.59,12.43,3.62,18.74,6.61-1.19-5.08-2.43-9.78-3.39-14.53-2.55-12.62-.02-24.8,3.32-36.92,3.65-13.25,3.71-26.72,1.29-40.1-2.19-12.1-8.74-21.76-18.68-29.11-3.73-2.76-7.26-5.66-9.3-10.11-.86-1.87-1.16-2.99,1.05-4.19,1.98,3.35,5.05,5.32,8.75,6.64,22.23,7.91,31.39,25.21,33.76,47.33,1.28,12,.3,24-.37,35.95-1.14,20.29,3.24,38.86,14.71,55.82,14.5,21.43,25.3,44.73,33.55,70.1,8.15-18,19.8-33.31,25.29-51.69,5.43-18.2,6.4-36.28-1.22-54.18-3.91-9.19-9.54-17.43-14.36-26.12-6.42-11.57-9.15-24.1-9.95-37.18-.66-10.77-.12-21.62-2.87-32.23-4.28-16.55-13.45-29.34-28.32-37.93-3.45-1.99-6.95-3.91-10.31-6.06-4.36-2.79-8.19-6.15-10.93-11.58Z"/>
  <path class="cls-1" d="M421.2,349.21c7.05-2.47,14.05-5.17,21.49-6.25,17.09-2.48,33.46-.42,48.86,7.82,12.06,6.46,24.68,11.01,38.63,9.09,8.05-1.11,15.97-3.09,23.98-4.57,14.31-2.64,28.63-4.11,43.03-.45,9.77,2.48,17.19,8.79,25.56,14.02-1.9,2.08-3.03,1.29-4.17.61-19.13-11.39-39.1-11.15-59.47-4.09-13.31,4.62-26.68,8.96-40.58,11.44-6.72,1.2-13.12-.53-19.47-2.35-3.45-.99-6.87-2.19-10.21-3.52-31.62-12.58-64.05-4.09-83.69,23.85-22.35,31.81-28.93,66.86-16.06,104.33,3.34,9.72,9.32,18.03,16.02,26.03,16.99,20.33,39.67,29.55,64.57,34.48,12.86,2.54,26.06,2.28,39.18,2.32,9.42.03,18.67,1.44,27.28,6.51-4.37,4.68-9.7,7.83-14.35,11.79-.83.7-1.62,1-2.71.63-12.02-4.11-24.64-3.57-37.03-4.53-14.15-1.09-28.17-2.53-41.58-7.49-13.22-4.88-23.57-13.23-30.49-25.66,5.51,13.28,15.19,22.23,28.27,27.89,14.72,6.38,30.32,8.3,46.06,9.78,9.56.9,19.34.57,28.63,4.52-.46,2.48-2.84,3.08-4.46,4.2-9.32,6.43-19.06,12.19-28.98,17.63-1.52.83-2.94,1.62-4.6.41-8.6-6.28-18.92-6.84-28.87-8.54-8.59-1.47-16.92-3.59-24.36-8.3-8.6-5.44-14.65-12.89-17.6-22.77-2.94-9.86-6.05-19.68-9.08-29.51-.18-.6-.13-1.36-1.37-1.27.82,6.56,2.38,12.97,4.84,19,6.47,15.84,5,31.14-1.91,46.36-4.55,10.02-8.92,20.13-7.35,31.89-13.03,2.33-25.78,2.7-38.66,3.16-2.1-5.24.71-9.72,2.08-14.28,2.91-9.68,8.85-17.82,14.03-26.33,9.09-14.92,16.04-30.6,17.77-48.22.19-1.99.34-3.98.38-5.98.03-1.64-.13-3.29-.2-4.86-.83-.17-1.23.13-1.22.66.41,18.94-9.27,33.48-20.68,47.22-3.94,4.74-8.08,9.31-12.16,13.93-9.27,10.5-15.36,22.16-13.02,37.26-5.33.22-10.22-.03-15.12-.63-2.23-.27-2.47-1.68-2.78-3.42-2.25-12.66,1.88-23.26,10.36-32.47,5.67-6.15,12.39-11.11,18.77-16.46,14.07-11.81,25.14-25.62,29.7-43.86,2.23-8.92,1.81-17.71-1.13-27.13-2.75,28.11-19.19,46.66-39.9,62.46-7.67,5.85-15.77,11.11-22.74,17.89-10.05,9.78-13.29,21.53-11.09,35.1.26,1.61.33,3.25.54,5.34-8.32-.55-16-2.53-23.73-4.07-6.82-1.36-13.35-3.9-20.29-4.92-2.39-.35-3.98-1.89-3.68-5.29,1.19-13.5,7.92-23.54,18.85-30.81,10.51-7,21.53-13.25,32.08-20.19,15.9-10.45,28.93-23.66,38.07-40.55,7.99-14.77,10.95-30.77,11.53-47.26.6-16.96-.43-34.05,1.25-50.89,3.55-35.49,14.89-68,40.7-94.1,12.89-13.03,25.82-26.12,35.29-41.97,7.86-13.17,17.78-24.22,30.15-33.23,12.32-8.98,18.68-21.47,21.71-36.27,3.45-16.87,7.62-33.59,11.8-50.3,1.91-7.63,5.5-14.43,12.8-18.49.51.32,1.03.65,1.54.97-9.2,9.73-10.28,22.24-11.95,34.58-.46,3.42-.99,6.91-2.09,10.15-4,11.77-4.1,24.15-6.06,36.24-1.87,11.51-7,21.33-15.77,29.14-9.58,8.54-19.23,17.01-24.57,29.13-.4.91-.77,1.83-1.16,2.75-.09.36-.35.96-.24,1.05.47.36.69-.04.8-.48,8.6-3.35,17.26-6.52,26.32-8.34,15.86-3.18,31.77-3.74,47.93-2.01,20.91,2.24,39.47,9.84,56.16,22.32,4.5,3.37,8.57,7.32,12.88,10.94,6.95,5.85,13.95,11.63,22.68,15.06-2.13,1.23-3.9.93-5.96.28-8.07-2.55-14.98-7.04-21.56-12.15-12.8-9.96-26.88-17.45-43.01-19.81-49.33-7.22-91.86,6.03-126.24,42.98-.27.47-1.33.76-.68,1.41.44.45,1.21.09,1.57-.58ZM392.29,520.38c.04,3.65-.44,7.65,1.14,11.54-.38-3.85-.76-7.7-1.14-11.54Z"/>
  <path class="cls-2" d="M123.49,410.61c17.97-24.54,44.57-35.86,81.18-30.56-9.54,31.8-56.08,49.5-81.18,30.56Z"/>
  <path class="cls-1" d="M308.87,233.66c12.62,10.07,25.41,18.62,34.46,31.17,11.05,15.32,17.13,32.16,13.78,51.42-.2,1.14-.43,2.28-.8,3.37-.51,1.49-1.18,2.93-1.98,4.89-12.03-18.08-28.26-32.46-36.96-52.26-5.26-11.97-8.81-24.29-8.5-38.58Z"/>
  <path class="cls-1" d="M395.13,633.86c-1.73-18,8.35-32.9,10.04-49.45.39,0,.89-.13.99.02,8.01,11.64,19.91,16.85,32.94,20.6,11.72,3.37,15.62,5.83,20.12,11.04-20.54,8.6-41.68,14.28-64.09,17.8Z"/>
  <path class="cls-1" d="M351.73,86.55c14.61,7.44,28.82,15.14,31.96,33.29,2.18,12.58-2.23,23.31-10.59,32.75-17.57-17.73-30.45-42.45-21.37-66.04Z"/>
  <path class="cls-1" d="M163.29,238.18c29.41.31,44.97,9.18,61.42,42.27-17.08,7.86-59.55-11.43-61.42-42.27Z"/>
  <path class="cls-2" d="M408.22,310.67c-5.34-8.57-4.29-17.53-2.71-26.39,2.15-12,9.06-21.28,17.93-29.26,5.66-5.09,11.72-9.64,18.16-14.07,3.45,20.35-15.85,60.82-33.37,69.72Z"/>
  <path class="cls-2" d="M329.75,166.04c14.26,16.45,8.85,51.7-9.59,64.17-18.1-13.77-12.64-51.15,9.59-64.17Z"/>
  <path class="cls-2" d="M151.42,180.61c23.44,5.69,34.7,24.23,37.55,52.18-13.61-1.74-25.71-5.53-33.7-17.59-7.23-10.91-7.01-22.5-3.85-34.58Z"/>
  <path class="cls-2" d="M80.54,337.13c-.41-26.51,15.89-50.94,44.33-53.22.87,19.03-27.28,53.08-44.33,53.22Z"/>
  <path class="cls-1" d="M244.16,195.54c20.48,19.27,24.5,32.51,11.83,59.39-20.38-15.25-28.41-41.29-11.83-59.39Z"/>
  <path class="cls-1" d="M329.11,147.91c-13.24,2.36-25.98,4.26-38.52-.7-7.64-3.02-13.08-8.59-17.06-15.71-1.25-2.23-.82-3.36,1.46-4.69,12.36-7.22,24.4-7.02,36.54.61,7.86,4.94,14.19,11.02,17.58,20.48Z"/>
  <path class="cls-2" d="M617.2,377.86c-11.9,17.59-50.51,15.53-67.1,3.65,22.71-15.98,48.57-18.65,67.1-3.65Z"/>
  <path class="cls-2" d="M501.65,409.04c-19.54,6.55-45.07-9.66-50.4-31.66,27.45-4.82,42.05,7.7,50.4,31.66Z"/>
  <path class="cls-1" d="M430.44,202.88c-16.65-13.81-21.24-38.96-10.34-54.91,24.55,9.54,25.21,34.57,10.34,54.91Z"/>
  <path class="cls-1" d="M375.19,194.95c-8.93-26.64,4.67-48.33,29.3-50.97,4.4,15.23-10.52,41.19-29.3,50.97Z"/>
  <path class="cls-1" d="M133.75,384.63c-19.58,13.68-49.67,10.46-59.9-7.42,13.8-11.96,51.04-7.34,59.9,7.42Z"/>
  <path class="cls-2" d="M139.67,286.2c15.91-3.65,33.26,8.68,46.31,28.3-12.58,10.38-30.7,7.37-38.58-6.65-3.78-6.73-7.2-13.72-7.74-21.65Z"/>
  <path class="cls-2" d="M252.31,328.83c-17.51,9.38-51.03,15.68-62.4,4.05,11.38-17.33,48.01-19.71,62.4-4.05Z"/>
  <path class="cls-2" d="M468.57,323.45c23.49-16.01,50.56-1.92,59.9,22.56-22.57-1.25-40.32-12.66-59.9-22.56Z"/>
  <path class="cls-1" d="M493.33,278.62c-.67-20.89,9.01-32.23,35.35-44.42,3.75,21.96-15.09,45.63-35.35,44.42Z"/>
  <path class="cls-1" d="M129.98,313.7c18.62,3.74,30.73,13.5,35.65,31.35,1.68,6.09.82,7.46-5.43,7.85-6.95.43-13.14-1.98-18.24-6.57-9.44-8.51-12.21-19.61-11.98-32.63Z"/>
  <path class="cls-2" d="M540.29,312.44c17.65-2.75,41.75,9.53,53.85,27.18-14.6,8.96-43.44-5.43-53.85-27.18Z"/>
  <path class="cls-2" d="M258.39,390.26c-7.86,9.11-16.19,16.45-28.61,16.82-4.9.14-9.47-1.29-14-3.02-3.6-1.38-3.82-3.33-2.1-6.47,7.16-13.09,19.63-17.86,33.72-12.94,3.77,1.32,7.44,2.63,11,5.62Z"/>
  <path class="cls-1" d="M233.5,157.49c7.57,15.74,1.27,34.8-14.1,43.7-6.05-7.34-8.43-15.82-6.25-24.96,2.49-10.46,11-15.07,20.35-18.75Z"/>
  <path class="cls-2" d="M449.63,155.83c-11.69-8.64-27.39-30.09-22.2-46.85.61-1.98.11-4.87,2.46-5.61,2.42-.76,4.26,1.39,6,2.89,10.8,9.37,14.71,21.83,15.6,35.52.3,4.59.54,9.3-1.86,14.04Z"/>
  <path class="cls-2" d="M553.28,266.15c-3.11-16.84,5.86-34.59,20.91-41.51,5.97-2.75,8.34-1.32,8.49,5.18.38,16.35-9.89,25.7-22.29,33.49-2.07,1.3-4.18,3.38-7.11,2.84Z"/>
  <path class="cls-2" d="M504.89,232.34c-1.43-21.59,14.09-35.65,34.84-34.57,2.55,14.58-18.59,33.45-34.84,34.57Z"/>
  <path class="cls-2" d="M114.58,364.63c-16.67,7.18-35.86-1.05-44.23-15.26-1.65-2.8.43-3.33,2.41-4.09,13.53-5.21,24.64-2.52,34.02,8.57,2.76,3.26,5.04,6.94,7.8,10.78Z"/>
  <path class="cls-1" d="M113.29,229.15c15.71-2.57,38.68,12.79,38.12,29.27-18.19,2.44-39.11-16.77-38.12-29.27Z"/>
  <path class="cls-2" d="M153.36,150.18c15.31.62,26.71,8.73,30.55,21.75.33,1.1.55,2.25.71,3.39.6,4.11-.61,5.59-5.2,4.76-14.68-2.66-25.52-9.76-30.23-24.53-1.51-4.74-.81-5.58,4.17-5.38Z"/>
  <path class="cls-1" d="M448.34,262.06c-1.51-18.21,9.77-30.65,29.61-40.15.74,19-11.29,35.32-29.61,40.15Z"/>
  <path class="cls-1" d="M546.61,276.94c18.25-1.21,35.14-4.42,49.39-15.8,2.4,3.43.78,6-.02,8.45-4.88,14.96-14.35,20.68-29.74,17.42-7-1.48-14.01-3.56-19.62-10.06Z"/>
  <path class="cls-2" d="M399.32,239.38c-10.55-13.78-6.62-28.32,6.55-38.56,2.61-2.03,4.1-1.27,5.38,1.37,7.57,15.65,5.78,27.02-11.93,37.19Z"/>
  <path class="cls-2" d="M341.48,224c17.17,17.39,22.97,38.32,22.33,61.66-5.11-13.99-15.41-24.98-21.67-38.26-4.25-9.02-4.36-15.93-.66-23.41Z"/>
  <path class="cls-1" d="M521.25,388.38c18.97-5.35,35.76,8.6,39.43,26.45-24.81-5.73-35.77-13.6-39.43-26.45Z"/>
  <path class="cls-1" d="M508.08,179.87c.84-14.37,16.45-26.12,35.05-24.49.6,13.98-18.54,28.72-35.05,24.49Z"/>
  <path class="cls-2" d="M473.03,158.45c10.71,8.28,13.04,18.46,12.31,29.63-.66,10.18-3.65,19.41-12.75,25.52-1.92-1.49-1.18-3.13-.85-4.35,2.24-8.27,1.84-16.61-.48-24.61-2.54-8.74.83-16.58,1.77-26.18Z"/>
  <path class="cls-2" d="M261.91,136.33c-16.13-2.12-25.94-14.56-23.56-29.81,1.01-6.51,2.62-7.24,7.92-3.68,10.07,6.77,15.15,16.44,16.39,28.31.18,1.75.63,3.63-.74,5.18Z"/>
  <path class="cls-2" d="M545.62,242.04c1.03,12.03,1.59,22.5-5.51,31.51-4.88,6.19-10.44,7.68-17.62,5.25,4.02-14,10.49-26.32,23.13-36.76Z"/>
  <path class="cls-2" d="M588.89,305.46c-2.54.01-5.32-.4-6.75-2.33-1.53-2.06.29-4.39,1.36-6.45,5.39-10.44,14.95-14.32,25.69-16.23,2.84-.51,4.97.11,4.26,3.91-2.1,11.32-13.21,20.92-24.57,21.1Z"/>
  <path class="cls-2" d="M497.88,146.89c.25,7.07-3.62,12.25-8,17.15-2.39,2.68-4.4.57-5.77-1.12-7.4-9.14-6.12-21.55,2.72-29.63,2.37-2.16,4.2-2.33,6.16.31,2.94,3.96,5.06,8.2,4.89,13.29Z"/>
  <path class="cls-2" d="M332.21,113.92c-1.45.66-2.76.77-3.52-.22-3.99-5.17-10.18-6.6-15.56-9.38-7.07-3.66-12.04-8.74-12.18-17.29-.04-2.7.97-4.73,3.74-3.34,9,4.52,18.86,8,24.5,17.24,2.42,3.97,4.16,8.26,3.01,12.99Z"/>
  <path class="cls-2" d="M244.96,172.91c15.49,1.02,30.67,23.43,25.98,37.88-.3-.02-.8.06-.88-.09-4.49-8.35-11.58-14.37-18.2-20.9-4.5-4.44-8.65-9.6-6.9-16.9Z"/>
  <path class="cls-2" d="M285.87,356.6c-13.63-7.7-19.63-20.84-27.12-33.06,13.68-1.89,31.48,19.3,27.12,33.06Z"/>
  <path class="cls-2" d="M604.45,313.77c.5-6.72,5.94-13.06,12.36-18.81,1.94-1.74,3.2-.73,4.21,1.25,4.83,9.45-1.13,23.14-11.38,26.03-3.7,1.04-5.33-.83-5.19-8.47Z"/>
  <path class="cls-2" d="M458.39,123.47c-9.49-7.46-9.44-18.57-.14-26.76,11.24,5.59,11.41,18.53.14,26.76Z"/>
  <path class="cls-1" d="M489.65,113.21c-.68,12.16-8.21,19.58-20.16,19.87-2.38-9.64,9.27-21.12,20.16-19.87Z"/>
  <path class="cls-1" d="M108.3,255.46c-1.57,9.97-11.7,15.25-22.99,11.96,2.63-10.16,14.63-16.65,22.99-11.96Z"/>
  <path class="cls-1" d="M546.84,212.67c-2.43,10.34-2.99,20.31-10.65,28-4.07-10.1.75-23.73,10.65-28Z"/>
  <path class="cls-2" d="M549.22,233.39c-3.02-8.45.87-17.05,8.5-19.52,2.5-.81,3.68-.25,3.89,2.53.6,7.99-3.95,14.46-12.39,16.99Z"/>
  <path class="cls-2" d="M235.92,133.49c8.32,2.05,12.24,7.63,10.74,14.77-.63,3.01-1.82,3.98-4.76,2.12-4.71-2.98-8.88-9.88-5.98-16.89Z"/>
  <path class="cls-1" d="M513.34,155.34c.05.84-.5,1.1-1.19,1.22-.51-.32-1.02-.65-1.54-.97.34-.93,1.13-1.2,2-1.33.24.36.48.72.72,1.08Z"/>
  <path class="cls-1" d="M512.62,154.26c.53-.55,1.1-.69,1.44.1.08.19-.46.64-.72.98-.24-.36-.48-.72-.72-1.08Z"/>
  <path class="cls-3" d="M392.29,520.38c.38,3.85.76,7.7,1.14,11.54-1.58-3.9-1.1-7.89-1.14-11.54Z"/>
  <path class="cls-3" d="M421.2,349.21c-.36.67-1.13,1.03-1.57.58-.64-.65.42-.93.68-1.41.29.27.59.55.88.82Z"/>
  <path class="cls-3" d="M451.12,299.12c-.11.44-.33.83-.8.48-.12-.09.15-.68.24-1.05.19.19.38.38.56.57Z"/>
</svg>