<?xml version="1.0" encoding="UTF-8" standalone="no"?>
<!-- Created with Inkscape (http://www.inkscape.org/) -->

<svg
   width="139.17084mm"
   height="132.29167mm"
   viewBox="0 0 139.17084 132.29167"
   version="1.1"
   id="svg1"
   inkscape:version="1.4 (e7c3feb1, 2024-10-09)"
   sodipodi:docname="tmt-logo-white-f.svg"
   xmlns:inkscape="http://www.inkscape.org/namespaces/inkscape"
   xmlns:sodipodi="http://sodipodi.sourceforge.net/DTD/sodipodi-0.dtd"
   xmlns="http://www.w3.org/2000/svg"
   xmlns:svg="http://www.w3.org/2000/svg">
  <sodipodi:namedview
     id="namedview1"
     pagecolor="#ffffff"
     bordercolor="#000000"
     borderopacity="0.25"
     inkscape:showpageshadow="false"
     inkscape:pageopacity="0.0"
     inkscape:pagecheckerboard="0"
     inkscape:deskcolor="#d1d1d1"
     inkscape:document-units="mm"
     inkscape:zoom="1"
     inkscape:cx="226"
     inkscape:cy="299.5"
     inkscape:window-width="2032"
     inkscape:window-height="1164"
     inkscape:window-x="0"
     inkscape:window-y="25"
     inkscape:window-maximized="0"
     inkscape:current-layer="layer1" />
  <defs
     id="defs1" />
  <g
     inkscape:label="Layer 1"
     inkscape:groupmode="layer"
     id="layer1"
     transform="translate(-43.126972,-63.764587)">
    <rect
       style="fill:#000000;fill-opacity:1;stroke-width:0.600388;stroke-linecap:round;stroke-linejoin:round;stroke-dasharray:0.600388, 0.600388, 0.600388"
       id="rect3"
       width="139.17084"
       height="132.29167"
       x="43.126972"
       y="63.764587" />
    <path
       id="path301"
       style="fill:#f9f9f9;fill-opacity:1;stroke-width:0.65104"
       class="cls-2"
       inkscape:transform-center-x="-0.28687397"
       inkscape:transform-center-y="-1.2603608"
       d="m 111.57809,70.131124 c -2.01682,0.04764 -4.04992,0.197852 -6.0942,0.454753 -32.708558,4.110415 -55.942394,34.023283 -51.831979,66.731843 4.110414,32.70856 34.022769,55.94188 66.731329,51.83146 32.70855,-4.1104 55.94239,-34.02277 51.83198,-66.73132 C 168.3617,91.753577 141.83046,69.416573 111.57809,70.131124 Z m 2.70526,5.394503 c 26.47284,0.614005 49.17292,20.488615 52.5756,47.565573 3.74665,29.81376 -17.33478,56.95509 -47.14854,60.70172 -8.3533,1.04974 -16.49626,0.14827 -23.974246,-2.34611 1.789431,-3.32751 4.591566,-7.39254 8.752956,-10.45673 2.2197,-1.63458 6.51357,-3.12804 8.86767,-3.5729 0.0129,-0.002 0.0254,-0.004 0.0382,-0.006 9.38987,10.32796 23.18976,11.5319 33.1556,-1.82624 -1.9833,-0.0643 -5.01525,-0.29599 -7.14375,-1.87482 -9.39175,-6.96653 -17.0154,-8.90021 -25.89867,2.32389 -0.6882,0.0493 -1.38545,0.10509 -2.12546,0.2036 -2.4253,0.32301 -5.11552,0.93353 -7.97522,1.98903 -4.850098,1.79013 -8.863803,5.62644 -11.220503,8.29045 -0.044,-0.59021 -0.09312,-1.18169 -0.111621,-1.76734 -0.068,-2.16064 0.425942,-4.66074 1.283642,-7.38301 0.6856,-1.88039 2.016127,-4.71226 4.470529,-7.2688 2.286203,-2.38151 4.159153,-4.00806 6.394953,-5.5392 9.6362,-6.59926 10.40269,-4.5883 19.33939,-9.01702 3.299,-1.63491 5.28689,-3.32747 6.5903,-5.02915 11.27907,-3.74021 24.0799,-25.53724 14.04979,-39.60844 -14.55059,9.87765 -19.2631,19.02257 -15.74375,38.87257 -0.30313,0.28901 -0.6183,0.56894 -0.96169,0.82475 -3.1265,2.3291 -6.96134,3.56444 -17.21394,5.40174 -3.4971,0.62669 -6.34189,1.72278 -8.56899,2.87062 3.4966,-6.81966 7.06143,-13.71142 9.03563,-19.70008 1.46977,-4.45857 1.51726,-9.49064 0.88677,-14.32781 4.45974,-6.57269 7.16011,-13.28692 4.84931,-20.99562 -2.31,-7.70975 -8.35984,-12.085982 -15.99954,-15.232662 l -0.005,-0.0041 c -7.351835,12.82496 -3.766317,24.830642 7.76904,36.435502 -0.0287,1.2126 -0.0874,2.43365 -0.20981,3.65765 -1.0829,10.82485 -11.724418,24.55231 -18.280018,37.34036 -0.7288,-2.29026 -1.65849,-4.91352 -2.77089,-7.42849 -0.415801,-0.93996 -0.850347,-1.85589 -1.288811,-2.75125 0.179734,-3.35462 0.479496,-6.46881 0.373104,-9.54825 -0.3926,-11.52565 -5.919351,-18.66358 -16.761251,-22.06481 -1.5856,-0.4993 -3.120854,-1.19116 -3.463354,1.36581 -1.666411,12.42529 5.429002,26.30123 18.088302,30.71854 0.925803,2.92527 1.777968,6.02478 2.186429,8.65322 0.4429,2.85027 0.680704,5.38219 0.810804,7.26984 -1.813514,4.63129 -2.83988,9.16186 -3.365686,13.35422 C 70.493879,167.21614 61.1006,153.29483 59.008174,136.64438 55.26154,106.83061 76.342949,79.688771 106.15672,75.942139 c 1.86336,-0.234164 3.71624,-0.371355 5.55366,-0.415478 0.8613,-0.02068 1.71901,-0.02084 2.57297,-0.001 z m 17.19689,10.031429 c -4.424,0.87243 -7.97884,2.61988 -10.17044,6.4363 -1.1814,2.06131 -1.54535,4.332727 -0.89245,6.653857 0.5881,2.087087 1.11434,2.278187 3.05304,1.265039 5.683,-2.9682 8.10285,-7.779496 8.00985,-14.355196 z m -48.656983,10.03298 c -0.2091,0.005 -0.420402,0.02043 -0.632002,0.04703 -3.3855,0.42545 -5.828788,3.570635 -5.403288,6.956174 0.4254,3.38553 3.571181,5.82873 6.956681,5.40328 3.3856,-0.42546 5.828171,-3.57063 5.402771,-6.95616 -0.3989,-3.173936 -3.187462,-5.520059 -6.324162,-5.450319 z m 42.031023,7.293094 c -0.1993,0.004 -0.39981,0.0191 -0.60151,0.0444 -3.2267,0.4055 -5.55816,3.40488 -5.15266,6.63164 0.4055,3.22677 3.40701,5.55816 6.63371,5.15266 3.2268,-0.4055 5.55609,-3.40642 5.15059,-6.63319 -0.3801,-3.02508 -3.04033,-5.26193 -6.03013,-5.19555 z m -31.407382,2.90628 c -0.604047,0.031 -0.988869,0.71467 -1.170988,1.60146 -0.833,4.08597 0.998819,7.02801 3.980119,9.51466 2.2693,1.88979 5.066351,3.22194 6.422351,6.1035 0.2578,0.55121 0.89323,0.63682 1.65313,0.47491 l -0.005,-0.001 c 1.0457,-2.13132 0.66845,-4.35694 -0.0662,-6.50193 -1.7134,-4.99319 -6.04211,-7.68773 -9.85211,-10.78694 -0.366469,-0.29789 -0.686615,-0.41871 -0.961182,-0.40463 z m 63.906692,2.46962 c -0.1326,0.003 -0.26587,0.0126 -0.39997,0.0295 -2.1443,0.26947 -3.70702,2.28175 -3.43752,4.42608 0.2694,2.14434 2.28179,3.70957 4.42609,3.4401 2.1443,-0.26947 3.70701,-2.28382 3.43751,-4.42815 -0.2526,-2.01032 -2.03721,-3.50996 -4.02611,-3.46749 z m -34.39376,13.76092 c -0.1825,0.002 -0.40314,0.0479 -0.67128,0.14779 -7.257,2.70186 -12.63835,10.89719 -10.68875,19.19366 2.002,-0.9604 3.89056,-1.71217 5.62446,-2.72025 5.8977,-3.42519 8.05411,-8.34041 6.75721,-15.02337 -0.15324,-0.79445 -0.23084,-1.60681 -1.02164,-1.59783 z m -32.059546,0.34054 c -2.1451,2.22975 -2.879635,4.68447 -2.386935,8.34833 0.7263,5.3946 3.137172,10.43208 3.377572,15.9489 2.8385,-8.17808 3.130729,-16.22523 -0.991671,-24.29361 z m 68.058896,2.97708 c -5.46336,-0.0818 -11.94316,3.56206 -13.14183,8.28735 4.3774,2.19117 13.29447,-2.89511 17.35397,-7.28431 -1.23215,-0.66517 -2.6824,-0.98012 -4.21214,-1.00304 z m -4.17184,13.80433 c -0.2039,0.005 -0.40978,0.0196 -0.61598,0.0455 -3.2998,0.41467 -5.6825,3.48018 -5.2679,6.77995 0.4147,3.29975 3.48222,5.68257 6.78202,5.2679 3.2997,-0.41467 5.68053,-3.48226 5.26583,-6.78202 -0.3887,-3.09354 -3.10687,-5.37931 -6.16397,-5.3113 z m -19.67994,5.15731 c -3.32174,0.021 -6.3996,1.35577 -9.46815,3.45302 5.0835,5.13789 10.71934,6.94709 17.42374,4.778 2.2877,-0.73963 2.54342,-1.29953 1.36012,-3.36827 -1.3169,-2.29964 -3.37803,-3.76403 -5.90403,-4.42557 -1.17002,-0.30537 -2.30443,-0.44419 -3.41168,-0.43718 z m -67.697672,0.18965 c 0.1219,3.45708 2.257196,10.11642 5.270996,12.09435 4.252,3.71871 7.775531,1.86624 11.628231,5.95674 -2.5594,-7.89204 -7.544427,-14.2268 -16.899227,-18.05109 z m 49.665702,7.97264 c -8.3668,2.31216 -15.17607,6.65165 -19.489766,14.64768 l -0.0036,0.001 c 3.061706,0.50139 5.506146,-0.28941 8.250146,-2.78174 4.0399,-3.6704 6.82594,-8.52814 11.24324,-11.86698 z" />
  </g>
</svg>
