<?xml version="1.0" encoding="UTF-8" standalone="no"?>
<!-- Created with Inkscape (http://www.inkscape.org/) -->

<svg
   width="119.50563mm"
   height="119.50563mm"
   viewBox="0 0 119.50563 119.50563"
   version="1.1"
   id="svg1"
   inkscape:version="1.4 (e7c3feb1, 2024-10-09)"
   sodipodi:docname="tmt-logo-color-f.svg"
   xmlns:inkscape="http://www.inkscape.org/namespaces/inkscape"
   xmlns:sodipodi="http://sodipodi.sourceforge.net/DTD/sodipodi-0.dtd"
   xmlns="http://www.w3.org/2000/svg"
   xmlns:svg="http://www.w3.org/2000/svg">
  <sodipodi:namedview
     id="namedview1"
     pagecolor="#ffffff"
     bordercolor="#000000"
     borderopacity="0.25"
     inkscape:showpageshadow="false"
     inkscape:pageopacity="0.0"
     inkscape:pagecheckerboard="0"
     inkscape:deskcolor="#d1d1d1"
     inkscape:document-units="mm"
     inkscape:zoom="1"
     inkscape:cx="188"
     inkscape:cy="275.5"
     inkscape:window-width="2032"
     inkscape:window-height="1164"
     inkscape:window-x="0"
     inkscape:window-y="25"
     inkscape:window-maximized="0"
     inkscape:current-layer="layer1" />
  <defs
     id="defs1" />
  <g
     inkscape:label="Layer 1"
     inkscape:groupmode="layer"
     id="layer1"
     transform="translate(-53.181139,-70.114588)">
    <g
       id="g1">
      <path
         class="cls-2"
         d="m 100.4828,78.61332 c -7.7479,13.51587 -3.3552,26.12199 9.6959,38.30777 5.3015,-7.24291 8.8633,-14.54979 6.3089,-23.07113 -2.31,-7.70975 -8.36,-12.08611 -15.9997,-15.23279 z"
         id="path301"
         style="fill:#3f7f0f;fill-opacity:0.866667;stroke-width:0.65104"
         inkscape:transform-center-y="-1.2603608"
         inkscape:transform-center-x="-0.28687397" />
      <path
         class="cls-2"
         d="m 112.8796,166.84064 c 9.3944,10.85652 23.5223,12.3471 33.6709,-1.256 -1.9833,-0.0643 -5.0151,-0.29572 -7.1436,-1.87455 -9.6128,-7.1305 -17.3725,-8.99667 -26.5273,3.13055 z"
         id="path302"
         style="fill:#3f7f0f;fill-opacity:0.866667;stroke-width:0.561462"
         sodipodi:nodetypes="ccsc" />
      <path
         class="cls-2"
         d="m 85.6465,146.87482 c -13.7268,-3.7162 -21.536,-18.28011 -19.7959,-31.25485 0.3425,-2.55697 1.8778,-1.86517 3.4634,-1.36587 10.8419,3.40123 16.3684,10.53929 16.761,22.06494 0.1171,3.38939 -0.2646,6.80472 -0.4286,10.5558 z"
         id="path303"
         style="fill:#3f7f0f;fill-opacity:0.866667;stroke-width:0.788346" />
      <path
         class="cls-1"
         d="m 144.204,100.90403 c -14.8254,10.06421 -19.4437,19.35946 -15.5414,40.00084 11.5886,-2.17805 26.0169,-25.30481 15.5414,-40.00084 z"
         id="path304"
         style="fill:#3f7f0f;fill-opacity:0.866667;stroke-width:0.597226" />
    </g>
    <path
       id="path308"
       style="fill:#6e462b;fill-opacity:1;stroke-width:0.4806"
       d="M 111.57809 70.131124 C 109.56127 70.178761 107.52817 70.328976 105.48389 70.585877 C 72.775332 74.696292 49.541496 104.60916 53.651911 137.31772 C 57.762325 170.02628 87.674681 193.2596 120.38324 189.14918 C 153.09179 185.03878 176.32563 155.12641 172.21522 122.41786 C 168.3617 91.753582 141.83046 69.416573 111.57809 70.131124 z M 111.71038 75.526661 C 139.27177 74.86481 163.3465 95.140792 166.85895 123.0912 C 170.6056 152.90496 149.52417 180.04629 119.71041 183.79292 C 111.35711 184.84266 103.21415 183.94119 95.736164 181.44681 C 97.525595 178.1193 100.32773 174.05427 104.48912 170.99008 C 106.70882 169.3555 111.00269 167.86204 113.35679 167.41718 C 118.58419 166.42952 123.55876 166.89318 123.55876 166.89318 C 123.55876 166.89318 118.65865 165.26885 111.38275 166.2374 C 108.95745 166.56041 106.26723 167.17093 103.40753 168.22643 C 98.557431 170.01656 94.543727 173.85287 92.187027 176.51688 C 92.143027 175.92667 92.093906 175.33519 92.075406 174.74954 C 92.007406 172.5889 92.501348 170.0888 93.359048 167.36653 C 94.044648 165.48614 95.375176 162.65427 97.829577 160.09773 C 100.11578 157.71622 101.98873 156.08967 104.22453 154.55853 C 113.86073 147.95927 114.62722 149.97023 123.56392 145.54151 C 129.35082 142.67366 131.18231 139.6296 132.16391 136.66711 C 132.99951 134.14505 132.78868 131.59352 132.78868 131.59352 C 132.78868 131.59352 131.66417 137.49803 127.49857 140.60124 C 124.37207 142.93034 120.53723 144.16568 110.28463 146.00298 C 106.78753 146.62967 103.94274 147.72576 101.71564 148.8736 C 105.21224 142.05394 108.77707 135.16218 110.75127 129.17352 C 115.54318 114.6372 105.29762 93.989894 105.28183 93.958094 C 105.28715 93.974569 109.27705 106.3576 108.04187 118.70645 C 106.95897 129.5313 96.317452 143.25876 89.761852 156.04681 C 89.033052 153.75655 88.103362 151.13329 86.990962 148.61832 C 84.069062 142.01306 80.252355 136.14363 80.252355 136.14363 C 80.252355 136.14363 84.962381 147.50771 86.125381 154.99158 C 86.568281 157.84185 86.806085 160.37377 86.936185 162.26142 C 85.122671 166.89271 84.096305 171.42328 83.570499 175.61564 C 70.493879 167.21614 61.1006 153.29483 59.008174 136.64438 C 55.26154 106.83061 76.342952 79.688771 106.15672 75.942139 C 108.02008 75.707975 109.87296 75.570784 111.71038 75.526661 z M 105.28183 93.958094 L 105.28028 93.952409 L 105.27925 93.952409 L 105.28183 93.958094 z " />
    <g
       id="g2">
      <path
         class="cls-2"
         d="m 97.5855,167.10907 c 4.3137,-7.99603 11.1231,-12.33533 19.4899,-14.64749 -4.4173,3.33884 -7.2033,8.19627 -11.2432,11.86667 -2.744,2.49233 -5.1885,3.28332 -8.2502,2.78193 z"
         id="path300"
         style="display:inline;fill:#5ebf17;fill-opacity:1;stroke-width:0.371772" />
      <path
         class="cls-2"
         d="m 90.8993,122.36397 c 4.1224,8.06838 3.8299,16.11544 0.9914,24.29352 -0.2404,-5.51682 -2.6509,-10.55414 -3.3772,-15.94874 -0.4927,-3.66386 0.2418,-6.11859 2.3869,-8.34834 z"
         id="path305"
         style="fill:#5ebf17;fill-opacity:1;stroke-width:0.370755" />
      <path
         class="cls-2"
         d="m 104.3315,123.48414 c -0.7599,0.16191 -1.3952,0.0761 -1.653,-0.47511 -1.356,-2.88156 -4.153,-4.21379 -6.4223,-6.10358 -2.9813,-2.48665 -4.8135,-5.42849 -3.9805,-9.51446 0.2649,-1.28987 0.9595,-2.15021 2.1322,-1.19696 3.81,3.09921 8.1389,5.79367 9.8523,10.78686 0.7346,2.14499 1.1117,4.37082 0.066,6.50214 z"
         id="path306"
         style="fill:#5ebf17;fill-opacity:1;stroke-width:0.487654" />
      <path
         class="cls-2"
         d="m 111.5998,141.36138 c -1.9496,-8.29647 3.4319,-16.49183 10.6889,-19.19369 1.4301,-0.53273 1.5042,0.47245 1.6928,1.45024 1.2969,6.68296 -0.8595,11.59808 -6.7572,15.02327 -1.7339,1.00808 -3.6225,1.7597 -5.6245,2.7201 z"
         id="path307"
         style="fill:#5ebf17;fill-opacity:1;stroke-width:0.469545"
         inkscape:transform-center-x="6.8657635"
         inkscape:transform-center-y="-1.9275926" />
      <path
         class="cls-1"
         d="m 131.4802,85.55682 c 0.093,6.5757 -2.3267,11.38716 -8.0097,14.35536 -1.9387,1.01315 -2.4653,0.82202 -3.0534,-1.26507 -0.6529,-2.32113 -0.2889,-4.59228 0.8925,-6.65359 2.1916,-3.81642 5.7466,-5.56427 10.1706,-6.4367 z"
         id="path309"
         style="fill:#5ebf17;fill-opacity:1;stroke-width:0.346269" />
      <path
         class="cls-1"
         d="m 125.6391,147.75238 c 5.0835,5.13789 10.7194,6.94679 17.4238,4.7777 2.2877,-0.73963 2.5434,-1.29958 1.3601,-3.36832 -1.3169,-2.29964 -3.3778,-3.76361 -5.9038,-4.42515 -4.6801,-1.22147 -8.7887,0.21944 -12.8801,3.01577 z"
         id="path310"
         style="fill:#5ebf17;fill-opacity:1;stroke-width:0.380571" />
      <path
         class="cls-2"
         d="m 67.4095,144.48904 c 9.3548,3.82429 14.34,10.15887 16.8994,18.05091 -3.8527,-4.0905 -7.376,-2.23804 -11.628,-5.95675 -3.0138,-1.97793 -5.1495,-8.63708 -5.2714,-12.09416 z"
         id="path311"
         style="fill:#5ebf17;fill-opacity:1;stroke-width:0.394314"
         inkscape:transform-center-x="1.6526588"
         inkscape:transform-center-y="0.10071027"
         sodipodi:nodetypes="cccc" />
      <path
         class="cls-2"
         d="m 163.1711,126.34044 c -4.0595,4.3892 -12.9762,9.47554 -17.3536,7.28437 1.5343,-6.04837 11.7209,-10.32518 17.3536,-7.28437 z"
         id="path312"
         style="fill:#5ebf17;fill-opacity:1;stroke-width:0.300976" />
    </g>
    <g
       id="g3">
      <path
         id="path313"
         style="fill:#ffce1b;fill-opacity:1"
         d="m 82.823,95.59024 c -0.2091,0.005 -0.4199,0.0204 -0.6315,0.047 -3.3855,0.42545 -5.8288,3.57063 -5.4033,6.95616 0.4254,3.38553 3.5707,5.82874 6.9562,5.40329 3.3856,-0.42546 5.8286,-3.57063 5.4032,-6.95617 -0.3989,-3.17393 -3.1879,-5.52005 -6.3246,-5.45031 z" />
      <path
         id="path314"
         style="fill:#ffce1b;fill-opacity:1"
         d="m 124.8545,102.88334 c -0.1993,0.004 -0.3998,0.0191 -0.6015,0.0444 -3.2267,0.4055 -5.5582,3.40487 -5.1527,6.63163 0.4055,3.22677 3.407,5.55816 6.6337,5.15266 3.2268,-0.4055 5.5561,-3.40642 5.1506,-6.63319 -0.3801,-3.02508 -3.0403,-5.26192 -6.0301,-5.19554 z" />
      <path
         id="path315"
         style="fill:#ffce1b;fill-opacity:1"
         d="m 154.7871,139.14211 c -0.2039,0.005 -0.4093,0.0196 -0.6155,0.0455 -3.2998,0.41467 -5.6825,3.48018 -5.2679,6.77995 0.4147,3.29975 3.4822,5.68256 6.782,5.26789 3.2997,-0.41467 5.6805,-3.48225 5.2658,-6.78201 -0.3887,-3.09354 -3.1073,-5.37932 -6.1644,-5.31131 z" />
      <path
         id="path316"
         style="fill:#ffce1b;fill-opacity:1"
         d="m 157.3538,108.25923 c -0.1326,0.003 -0.2659,0.0126 -0.4,0.0295 -2.1443,0.26947 -3.707,2.28176 -3.4375,4.42609 0.2694,2.14434 2.2818,3.70957 4.4261,3.4401 2.1443,-0.26947 3.707,-2.28383 3.4375,-4.42816 -0.2526,-2.01032 -2.0372,-3.50996 -4.0261,-3.46749 z" />
    </g>
  </g>
</svg>
