<?xml version="1.0" encoding="UTF-8" standalone="no"?>
<!-- Created with Inkscape (http://www.inkscape.org/) -->

<svg
   width="230.10173mm"
   height="209.50482mm"
   viewBox="0 0 230.10173 209.50482"
   version="1.1"
   id="svg1"
   inkscape:version="1.4 (e7c3feb1, 2024-10-09)"
   sodipodi:docname="tmt-logo-color-text-vertf.svg"
   inkscape:export-filename="tmt-logo-color-text-vertf.png"
   inkscape:export-xdpi="96"
   inkscape:export-ydpi="96"
   xmlns:inkscape="http://www.inkscape.org/namespaces/inkscape"
   xmlns:sodipodi="http://sodipodi.sourceforge.net/DTD/sodipodi-0.dtd"
   xmlns="http://www.w3.org/2000/svg"
   xmlns:svg="http://www.w3.org/2000/svg">
  <sodipodi:namedview
     id="namedview1"
     pagecolor="#ffffff"
     bordercolor="#000000"
     borderopacity="0.25"
     inkscape:showpageshadow="false"
     inkscape:pageopacity="0.0"
     inkscape:pagecheckerboard="0"
     inkscape:deskcolor="#d1d1d1"
     inkscape:document-units="mm"
     inkscape:zoom="0.30089999"
     inkscape:cx="1696.577"
     inkscape:cy="624.79231"
     inkscape:window-width="3440"
     inkscape:window-height="1387"
     inkscape:window-x="0"
     inkscape:window-y="25"
     inkscape:window-maximized="1"
     inkscape:current-layer="layer1"
     showguides="true">
    <inkscape:page
       x="0"
       y="0"
       width="230.10173"
       height="209.50482"
       id="page1"
       margin="0"
       bleed="0" />
  </sodipodi:namedview>
  <defs
     id="defs1" />
  <g
     inkscape:label="Layer 1"
     inkscape:groupmode="layer"
     id="layer1"
     transform="translate(4.4985495,-55.826958)">
    <rect
       style="fill:#ffffff;stroke-width:0.529167;stroke-linecap:round;stroke-linejoin:round;stroke-dasharray:0.529167, 0.529167, 0.529167"
       id="rect1"
       width="230.71666"
       height="207.96249"
       x="-5.0277162"
       y="56.356125"
       inkscape:export-filename="tmt-logo-color-text-vert.png"
       inkscape:export-xdpi="96"
       inkscape:export-ydpi="96" />
    <g
       id="g4"
       transform="matrix(0.79697168,0,0,0.79697168,20.547463,39.334987)">
      <g
         id="g1">
        <path
           class="cls-2"
           d="m 100.4828,78.61332 c -7.7479,13.51587 -3.3552,26.12199 9.6959,38.30777 5.3015,-7.24291 8.8633,-14.54979 6.3089,-23.07113 -2.31,-7.70975 -8.36,-12.08611 -15.9997,-15.23279 z"
           id="path301"
           style="fill:#3f7f0f;fill-opacity:0.866667;stroke-width:0.65104"
           inkscape:transform-center-y="-1.2603608"
           inkscape:transform-center-x="-0.28687397" />
        <path
           class="cls-2"
           d="m 112.8796,166.84064 c 9.3944,10.85652 23.5223,12.3471 33.6709,-1.256 -1.9833,-0.0643 -5.0151,-0.29572 -7.1436,-1.87455 -9.6128,-7.1305 -17.3725,-8.99667 -26.5273,3.13055 z"
           id="path302"
           style="fill:#3f7f0f;fill-opacity:0.866667;stroke-width:0.561462"
           sodipodi:nodetypes="ccsc" />
        <path
           class="cls-2"
           d="m 85.6465,146.87482 c -13.7268,-3.7162 -21.536,-18.28011 -19.7959,-31.25485 0.3425,-2.55697 1.8778,-1.86517 3.4634,-1.36587 10.8419,3.40123 16.3684,10.53929 16.761,22.06494 0.1171,3.38939 -0.2646,6.80472 -0.4286,10.5558 z"
           id="path303"
           style="fill:#3f7f0f;fill-opacity:0.866667;stroke-width:0.788346" />
        <path
           class="cls-1"
           d="m 144.204,100.90403 c -14.8254,10.06421 -19.4437,19.35946 -15.5414,40.00084 11.5886,-2.17805 26.0169,-25.30481 15.5414,-40.00084 z"
           id="path304"
           style="fill:#3f7f0f;fill-opacity:0.866667;stroke-width:0.597226" />
      </g>
      <path
         id="path308"
         style="fill:#6e462b;fill-opacity:1;stroke-width:0.4806"
         d="m 111.57809,70.131124 c -2.01682,0.04764 -4.04992,0.197852 -6.0942,0.454753 -32.708558,4.110415 -55.942394,34.023283 -51.831979,66.731843 4.110414,32.70856 34.02277,55.94188 66.731329,51.83146 32.70855,-4.1104 55.94239,-34.02277 51.83198,-66.73132 C 168.3617,91.753582 141.83046,69.416573 111.57809,70.131124 Z m 0.13229,5.395537 c 27.56139,-0.661851 51.63612,19.614131 55.14857,47.564539 3.74665,29.81376 -17.33478,56.95509 -47.14854,60.70172 -8.3533,1.04974 -16.49626,0.14827 -23.974246,-2.34611 1.789431,-3.32751 4.591566,-7.39254 8.752956,-10.45673 2.2197,-1.63458 6.51357,-3.12804 8.86767,-3.5729 5.2274,-0.98766 10.20197,-0.524 10.20197,-0.524 0,0 -4.90011,-1.62433 -12.17601,-0.65578 -2.4253,0.32301 -5.11552,0.93353 -7.97522,1.98903 -4.850099,1.79013 -8.863803,5.62644 -11.220503,8.29045 -0.044,-0.59021 -0.09312,-1.18169 -0.111621,-1.76734 -0.068,-2.16064 0.425942,-4.66074 1.283642,-7.38301 0.6856,-1.88039 2.016128,-4.71226 4.470529,-7.2688 2.286203,-2.38151 4.159153,-4.00806 6.394953,-5.5392 9.6362,-6.59926 10.40269,-4.5883 19.33939,-9.01702 5.7869,-2.86785 7.61839,-5.91191 8.59999,-8.8744 0.8356,-2.52206 0.62477,-5.07359 0.62477,-5.07359 0,0 -1.12451,5.90451 -5.29011,9.00772 -3.1265,2.3291 -6.96134,3.56444 -17.21394,5.40174 -3.4971,0.62669 -6.34189,1.72278 -8.56899,2.87062 3.4966,-6.81966 7.06143,-13.71142 9.03563,-19.70008 4.79191,-14.53632 -5.45365,-35.183626 -5.46944,-35.215426 0.005,0.01647 3.99522,12.399506 2.76004,24.748356 -1.0829,10.82485 -11.724418,24.55231 -18.280018,37.34036 -0.7288,-2.29026 -1.65849,-4.91352 -2.77089,-7.42849 -2.9219,-6.60526 -6.738607,-12.47469 -6.738607,-12.47469 0,0 4.710026,11.36408 5.873026,18.84795 0.4429,2.85027 0.680704,5.38219 0.810804,7.26984 -1.813514,4.63129 -2.83988,9.16186 -3.365686,13.35422 C 70.493879,167.21614 61.1006,153.29483 59.008174,136.64438 55.26154,106.83061 76.342952,79.688771 106.15672,75.942139 c 1.86336,-0.234164 3.71624,-0.371355 5.55366,-0.415478 z m -6.42855,18.431433 -0.002,-0.0057 h -0.001 z" />
      <g
         id="g2">
        <path
           class="cls-2"
           d="m 97.5855,167.10907 c 4.3137,-7.99603 11.1231,-12.33533 19.4899,-14.64749 -4.4173,3.33884 -7.2033,8.19627 -11.2432,11.86667 -2.744,2.49233 -5.1885,3.28332 -8.2502,2.78193 z"
           id="path300"
           style="display:inline;fill:#5ebf17;fill-opacity:1;stroke-width:0.371772" />
        <path
           class="cls-2"
           d="m 90.8993,122.36397 c 4.1224,8.06838 3.8299,16.11544 0.9914,24.29352 -0.2404,-5.51682 -2.6509,-10.55414 -3.3772,-15.94874 -0.4927,-3.66386 0.2418,-6.11859 2.3869,-8.34834 z"
           id="path305"
           style="fill:#5ebf17;fill-opacity:1;stroke-width:0.370755" />
        <path
           class="cls-2"
           d="m 104.3315,123.48414 c -0.7599,0.16191 -1.3952,0.0761 -1.653,-0.47511 -1.356,-2.88156 -4.153,-4.21379 -6.4223,-6.10358 -2.9813,-2.48665 -4.8135,-5.42849 -3.9805,-9.51446 0.2649,-1.28987 0.9595,-2.15021 2.1322,-1.19696 3.81,3.09921 8.1389,5.79367 9.8523,10.78686 0.7346,2.14499 1.1117,4.37082 0.066,6.50214 z"
           id="path306"
           style="fill:#5ebf17;fill-opacity:1;stroke-width:0.487654" />
        <path
           class="cls-2"
           d="m 111.5998,141.36138 c -1.9496,-8.29647 3.4319,-16.49183 10.6889,-19.19369 1.4301,-0.53273 1.5042,0.47245 1.6928,1.45024 1.2969,6.68296 -0.8595,11.59808 -6.7572,15.02327 -1.7339,1.00808 -3.6225,1.7597 -5.6245,2.7201 z"
           id="path307"
           style="fill:#5ebf17;fill-opacity:1;stroke-width:0.469545"
           inkscape:transform-center-x="6.8657635"
           inkscape:transform-center-y="-1.9275926" />
        <path
           class="cls-1"
           d="m 131.4802,85.55682 c 0.093,6.5757 -2.3267,11.38716 -8.0097,14.35536 -1.9387,1.01315 -2.4653,0.82202 -3.0534,-1.26507 -0.6529,-2.32113 -0.2889,-4.59228 0.8925,-6.65359 2.1916,-3.81642 5.7466,-5.56427 10.1706,-6.4367 z"
           id="path309"
           style="fill:#5ebf17;fill-opacity:1;stroke-width:0.346269" />
        <path
           class="cls-1"
           d="m 125.6391,147.75238 c 5.0835,5.13789 10.7194,6.94679 17.4238,4.7777 2.2877,-0.73963 2.5434,-1.29958 1.3601,-3.36832 -1.3169,-2.29964 -3.3778,-3.76361 -5.9038,-4.42515 -4.6801,-1.22147 -8.7887,0.21944 -12.8801,3.01577 z"
           id="path310"
           style="fill:#5ebf17;fill-opacity:1;stroke-width:0.380571" />
        <path
           class="cls-2"
           d="m 67.4095,144.48904 c 9.3548,3.82429 14.34,10.15887 16.8994,18.05091 -3.8527,-4.0905 -7.376,-2.23804 -11.628,-5.95675 -3.0138,-1.97793 -5.1495,-8.63708 -5.2714,-12.09416 z"
           id="path311"
           style="fill:#5ebf17;fill-opacity:1;stroke-width:0.394314"
           inkscape:transform-center-x="1.6526588"
           inkscape:transform-center-y="0.10071027"
           sodipodi:nodetypes="cccc" />
        <path
           class="cls-2"
           d="m 163.1711,126.34044 c -4.0595,4.3892 -12.9762,9.47554 -17.3536,7.28437 1.5343,-6.04837 11.7209,-10.32518 17.3536,-7.28437 z"
           id="path312"
           style="fill:#5ebf17;fill-opacity:1;stroke-width:0.300976" />
      </g>
      <g
         id="g3">
        <path
           id="path313"
           style="fill:#ffce1b;fill-opacity:1"
           d="m 82.823,95.59024 c -0.2091,0.005 -0.4199,0.0204 -0.6315,0.047 -3.3855,0.42545 -5.8288,3.57063 -5.4033,6.95616 0.4254,3.38553 3.5707,5.82874 6.9562,5.40329 3.3856,-0.42546 5.8286,-3.57063 5.4032,-6.95617 -0.3989,-3.17393 -3.1879,-5.52005 -6.3246,-5.45031 z" />
        <path
           id="path314"
           style="fill:#ffce1b;fill-opacity:1"
           d="m 124.8545,102.88334 c -0.1993,0.004 -0.3998,0.0191 -0.6015,0.0444 -3.2267,0.4055 -5.5582,3.40487 -5.1527,6.63163 0.4055,3.22677 3.407,5.55816 6.6337,5.15266 3.2268,-0.4055 5.5561,-3.40642 5.1506,-6.63319 -0.3801,-3.02508 -3.0403,-5.26192 -6.0301,-5.19554 z" />
        <path
           id="path315"
           style="fill:#ffce1b;fill-opacity:1"
           d="m 154.7871,139.14211 c -0.2039,0.005 -0.4093,0.0196 -0.6155,0.0455 -3.2998,0.41467 -5.6825,3.48018 -5.2679,6.77995 0.4147,3.29975 3.4822,5.68256 6.782,5.26789 3.2997,-0.41467 5.6805,-3.48225 5.2658,-6.78201 -0.3887,-3.09354 -3.1073,-5.37932 -6.1644,-5.31131 z" />
        <path
           id="path316"
           style="fill:#ffce1b;fill-opacity:1"
           d="m 157.3538,108.25923 c -0.1326,0.003 -0.2659,0.0126 -0.4,0.0295 -2.1443,0.26947 -3.707,2.28176 -3.4375,4.42609 0.2694,2.14434 2.2818,3.70957 4.4261,3.4401 2.1443,-0.26947 3.707,-2.28383 3.4375,-4.42816 -0.2526,-2.01032 -2.0372,-3.50996 -4.0261,-3.46749 z" />
      </g>
    </g>
    <text
       xml:space="preserve"
       style="font-weight:bold;font-size:48.3513px;font-family:montserrat;-inkscape-font-specification:'montserrat Bold';text-align:center;word-spacing:-0.126922px;writing-mode:lr-tb;direction:ltr;text-anchor:middle;fill:#6e462b;fill-opacity:1;stroke:none;stroke-width:3.62635;stroke-linecap:round;stroke-linejoin:round;stroke-dasharray:3.62635, 3.62635, 3.62635;stroke-opacity:1"
       x="110.79406"
       y="230.96057"
       id="text333"><tspan
         sodipodi:role="line"
         id="tspan333"
         style="font-style:normal;font-variant:normal;font-weight:500;font-stretch:normal;font-family:montserrat;-inkscape-font-specification:'montserrat Medium';fill:#6e462b;fill-opacity:1;stroke:none;stroke-width:3.62635"
         x="110.79406"
         y="230.96057">tmt</tspan></text>
  </g>
</svg>
