<?xml version="1.0" encoding="UTF-8"?>
<svg id="Layer_1" xmlns="http://www.w3.org/2000/svg" viewBox="0 0 700 700">
  <defs>
    <style>
      .cls-1 {
        fill: #c9c9c9;
      }

      .cls-2 {
        fill: #bdbdbd;
      }

      .cls-3 {
        fill: #5d5d5d;
      }

      .cls-4 {
        fill: #6f6f6f;
      }

      .cls-5 {
        fill: #c3c3c3;
      }

      .cls-6 {
        fill: #b4b4b4;
      }

      .cls-7 {
        fill: #454545;
      }

      .cls-8 {
        fill: #f6f6f6;
      }

      .cls-9 {
        fill: #fefefe;
      }

      .cls-10 {
        fill: #eee;
      }

      .cls-11 {
        fill: #545454;
      }

      .cls-12 {
        fill: #c5c5c5;
      }

      .cls-13 {
        fill: #434343;
      }

      .cls-14 {
        fill: #414141;
      }

      .cls-15 {
        fill: #cbcbcb;
      }

      .cls-16 {
        fill: #b9b9b9;
      }

      .cls-17 {
        fill: #e2e2e2;
      }

      .cls-18 {
        fill: #dedede;
      }

      .cls-19 {
        fill: #bcbcbc;
      }

      .cls-20 {
        fill: #dfdfdf;
      }

      .cls-21 {
        fill: #e0e0e0;
      }

      .cls-22 {
        fill: #6c6c6c;
      }

      .cls-23 {
        fill: #d5d5d5;
      }

      .cls-24 {
        fill: #ddd;
      }

      .cls-25 {
        fill: #363636;
      }

      .cls-26 {
        fill: #b5b5b5;
      }

      .cls-27 {
        fill: #cdcdcd;
      }

      .cls-28 {
        fill: #656565;
      }

      .cls-29 {
        fill: #707070;
      }

      .cls-30 {
        fill: #bababa;
      }

      .cls-31 {
        fill: #afafaf;
      }

      .cls-32 {
        fill: #ababab;
      }

      .cls-33 {
        fill: #cecece;
      }

      .cls-34 {
        fill: #555;
      }

      .cls-35 {
        fill: #424242;
      }

      .cls-36 {
        fill: #494949;
      }

      .cls-37 {
        fill: #c7c7c7;
      }

      .cls-38 {
        fill: #eaeaea;
      }

      .cls-39 {
        fill: #b8b8b8;
      }

      .cls-40 {
        fill: #565656;
      }

      .cls-41 {
        fill: #b3b3b3;
      }

      .cls-42 {
        fill: #464646;
      }

      .cls-43 {
        fill: #e7e7e7;
      }

      .cls-44 {
        fill: #959595;
      }

      .cls-45 {
        fill: #404040;
      }

      .cls-46 {
        fill: #727272;
      }

      .cls-47 {
        fill: #e4e4e4;
      }

      .cls-48 {
        fill: #dcdcdc;
      }

      .cls-49 {
        fill: #353535;
      }

      .cls-50 {
        fill: #c8c8c8;
      }

      .cls-51 {
        fill: #ededed;
      }

      .cls-52 {
        fill: #585858;
      }

      .cls-53 {
        fill: #595959;
      }

      .cls-54 {
        fill: #5a5a5a;
      }

      .cls-55 {
        fill: #d1d1d1;
      }

      .cls-56 {
        fill: #f4f4f4;
      }

      .cls-57 {
        fill: #b0b0b0;
      }

      .cls-58 {
        fill: #d6d6d6;
      }

      .cls-59 {
        fill: #6d6d6d;
      }

      .cls-60 {
        fill: #6e6e6e;
      }

      .cls-61 {
        fill: #e6e6e6;
      }

      .cls-62 {
        fill: #b2b2b2;
      }

      .cls-63 {
        fill: #cacaca;
      }

      .cls-64 {
        fill: #acacac;
      }

      .cls-65 {
        fill: #bbb;
      }

      .cls-66 {
        fill: #c1c1c1;
      }

      .cls-67 {
        fill: #cfcfcf;
      }

      .cls-68 {
        fill: #616161;
      }

      .cls-69 {
        fill: #f1f1f1;
      }

      .cls-70 {
        fill: #b7b7b7;
      }

      .cls-71 {
        fill: #6a6a6a;
      }

      .cls-72 {
        fill: #d4d4d4;
      }

      .cls-73 {
        fill: #e1e1e1;
      }
    </style>
  </defs>
  <path class="cls-9" d="M699.9,350c0,115.3-.02,230.6.1,345.91,0,3.42-.67,4.09-4.09,4.09-230.6-.1-461.21-.1-691.81,0-3.42,0-4.09-.67-4.09-4.09C.1,465.3.1,234.7,0,4.09,0,.67.67,0,4.09,0,234.7.1,465.3.1,695.91,0c3.42,0,4.1.67,4.09,4.09-.11,115.3-.1,230.6-.1,345.91Z"/>
  <path class="cls-25" d="M346.77,663.36c-69.08-1.14-131.96-20.88-187.52-62.64-17.06-12.82-32.89-27-46.89-43.07-36.1-41.45-60.42-88.76-71.46-142.88-5.35-26.24-7.27-52.69-5.59-79.18,3.97-62.74,24.65-119.56,63.26-169.54,45.53-58.96,104.56-97.16,176.9-114.67,16.53-4,33.38-6.25,50.42-7.5,16.35-1.2,32.62-1.15,48.84.35,42.23,3.89,82.26,15.38,119.79,35.5,32.02,17.17,60.58,38.83,84.98,65.61,30.22,33.16,52.51,71.19,66.36,113.99,6.67,20.61,11.01,41.67,13.2,63.26,1.38,13.59,2.36,27.17,1.79,40.79-2.11,50.32-14.18,97.9-39.32,141.91-15.43,27.01-34.4,51.24-57.02,72.44-40,37.51-86.71,63.01-140.03,76.2-25.5,6.31-51.4,9.4-77.7,9.44Z"/>
  <path class="cls-32" d="M83.23,223.11c10.97-22.81,25.13-43.53,41.86-62.43,37.29-42.12,82.6-72.06,136.73-87.98,32.48-9.55,65.68-13.48,99.63-11.84,63.04,3.05,119.35,24.11,168.87,62.92,59.81,46.88,96.36,108.07,109.24,182.96,7.68,44.65,4.53,88.86-8.53,132.3-.52,1.74-1.29,3.4-1.94,5.1-2.31,2.05-3.34,4.84-4.22,7.64-.55,1.76-1,3.49-3.16,3.57-2.1.08-2.44-1.73-3.21-3.24-5.18-10.27-6.18-21.3-6-32.52.1-5.89-.34-11.59-2.78-17.09-2.15-4.85-1.23-9.29,3.32-12.3,5.66-3.74,9.26-8.59,11.31-15.17,1.11-3.57,1.33-6.2-.81-9.22-3.06-4.32-5.66-8.89-9.77-12.5-6.79-5.98-6.68-7.08-1.15-14.28.24-1.59-1.08-2.66-1.37-4.08-1.13-4.54.86-9.24-.77-13.75-.39-2.4,1.31-3.54,2.85-4.83,3.61-3.04,5.53-6.98,5.85-11.65.11-1.64.04-3.55-1.89-4.18-1.72-.57-2.74.9-3.62,2.06-3.21,4.26-6.19,8.63-6.43,14.26-.07,1.66-.34,3.33-1.98,4.33-4.26.87-10.28-3.21-12.47-8.74-.9-2.29-2-4.49-2.9-6.77-.31-3.17,2.12-3.85,4.33-4.54,5.5-1.72,9.6-5.25,12.86-9.82,1.14-1.6,2.38-3.56,1.27-5.54-1.13-2.03-3.24-1.03-5-.84-1.49.16-3,.41-4.29-.7-3.55-1.8-5.96-4.51-6.79-8.49-.61-1.05-.43-2.14-.24-3.27q.81-4.8-3.91-3.36c-1.48.36-2.95.03-4.43.03-7.49.03-7.65.09-8.51-7.03-.44-3.68-3.91-3.6-5.75-5.51-1.48-2.74.54-4.35,2.05-6.06,3.97-4.48,6.49-9.66,7.63-15.5.41-2.1.9-4.52-1.01-6.1-2.08-1.72-4.05.02-6.01.81-2.84,1.14-4.93,4.21-8.56,3.32-2.3-1.86-3.97-4.3-5.94-6.46-.54-.9-.39-1.86-.34-2.85.07-1.36.92-3.29-1.07-3.73-1.59-.35-2.42,1.37-3.33,2.52-2.12,2.7-.78,6.54-3.04,9.19-3.14,1.93-6.27,3.41-9.28-.21-1.46-3.58,1.07-6.62,1.38-9.96.16-1.67,1.73-3.38-.23-4.95-2.88-.7-5.73-1.42-6.81-4.69-1.52-1.89-.57-3.68.12-5.58,1.55-4.29.55-5.55-3.97-4.64-8.09,1.63-14.85,5.32-19.18,12.76-1.16,1.99-2,4.81-5.32,4.37-4.18-2.65-4.39-6.71-3.57-10.91.91-4.69,1.99-9.35,2.89-14.04,1.36-7.09,1.23-7.33-5.34-9.73-2.38-1.73-1.62-4.03-1.17-6.31,1.3-6.56,4.31-12.42,7.37-18.17-4.53,2.46-8.98,5.08-14.13,1.71-2.11-2.09-1.06-4.16-.05-6.34,2.12-4.53,2.62-9.21.76-13.97-.68-1.73-1.53-3.45-3.63-3.68-2.12-.24-3.3,1.28-4.31,2.84-1.65,2.54-2.54,5.37-2.97,8.36-.23,1.61-.14,3.36-1.62,4.53-5.85,4.54-9.69,2.27-12.01-8.74.08.66.04-.21.07-.08.5,2.1.98,4.07-2.32,3.9-2.06-3.27-.7-6.9-1.06-10.35-.2-1.9.54-4.19-2.29-4.75-2.7,1.28-2.2,4.09-2.94,6.24-2.12,6.15-4.72,7.33-10.5,4.53-1.61-2.62-1.78-5.64-2.26-8.56-1.36-8.16-4.21-15.69-9.51-22.12-1.42-1.72-2.91-4.35-5.48-3.64-2.99.82-2.51,4.15-2.58,6.4-.18,6.25,1.85,11.98,4.85,17.49,1.55,2.84,4.97,5.34,2.97,9.39-2.33,2.47-5.4,3.7-8.35,5.18-1.77.89-3.33.46-5.02-.05-6.31-1.9-12.65-3.53-19.33-2.2-2.42.27-4.63,2.1-7.23.94-1.27-.99-2.39-2.28-4.28-2.04-3.33.43-4.91-1.72-5.59-4.38-1.55-6.04-3.57-11.89-6.26-17.5-2.4-13.52-10.68-22.45-22.38-28.75-4.9-2.64-5.99-2.21-7.02,3.05-2.19,11.21,1.16,21.34,6.22,31.07,1.76,3.38,3.92,6.55,5.97,9.77,1.03,1.63,2.42,3.29,1.46,5.51-2.34,3.27-4.98,2.56-7.66.51-1.31-1.01-2.55-2.15-3.36-3.61-4.84-8.68-12.86-13.97-20.66-19.52-2.15-1.53-5.33-2.56-4.48-6.31.61-.98,1.31-1.91.73-3.19-3.64-8.14-7.96-15.65-16.86-19.18-1.69-.67-3.15-1.84-4.78-2.64-1.06-.52-2.24-.97-3.16.17-.71.87-.4,1.93.03,2.83,2.12,4.38,5.71,7.22,10,9.27,4.18,2,8.52,3.77,12.14,6.73,1.55,1.26,3.86,2.48,2.28,5.24-1.47,4.32-5.71,2.45-8.49,3.81-1.04.75-2.22.73-3.32.32-7.4-2.78-14.87-5.43-20.94-10.78,1.25,1.04,2.36,2.23,3.83,3.07,1.69.96,3.43,1.8,5.13,2.73,4.79,2.61,9.49,5.38,13.94,8.55,2.07,1.47,3.9,3.05,4.19,5.79-1.44,4.93-2.83,5.62-7.25,3.15-3.03-1.69-5.9-3.58-9.6-2.29-4.27-1.26-8.31-3.24-12.89-3.52-7.88-.49-14.5,2.78-20.96,6.66-3.53,2.31-6.03,5.36-7.6,9.35-1.96,5-4.22,6.18-9.92,5.95-1.55-.1-2.94-1.28-4.59-.63-2.55-.34-3.29,3.56-6.08,2.64-2.11-1.07-1.72-3.37-2.49-5.09-.64-1.44-1.22-3.89-3.02-3.11-2.06.89-.4,2.82.37,4.12.99,1.67,2.53,3.12,1.5,5.34-.72,1.4-1.93,2.23-3.23,3.02-5.07,3.07-10.65,5.19-15.01,9.58-3.74,3.77-8.88,2.11-13.26,1.11-3.38-.77-3.84-4.46-3.77-7.44.17-7.05-3.27-12.31-7.76-17.17-1.1-1.66-1.44-3.61-2-5.48.97,3.45,2.17,6.85,2.65,10.41.28,2.07.43,4.28-2.25,5.16-3.41.28-3.86,3.22-4.85,5.55-1.76,4.15-1.82,8.73-3.04,13.02-.82,2.89-1.68,5.8-5.19,6.62-3-.02-3.55-2.54-4.62-4.54-4.51-8.42-11.25-13.79-20.85-15.27-1.76-.27-3.78-1.16-4.98.85-1.07,1.79.01,3.55.89,5.14,3.65,6.68,9.19,11.22,16.15,14.15,2.23.94,4.95,1.4,5.28,4.59-2.04,4.15-4.99,7.53-8.75,10.21-3.03,1.09-4.96-1.3-7.29-2.37-4.55-2.08-5.91-1.46-6.81,3.41-1.29,7,.49,13.52,3.11,19.92.86,2.11,2.43,4.15.72,6.55-2.76,2.78-4.49,6.06-5.28,9.94-.53,2.58-1.55,5.06-2.68,7.47-1.57,3.34-3.56,5.64-7.71,3.96-.97-.39-1.94.19-2.9.41-2.92-.02-5.24-1.74-7.74-2.91-2.54-1.2-5.13-2.2-7.88-2.74-1.59-.31-3.41-.95-4.65.48-1.34,1.54-.14,3.12.66,4.51.94,1.64,1.62,3.23.78,5.12-.54,1.25-.69,2.39-.32,3.83,2.28,8.83-2.71,14.67-11.74,13.97-6.58-4.72-9.08-4.52-15.7,1.17-1.47,1.26-2.7,2.97-4.97,2.88-.67,0-1.68-.25-1.93.15-3.45,5.51-10.86,6.74-13.75,12.86-.96,2.03-2.5,3.86-5.08,2.7-2.71-1.21-1.82-3.44-1.24-5.67,3.25-12.52,6.91-24.89,12.13-36.76,2.18-4.96,5.07-9.64,6.11-15.06Z"/>
  <path class="cls-16" d="M616.66,337.89c1.44,2.01.16,2.86-1.44,3.84-5.4,3.32-5.75,6.07-.67,10.23,4.7,3.85,8.77,8.06,11.61,13.46,1.84,3.49,1.39,6.69.52,10.49-1.7,7.36-5.83,12.28-12.02,16.1-3.61,2.23-4.57,5.7-2.65,9.54,2.87,5.73,3.24,11.79,2.91,17.99-.41,7.54,1.04,14.89,2.1,22.29.6,4.19,4.74,6.97,3.71,12.66,4.06-3.59,2.94-9.67,8.36-10.32-5.75,19.96-14.78,38.47-25.2,56.31-12.13,20.77-26.44,39.91-43.83,56.64-2.72.81-5.58,3.52-8.22.49-2.75-3.17-2.5-6.97-1.08-10.83,7.04-19.11,12.6-38.65,14.97-58.89,1.74-14.89,1.01-29.92.23-44.88-.15-2.99-.43-5.96-.4-8.96.03-3.4.87-6.11,4.48-7.53,3.52-1.38,3.11-4.33,2.06-7.18-1.78-4.84-3.55-9.68-4.82-14.7-1.08-4.28-.13-7.4,3.9-9.65,2.11-1.17,4.48-2.34,5.36-4.96,1.52-3.14,4.53-2.46,7.03-2.4,6.58.14,12.95-.62,19.09-3.07,1.71-.68,3.41-1.37,4.91-2.43,3.61-2.55,3.53-4.39-.31-6.62-1.73-1-3.61-1.7-5.45-2.48-1.84-.78-3.79-1.56-3.71-4.12,1.32-4.58,6.31-3.81,9.1-6.24,3.99-.65,6.3,2.8,9.56,3.96.62.22-.18,0,.46.16.12.03-.3-.49-.29-.84-1.56-6.14-5.59-10.29-10.77-13.43-2.54-1.54-5.17-2.91-7.42-4.9-3.62-3.2-4.9-7.06-3.52-11.36.43-1.34,1.29-2.59,2.7-2.58,2.75.01,5.45-1.35,8.21-.28,3.45,1.66,6.9,3.31,10.56,4.49Z"/>
  <path class="cls-12" d="M577.92,390.1c.36,3.97-2.56,5.56-5.37,6.99-3.1,1.58-3.75,3.74-2.88,6.97,1.65,6.12,3.96,12,6.22,17.9,1.92,5.01,1.31,6.27-3.82,7-3.97.57-4.4,3.2-4.08,6.14,1.21,11.27.73,22.58.98,33.87.53,23.64-4.67,46.18-12.56,68.24-1.45,4.06-2.42,8.26-3.89,12.33-1.78,4.93.44,6.89,7.53,7.55-10.5,10.22-20.81,20.68-33.08,28.87-6.41.91-7.12.05-6.18-7.37.95-1.98,2.69-3.35,4.44-4.39,3.95-2.36,5.65-5.1,2.78-9.36-1.5-3.91-5.52-4.49-8.54-6.29-5.94-3.54-7.04-6.07-4.58-12.65,1.4-3.75,3.6-7.14,5.05-10.86,9.44-24.13,14.57-49.1,13.39-75.07-.55-12.13-3.17-24.05-5.75-35.92-.64-2.95-1.98-6.23.94-8.29,2.79-1.96,6.2-1.91,9.43-.1,4.48,2.5,9.62,2.08,14.48,2.86,2.44.39,4.01-1.25,4.98-3.38,1.51-2.16-.55-3.65-1.04-5.43-.73-2.66-3.17-4.71-2.84-7.77,2.99-3.9,2.36-7.57-.7-11.09-1.3-1.49-2.39-3.13-3.43-4.79-1.2-1.92-1.28-3.69.89-5.06,2.26-.42,4.23.62,6.21,1.37,5.12,1.95,10.3,3.6,15.74,4.49,2.13.35,4.8.38,5.67,3.22Z"/>
  <path class="cls-66" d="M171.8,588.23c-21.21-15.51-40.12-33.41-56.22-54.22.81-1.4,2.21-1.78,3.43-1.11,4.01,2.19,3.57-.6,3.6-3.01.09-8.52-1.37-16.93-2.55-25.28-2.5-17.74-3.22-35.36-.79-53.16,1.03-7.57.37-15.29.22-22.95-.09-4.42-3.38-6.61-6.49-8.89-5.75-4.2-5.82-4.53-2.62-10.92,1.6-3.2.98-4.66-2.62-5.1-3.16-.38-6.3-.68-9.14-2.21-4.16-2.23-5.15-5.86-2.91-10.43,1.14-.87,2.42-.85,3.76-.64,6.44.97,12.71-.83,19.08-1.14,1.53.48,2.63,1.67,3.05,3.02.82,2.62,2.39,4.21,4.96,4.98,2.57.77,3.38,2.9,3.95,5.21.3.81.5,1.78-.05,2.39-2.46,2.75-2.43,6-2.11,9.35-.49,3.7,1.56,5.73,4.77,6.55,6.39,1.63,12.54,3.97,18.85,5.81,5.97,1.74,7.32,3.16,5.88,9.28-3.55,15.08-3.56,30.37-3.32,45.69.33,20.98,3.8,41.39,11.53,60.95,2.81,7.11,6.3,13.95,10.08,20.61,3.05,5.37,6.41,10.59,2.01,16.89-.93,1.34.29,3.31-.64,4.85-1.31,2.12-3.14,3.39-5.69,3.49Z"/>
  <path class="cls-31" d="M83.23,223.11c1.36,4.72-1.77,8.31-3.47,12.06-5.17,11.43-9.16,23.2-11.55,35.48-.52,2.66-2.21,5.19-1.67,8.5,2.76-.98,3.03-3.42,4.17-5.07,3.49-5.09,10.14-6.27,13.72-11.26.59-.82,1.87-.18,2.71.45,1.85,2.45,4.54,2.21,7.15,2.18,1.61-.01,3.2-.81,4.85-.17,3.13,1.4,7.15,2.22,4.81,7.23-.17,3.33-2.89,4.62-5.19,6.06-3.26,2.04-6.5,4.08-9.32,6.69-1.59,1.48-3.06,3.1-1.79,5.54,3.08,3.15,2.48,8.13,5.65,11.24.32,3.25-1.86,5.6-3.13,8.23-4,8.35-6.58,17.03-7,26.3-.09,3.18-5.13,3.94-3.81,7.82-.03.17-.03.36-.13.48-4.58,5.84-4.5,6.62,1.41,11.59,2.83,2.38,6,4.16,9.46,5.47,1.81.69,3.94,1.16,4.37,3.6.65,2.1-.57,3.81-1.13,5.67-1.1,2.12-3.3,1.88-5.16,2.43-4.58,1.37-9.47,2.3-11.47,7.59-1.22,4.78,1.58,7.88,4.6,10.79,2.64,2.54,5.83,4.43,8.76,6.62,2.59,1.94,3.72,4.32,2.94,7.35-3.78,14.63-4.1,29.58-4.77,44.55-.24,5.39-1.86,10.76-1.93,16.29-.03,2.5-.68,5.13-3.49,6.09-3,1.02-4.04-1.7-5.54-3.36-.45-.5-.9-.94-1.43-1.32-9.01-19.24-14.68-39.52-18.73-60.29-5.22-26.77-6.44-53.76-3.86-80.92,5,.68,5.53-1.96,5.98-6.33.8-7.74,3.78-15.11,5.67-22.68.59-2.36,1.54-4.68.03-7.82-2.63,4.88-3.16,9.57-3.67,14.26-.16,1.47.08,3.14-1.21,4.18-1.49,1.19-3.24,2.57-4.05-.71,2.14-18.57,7.38-36.37,13.58-53.9,3.76-10.63,8.12-21.04,13.65-30.92Z"/>
  <path class="cls-70" d="M75.86,468.23c.63.03,1.34-.1,1.88.13,1.59.68,2.42,3.52,4.46,2.41,2.08-1.14,1.56-3.79,1.88-5.9,2.84-19.35,1.04-39.2,6.35-58.27.79-2.84-.08-4.69-2.39-6.41-3.85-2.88-8.16-5.22-11.26-9.04-2.83-3.49-4.37-7.13-1.33-11.31,1.85-1.02,3.15.09,4.46,1.14,3.8,3.02,7.87,5.51,12.51,7.08,1.86.63,3.89,1.38,3.65,4.03,1.88,7.11,3.6,8.5,11.05,8.87.66.03,1.34-.02,2,.05,2.61.27,5.86-.11,7.02,2.72,1.02,2.49-1.54,4.17-3.13,5.78-3.11,3.12-3.07,5.68,1.02,7.8,6.19,3.21,8.75,7.71,8.27,15.22-.72,11.27-.67,22.57-2.02,33.83-1.17,9.78-.02,19.63,1.12,29.37,1.39,11.88,3.37,23.7,3.68,35.69.06,2.23.84,4.21,1.76,6.19.47,1.01,1.28,2.27-.03,3.11-1.03.66-1.75-.53-2.56-1.04-2.91-1.85-4.97-5-8.66-5.66-14.32-16.79-25.59-35.54-35.18-55.33-1.65-3.41-3.81-6.63-4.55-10.45Z"/>
  <path class="cls-43" d="M291.88,640.01c-17.8-2.71-34.97-7.81-51.73-14.24-19.73-7.57-38.71-16.71-56.04-28.98-.23-2.69,1.8-2.9,3.59-3.03,1.7-.12,3.28-.39,4.71-1.31,2.16-1.26,3.8.14,5.51,1.11,10,5.64,19.89,11.51,30.57,15.85,4.61,1.87,5.77,1.62,6.52-3.2,2.3-14.73,11.99-23.24,24.28-29.66,13.86-7.24,28.24-13.49,41.15-22.53,26.23-18.35,42.11-42.91,46.35-74.92.66-4.99.57-9.9.9-14.84.14-2.12-.2-5.15,3.65-4.32.09.09.21.21.32.33.11.12.2.25.31.38.27-.61.1.34.31-.29.56-1.64-.46-4.65,2.31-4.44,2.59.2,2.69,3.22,2.76,5.21.21,5.84,2.28,11.44,2.04,17.31-.14,24.48-5.93,47.2-21.82,66.39-12.22,14.77-27.41,26.09-43.98,35.6-7.64,4.38-15.45,8.55-21.99,14.58-5.88,5.41-10.2,11.76-11.68,19.84-.76,4.13.45,6.75,4.54,8.08,1.97.64,4.41.77,5.11,3.41.3,2.29,2.06,2.99,3.93,3.42,4.53,1.03,8.98,2.33,13.4,3.74,1.9.61,3.85,1.28,5.22,2.73,1.08,1.13,2.93,2.75-.25,3.78Z"/>
  <path class="cls-17" d="M291.88,640.01c.19-2.6-2.14-2.68-3.61-3.33-5.12-2.26-10.36-4.24-15.86-5.4-2.48-.53-4.35-1.56-4.36-4.45,1.36-2.51,3.52-2,5.67-1.51,6.47,1.47,12.89,3.2,19.44,4.32,6.56,1.12,7.35.51,7.4-5.98.02-2.32-.06-4.65.12-6.97.14-1.84.28-3.69,2.21-4.71,2-.56,4.05-.51,5.53.98,2.04,2.06,4.35,2.78,7.15,3.54,4.01,1.1,5.53,5.09,5.82,9.24.6,6.57,2.65,8.81,7.8,8.66,3.14-.1,5.22-1.49,5.25-4.75.14-15.03,8.73-25.8,18.12-36.14,7.39-8.15,14.59-16.41,20.11-26.02,2.93-5.1,4.68-10.65,6.76-16.09.79-2.07,1.06-4.74,4.16-4.96,1.67.61,2.63,1.86,3.21,3.48-1.42,15.51-7.07,29.59-14.76,42.95-3.89,6.76-7.97,13.42-12.03,20.08-2.72,4.45-4.43,9.28-5.79,14.25-.68,2.48-.95,4.96,1.62,6.7,4.78,1.38,8.09,6.07,13.74,5.64,2.82-.22,5.74-.27,8.6.16,2.32.34,4.28,1.04,3.76,4.04-29.21,3.12-58.3,2.44-87.24-2.84-.96-.17-1.88-.58-2.81-.88Z"/>
  <path class="cls-58" d="M381.93,643.72c-3.01-3.05-6.93-1.61-10.41-1.93-6.76-.62-12.75-4.76-19.74-4.04.55-3.58,3.49-3.22,5.82-3.17,6.66.14,13.25-.46,19.86-1.14,7.05-.72,8.37-1.97,9.17-9.1.65-5.83,2.41-11.37,4.78-16.71,1.15-2.58,2.16-5.22,3.29-7.81,6.12-14.03,7.21-28.15,1.26-42.6-2.41-5.84-3.72-12.07-4.83-18.3-.38-2.12-.87-4.25-.1-6.39.64-.9,1.22-1.88,2.48-2.03,2.38.26,2.68,2.24,3.1,3.97,2.26,9.38,6.2,18.29,8.39,27.64,4.56,19.5,17.66,29.21,36.14,33.36,2.92.66,5.9.97,8.85,1.4,10.26,1.46,20.16,4.05,29.12,9.49,1.3,1.27,2.51,2.57,4.6,2.6,1.7.02,3.44.35,3.16,2.79-17.84,9.7-36.6,17.14-56.13,22.65-16,4.51-32.23,7.84-48.81,9.35Z"/>
  <path class="cls-47" d="M193.14,593.9c-2.4,2.87-6.2,1.36-9.03,2.89-4.39-2.43-8.49-5.29-12.31-8.55,1.09-1.42,2.17-2.85,3.26-4.27,4.32-8.7,12.02-13.46,20.35-17.47,2.23-1.07,4.36-2.32,6.57-3.45,10.49-2.08,20.99-4.13,31.28-7.07,6.99.61,12.79-3,18.95-5.34,1.81-.69,3.56-1.88,5.58-.6,1.82,1.85,1.02,3.51-.46,5.02-1.91,1.93-2.84,4.23-2.91,6.91-1.84,3.08-5.2,3.4-8.16,4.23-9.31,2.61-18.88,4.05-28.29,6.22-8.32,1.92-16.46,4.28-23.64,9.09-5.12,3.43-5.27,4.3-1.72,9.2.75,1.03,1.16,1.99.54,3.2Z"/>
  <path class="cls-33" d="M486.87,611.73c-2.8-1.12-7.76,1.92-7.99-4.15-.61-3.06,1.87-4.01,3.75-5.19,6.33-3.99,13.05-7.35,19.16-11.71,1.31-.93,3.48-1.59,3.18-3.46-.36-2.31-2.89-2.01-4.54-2.2-9.24-1.07-18.54-1.57-27.79-2.61-3.97-.45-7.91-1-11.79-2-2.03-.53-3.87-1.21-3.9-3.8.44-1.71,1.38-3.1,2.71-4.24,1.75-.82,3.56-.49,5.37-.3,13.98,1.45,28.05,1.85,42.01,3.47,5.66.66,11.46.79,16.83,3.1-3.09,4.19-.95,6.16,3.1,7.33-12.53,9.89-25.78,18.65-40.1,25.75Z"/>
  <path class="cls-32" d="M56.01,307.93c3.15.94,2.63-1.37,2.77-3.12.48-5.99,1.35-11.9,4.03-17.36.7-1.42,1.43-3.37,3.58-2.76,2.15.61,2.19,2.44,2.21,4.44.09,10.37-4.51,19.66-6.75,29.48-.68,2.97-.93,5.81-1.08,8.77-.1,1.97-.74,4.5-2.63,5.05-2.16.62-1.72-2.3-2.74-3.43-.65-.72-1.43-1.33-2.15-1.99-.11-1.46.04-2.89.72-4.22,1.66-3.78,2.43-7.66,1.27-11.74.25-1.04.51-2.09.76-3.13Z"/>
  <path class="cls-31" d="M55.25,311.07c3.43,3.72.11,8.57,2.07,12.58.28.56-.55,1.59-1.5,1.6-1.62.02-1.53-1.39-1.84-2.44-.23-3.99.7-7.85,1.26-11.74Z"/>
  <path class="cls-25" d="M193.14,593.9c-1.05-.79-2.07-1.65-3.17-2.36q-6.94-4.52-.29-9.84c9.56-7.6,21.02-10.34,32.61-12.83,10.36-2.23,20.97-3.5,30.78-7.89.77-2.97,3.33-4.1,5.71-5.13,16.97-7.31,29.74-19.33,39.1-35.04,6.38-10.71,9.68-22.51,11.68-34.77,7.28-44.54-18.77-86.73-55.08-105.83-11.64-6.13-24.34-8.84-37.42-9.65-2.81-.17-5.6-.78-8.44-.51-15.08,2.01-29.62,6.45-44.39,9.87-11.86,3.02-23.12,2.05-33.39-5.16-1.54-1.08-3.53-.95-5.08-1.97-7.19-7.25-14.29-14.57-17.1-24.85-1.38-3.02-1.93-6.22-1.74-9.5.14-2.31.88-4.25,3.85-3.81,2.49,1.76,4.03,4.35,5.52,6.87,4.98,8.39,11.52,15.29,19.46,20.91,5.34,4.96,12,4.08,18.25,3.54,8.36-.72,15.62-5.14,23.22-8.33,4.71-1.98,9.24-4.42,14.35-5.29,13.27-5.19,27.04-6.01,41.11-5.16,15.41.93,29.81,5,43.24,12.55,11.08,6.23,20.73,14.19,28.13,22.83-1.61-4.21-2.93-9.92-4.47-15.56-2.88-10.54-7.22-20.42-13.75-29.21-10.83-14.58-25.33-22.19-43.61-22.35-8.01.09-15.82-3.07-23.83-1.73-7.4,1.24-14.29-.68-21.22-2.49-8.37-2.18-15.58-6.59-21.99-12.33-10.36-10.58-21.38-20.01-36.93-21.95-3.15-.39-6.29-.05-9.41-.51-12.89.16-24.77,3.49-35.41,10.96-3.23,2.26-5.8,5.85-10.38,5.68,1-5.73,5.36-9.05,9.29-12.56,3.02-2.7,6.46-4.93,9.71-7.36,5.74-6.5,13.67-7.8,21.57-8.35,5.23-.36,10.49-.88,15.75-.83,10.39,1.73,20.46,4.37,29.26,10.52,7.35,4.19,13.76,9.87,21.57,13.36,6.62,2.96,13.44,4.76,20.73,4.73,11.47-.05,22.95.21,34.42-.08,9.33-.23,17.96,2.26,25.77,5.19-3.16-1.72-7.44-2.84-11.62-3.75-16.55-3.61-28.61-13.08-37.27-27.31-.54-.89-1.43-1.36-2.26-1.92-7.39-11.66-16.35-22.29-22.85-34.53-3.2-6.01-6.09-12.16-6.91-19.06-.28-2.41-3.15-4.06-2.1-6.9-.71-16.37,2.29-32.31,5.53-48.21.56-2.75.1-6.15,3.48-7.71,1.77-7.47-1.58-14.13-4.07-21.96,3.99,3.43,4.89,7.43,6.92,10.72,6.82,10.41,4.33,21.43,2.08,32.42-.42,2.06-1.93,3.9-1.25,6.17.67,1.55.86,3.2.47,4.82-1.83,7.47.36,14.79.72,22.17.08,1.59,1.12,2.63,1.84,3.85,3.18,12.89,11.59,22.69,19.51,32.74,1.74,2.2,2.97,4.85,5.37,6.51,10.49,15.64,26.23,22.82,43.72,27.26,3.41.87,3.71-.54,3.2-3.3-1.05-5.71-2.33-11.38-2.14-17.27.15-4.83.37-9.62,2.49-14.08.7-1.47.4-2.92.1-4.39,3.08-10.88,5.2-21.86,4.47-33.28-.24-3.8-1.24-7.55-.76-11.38-1.52-9.82-6.21-17.96-13.3-24.8-3.29-3.18-6.79-6.15-9.9-9.52-2.52-1.94-4.15-4.48-5.2-7.45-.56-1.58-1.08-3.12.73-4.29,1.54-.04,2.38,1.25,3.56,1.88,5.58,2.47,11.63,3.79,16.93,6.98,9.04,5.44,16.21,12.56,20.63,22.28,5.05,9.98,5.98,20.79,6.75,31.71.44,6.34-1.03,12.52-.77,18.81.05,1.3-.29,2.63.17,3.92.17,6.29-.15,12.59.07,18.88.29,8.19,1.9,16.12,5.4,23.58.69,5.69,4.53,9.86,7.4,14.39,12.33,19.48,23.19,39.67,31.05,61.39.44,1.21.6,2.82,1.97,3.32,1.18.44,1.67-.87,2.13-1.68,9.53-16.78,19.87-33.19,23.28-52.71.73-4.17.57-8.47,2.51-12.53,1.58-3.29-.99-6.31-2.18-9.34.91-5.47-.82-10.54-2.64-15.49-2.75-7.48-6.23-14.65-10.89-21.14-1.28-1.79-1.61-3.99-3.02-5.66-6.44-10.42-9.94-21.84-11.33-33.93-.21-1.82-.9-3.5-1-5.3,1.01-11.1-.66-22.03-2.03-32.97-2.69-10.44-7.32-19.86-14.95-27.62-1.39-1.41-1.02-3.48-2.2-4.92-5.19-5.17-11.67-8.47-17.82-12.24-5.41-3.32-10.19-7.22-12.36-13.7,7.23,9.03,18.4,10.6,27.93,15.2,4.71-.22,8.29,2.22,11.73,5,15.07,12.21,25.77,27.06,28.33,46.84,1.22,5.5,1.86,11.09,2.67,16.65,1.71,11.73,6.29,22.44,11.42,32.96,6.66,9.25,11.41,19.46,15.22,30.16.94,2.64,1.42,5.46,2.78,7.83.92.34,1.46-.07,1.86-.61,8.1-11.09,18.1-20.34,28.4-29.31,7.36-6.41,12.09-14.82,17.44-22.77,1.32-1.96-.26-4.31.98-6.24,4.17-9.35,7.35-19.1,11.45-28.48,1.68-3.83,4.82-7.18,4.39-11.82,3.03-5.92,3.87-12.27,4.17-18.83.15-3.3-.81-7.06,2.34-9.72,3.29,3.59,3.06,8.13,3.3,12.5.14,2.47-.02,4.96-.05,7.44,2.54,1.79,1.82,4.3,1.47,6.72-.35,2.43-.92,4.83-1.4,7.23-1.98,3.66-2.14,7.84-3.32,11.74-1.28,4.23-3.34,8.18-4.32,12.51-2.67,11.07-4.48,22.42-10.48,32.41-3.6,9.56-10.42,16.71-17.49,23.77-6.91,6.9-14.29,13.36-20.35,21.1-1.96,2.5-3.26,5.38-5.02,7.99-4.55,10.15-6.15,21.07-8.45,31.8-3.86,18.07-10.77,34.95-19.92,50.98-12.32,21.55-19.71,44.73-22.44,69.4-1.03,9.26-2.03,18.52-2.17,27.86-.04,2.81.2,6.05-2.44,8.24-1.4,4.74.48,9.71-.36,14.18-1,5.33-1.81,10.75-3.01,16.07-7.8,34.58-29.27,58.25-59.61,74.78-8.75,4.77-17.82,8.96-26.68,13.53-4.58,2.37-8.92,5.14-12.88,8.51-7.15,6.09-10.63,13.89-11.09,23.14-.3,6.03-.26,6.02-5.97,3.55-12.07-5.24-23.74-11.23-35.01-18.03-.99-.59-2.07-1.03-3.11-1.54Z"/>
  <path class="cls-49" d="M457.83,577.05c12.39,3.56,25.23,3.7,37.92,4.86,5.63.52,11.17,1.25,17.22,3.83-10.71,9-22.94,14.61-34.08,21.83-1.47.46-2.88.62-4.27-.36-8.53-5.96-18.63-6.65-28.42-8.28-9.6-1.6-18.82-4.14-26.84-9.92-7.23-5.21-12.46-11.92-14.93-20.58-3.55-12.43-8.85-24.36-10.62-37.3-1.23-2.25-1.1-4.74-1.3-6.56.61,2.4.13,5.45.38,8.47.65,8,2.49,15.81,5.45,23.18,6.44,16.03,4.92,31.43-2.12,46.75-4.17,9.07-8.05,18.27-7.41,28.6.17,2.74-1.42,3.06-3.67,3.45-11.04,1.92-22.23,1.82-33.35,2.73-2.26-3.46-.9-7.08-.19-10.53,1.74-8.43,6.2-15.68,10.66-22.86,8.42-13.55,16.47-27.26,20.11-43.04.78-3.39,1.71-6.75,1.72-10.27,1.26-2.8-.93-5.77.34-8.09-.25,1.09-.2,2.76-1.27,4.1-3.27,14.66-10.52,27.21-20.27,38.46-5.46,6.29-10.98,12.53-16.22,18.99-6.62,8.15-10.42,17.42-9.6,28.13.27,3.57-.99,4.93-4.48,4.36-.65-.11-1.33-.03-2-.07-12.13-.78-10.4.25-11.67-11.04-2.45-10.99,2.35-19.48,9.43-27.15,5.89-6.39,12.96-11.46,19.53-17.08,9.98-8.53,18.58-18.15,24.07-30.23,4.48-9.85,6.29-20.2,5.8-30.91.18,9.55-4.15,17.64-8.86,25.46-9.58,15.9-23.71,27.29-38.64,37.74-6.19,4.33-11.7,9.34-16.81,14.84-2.63,2.84-4.59,6.1-6.06,9.69-.73,1.78-1.07,3.99-3.55,4.4-1.23,5.39-1.49,10.78.2,16.12,1.2,3.81.16,5.17-3.84,4.65-10.86-1.42-21.4-4.45-32.11-6.6-1.55-.55-3.08-1.18-4.66-1.65-7.67-2.24-7.74-2.24-6.23-10.2,2.18-11.46,8.8-20,18.31-26.25,10.54-6.94,21.57-13.14,32.04-20.18,20.17-13.57,36.44-30.47,43.96-54.32,3.62-11.47,5.55-23.22,5.42-35.28-.91-6.11.14-12.29-.49-18.38-2.19-21.09-.11-41.84,4.97-62.31,6.33-25.48,19.1-47.42,37.53-65.99,13.28-13.38,25.77-27.32,35.63-43.5,2.47-4.06,6.36-7.2,8.24-11.73,7.49-9.68,18.31-15.74,26.75-24.4,2.55-2.62,5.05-5.19,6.14-8.8,3.06-2.81,4.31-6.63,5.46-10.4,3.34-10.97,5.02-22.4,9.1-33.18.16-.42-.05-.98-.09-1.48,1.72-9.23,3.22-18.5,6.26-27.44,2.15-6.32,6.08-11.01,11.89-14.19,1.59-.7,2.7-2.37,5.69-2.47-8.67,8-12.03,17.68-12.82,28.42,1.46,1.33,2.09,2.92,1.67,4.91-.44,2.12-.3,4.32-.86,6.42-3.82,14.14-6.06,28.55-7.74,43.07-1.29,11.98-6.98,21.69-15.45,29.96-8.43,8.08-17.82,15.33-22.74,26.71,14.23-5.52,29.02-7.58,43.9-9.26,21.21.33,42.2,1.82,61.65,11.5,4.61,2.29,9.3,4.44,13.39,7.64,7.94,4.33,14.21,10.83,21.12,16.49,4.23,3.47,8.27,7.17,12.99,9.99,1.75,1.05,2.86,2.74,3.85,4.48,1.07,1.19,3.03,1.22,3.73,2.89-3.93.44-7.29-1.47-10.83-2.63-11.1-1.46-18.61-9.34-27.25-15.21-7.94-4.73-16.38-8.31-25.22-10.97-13.09-2.5-26.25-4.14-39.6-3.57-11.15,1.81-22.34,3.49-33.18,6.84-20.59,6.35-38.26,17.56-53.63,32.26,21.05-7.51,41.93-7.16,62.39,2.4,8.6,4.02,17.11,8.06,26.41,10.38,2.83.71,5.17.3,7.74-.17,5.33.83,10.48-.26,15.62-1.37,5.3-1.14,10.6-2.25,15.96-3.08,10.26-2.21,20.65-2.56,31.09-2.17,3.82.14,7.56.79,11.08,2.36,8.69,1.96,16.58,5.22,21.65,13.15.81,1.91,3.39,2.14,4.35,5.27-5.58-2.58-10.49-4.85-15.41-7.12-4.63,1-9.14-.18-13.63-.98-4.95-.89-9.83-1.33-14.73.1-7.7.28-14.9,2.88-22.14,5.09-8.05,2.46-16.09,5-23.91,8.14-3.6-.67-6.82.96-10.16,1.77-12.52,3.02-24.12-.62-35.47-5.18-16.29-6.55-32.55-7.67-49.15-1.27-13.81,5.33-24.66,14.21-33.13,26.27-7.57,10.78-12.6,22.67-16.01,35.3-1.55,5.73-5.07,11.09-3.5,17.46-.98,12.95-1.15,25.81,2.43,38.52,4.34,15.42,12.04,28.75,23.66,39.78,3.56,5.57,9.72,7.84,14.73,11.55,9.18,6.8,20.22,9.74,30.55,14.14,2.13.91,4.61-.93,6.81.47,6.98,2.3,14.2,3,21.5,3.12,11.06,2.25,22.37-.2,33.45,1.94,4,.77,7.88,1.48,10.72,4.72,6.71,3.49,6.69,3.54.49,8.15-2.24,1.67-4.33,3.53-6.49,5.3-2.35,2.04-4.74,1.95-7.73,1.09-8.16-2.34-16.66-2.37-25.08-2.99-10.39-.77-20.76-1.78-31.14-2.69-2.93,2.29-6.02.91-8.81,0-10.37-3.39-20.6-7.08-29.07-14.45-2.95-2.57-4.85-5.85-7.39-8.65-1.49-2.52-3.52-4.73-4.54-7.54,1.02,2.82,3.06,5.03,4.56,7.57,6.8,10.36,16.87,16.24,28.18,20.2,3.86,1.35,7.58,3.26,11.81,3.63,1.04.09,2.77.56,3.17,2.23Z"/>
  <path class="cls-30" d="M612.93,335c-6.83-2.18-11.81-7.11-17.15-11.5-7.02-5.76-14.03-11.52-21.05-17.28.35-5.53-3.18-7.99-7.5-10.37-9.36-5.15-19.37-8.42-29.55-11.34-2.91-.83-5.86-1.63-6.13-5.45-.12-2.63,2.07-3.62,3.66-4.92,7.25-5.91,7.16-14.41,8-22.55.14-1.37-.78-2.19-2.29-1.45-1.3.64-2.39,1.85-4.06,1.45-1.71-.53-3.03.31-4.49,1.04-1.67.84-3.42.56-4.98-.55-2.08-1.62-1.3-3.77-1.17-5.86.18-3.01,1.2-6.25-1.86-8.57-1.4-2.02-3.91-1.64-5.75-2.66-2.12-1.17-4.84-1.64-5.66-4.48-.37-2.66,1.43-3.88,3.4-4.85,6.18-3.06,11.17-7.52,15.44-12.85,1.04-1.29,2.02-2.73,4.05-1.82,1.93,2.05,4.4,3.11,7.07,3.81.87,2.57-.87,4.34-1.99,6.27-1.99,3.42-3.37,6.96-3.11,11.05,1.77.28,2.77-1.45,4.31-1.06,2.19,2.36,4.39-2.47,6.58.02,2.19-.11,3.08-2.14,4.65-3.17,1.73-1.13,3.34-2.59,5.68-1.85,2.63,1.23,4.87,2.77,4.96,6.07,1.45,1.99,0,3.39-.99,4.9-3.52,5.38-5.7,11.26-6.41,17.64-.21,1.88-1.33,4.36.58,5.6,1.99,1.29,3.56-1.03,5.23-1.94,2.34-1.27,4.11-4.26,7.45-2.34,5.68-1.51,7.97.36,8,6.52.02,5.85.07,5.91,5.73,4.24,1.48-.44,2.88-.68,4.33-.04.23,2.55-1.74,3.32-3.46,4.31-7.63,4.38-16.02,6.26-24.62,7.41-1.45.19-3.01-.02-4.27,1.01,8.56,7.7,26.1,6.63,33.43-1.98,1.22-1.44,2.18-3.58,4.77-2.51,1.43,3.14,3.77,5.57,6.16,7.97.44,2.54-1.5,3.44-3.14,4.53-3.19,2.12-6.2,4.42-8.43,7.6-2.92,4.16-2.8,4.98,1.37,8.3.53.42.81,1.04,1.14,1.61,2.64,1.05,3.11,3.56,4.1,5.82,1.97,4.49,4.86,8.14,10.03,9.23,2.35-.08,4.9-1.92,6.94.77,2.27,2.67,3.24,5.42,1.54,8.93-.72,1.5-.38,3.52-.52,5.3Z"/>
  <path class="cls-41" d="M323.01,127.1c10.39,7.83,16.28,18.42,18.92,30.98-.04,6.79-5.38,8.51-10.22,10.71-11.64,7.8-18.37,18.47-19.29,32.64-.18,2.81,1.02,6.16-2.38,8.07-1.1.13-2.3-.29-2.5-1.22-1.06-4.91-5.35-8.55-5.62-13.64-.46-8.67-4.22-15.4-11.04-20.58-6.8-11.86-16.53-20.12-29.66-24.29-2.39-.76-4.59-2-5.51-4.64,4.61-.42,7.64-2.6,8.92-7.29,1.14-4.16,4.1-6.71,8.29-7.79,2.26-.48,3.37,1.13,4.4,2.59,9.55,13.48,23.29,15.83,38.42,14.54.33-.03.67-.08.97-.2,2.23-.83,5.74.65,6.64-2.19.94-2.97-2.04-4.98-3.78-7.1-2.34-2.85-5.43-4.85-8.43-6.94-1.74-1.21-3.79-2.34-3.14-5.08,3.59-1.99,5.59,1.37,8.25,2.46,2.49,1.02,5.11,3.28,6.72-1.07Z"/>
  <path class="cls-62" d="M252.17,143.26c1.25,3.96,3.44,7.4,5.91,10.68.52,1.2,1.02,2.65.93,3.75-.43,4.82,2.16,7.66,5.63,10.32,5.49,4.21,8.39,9.75,7.66,16.83-.3,2.9-1.02,5.61-4.38,6.48-2.62.53-3.78-1.27-5.11-3.04-2.56-3.41-4.78-7.18-8.73-9.29-1.27-.68-2.66-1.83-4.09-.67-1.23,1-.5,2.46-.17,3.7.52,1.96,1.08,3.89-.97,5.38-5.84,1.23-10.83-.01-14.5-5.02-1.97-2.26-.8-4.8-.39-7.14.53-3.04.35-5.96-.43-8.87-1.07-3.99-2.86-4.72-6.6-2.79-10.02,5.18-14.02,15.28-10.51,26.14.82,2.56,3.11,4.95,1.42,7.99-6.53,4.32-12.99,1.53-14.07-6.08-.23-1.64-.33-3.31-.15-4.93.49-4.38.02-8.28-4.4-10.59-.28-4.82,1.28-9.4,1.86-14.1,1.04-8.4.95-16.69-1.07-24.93,3.78,4.8,8.96,8.75,9.05,15.72.04,2.89-.83,6.36,2.11,8.24,3.65,2.34,11.02,1.33,14.15-1.89,4.49-4.62,10.12-7.3,15.73-10.09,1.45-1.67,3.39-.8,5.12-.97.41-1.42.75-2.87,1.25-4.26,1.19-3.3,2.72-4.25,4.75-.55Z"/>
  <path class="cls-14" d="M364.91,143.09c-4.9-7.71-10.19-15.18-13.15-24-3.11-9.28-3.22-18.55-1.14-28.04.71-3.22,1.73-3.75,4.62-2.26,13.74,7.1,25.45,15.94,28.79,32.29,2.75,10.52.68,20.08-5.83,28.69-3.84,5.08-6.57,5.18-10.72.43-1.75-2.01-3.54-4.09-2.56-7.12Z"/>
  <path class="cls-39" d="M364.91,143.09c1.12,1.43,2.25,2.86,3.36,4.29,4.34,5.64,4.92,5.68,8.91-.39,5.15-7.84,7.06-16.61,6.85-25.9,1.7,5.95,5.02,11.34,6.05,17.51.4,2.4,1.62,3.91,4.03,4.36,1.5.27,2.87.73,3.86,1.98.27,2.35-1.46,3.15-3.13,3.96-17.16,8.37-21.3,21.94-18.78,38.93.37,2.47.62,4.95,1.04,7.41-.41,1.89-1.6,2.88-3.52,2.77-2.14-.13-3.12-1.64-3.72-3.48-2.03-6.3-4.07-12.61-5.11-19.17-.57-3.62-2.27-6.14-5.89-7.17-2.64-11.57-6.83-22.43-14.37-31.81-6.62-8.23-14.87-14.49-23.74-20.03,2.98-1.08,5.97-2.17,8.95-3.25.78-.06,1.16.35,1.28,1.07.59,2.36,2.68,3.25,4.42,4.48,8.09,5.73,16.46,11.11,21.53,20.16,1.6,2.86,3.8,5.68,7.97,4.28Z"/>
  <path class="cls-5" d="M513.97,230.04c4.05,2.32,8.32,4.03,12.97,4.7.16,2.73-2.09,3.59-3.81,4.79-4.5,3.14-9.39,5.68-13.71,9.1-9.43,7.47-13.17,17.65-14.1,29.2-.07.83-.01,1.66-.36,2.45-2.2,2.81-5.55,2.58-8.55,3.13-3.57.65-7.18,1.06-10.79,1.43-1.6.17-2.99-.18-3.88-1.59-.92-1.46-.41-2.83.48-4.14,2.16-3.14,4.37-6.22,7.72-8.22,7.14-6.76,12.09-14.83,15.02-24.26,1.2-3.85-1.9-5.72-2.88-8.55.73-14.55,3.39-28.76,7.09-42.83,1.04-3.95,1.34-8.1,1.98-12.16,1.15-.11,2.33-.07,3.45-.34,4.91-1.18,5.59-.8,4.91,4.37-.75,5.73-1.71,11.47-3.18,17.05-1.29,4.86-1.52,9.4.71,13.96,1.74.91,2.1,2.36,1.61,4.14-.98,3.55-.43,6.13,3.93,6.48.63.05.99.8,1.4,1.3Z"/>
  <path class="cls-40" d="M156.24,215.91c-5.15-9.34-6.88-19.21-5.25-29.8.57-3.75,1.68-5.03,5.43-3.5,3.71,1.52,7.13,3.53,10.58,5.53,2.38-.87,4.03.27,5.8,1.76,6.47,5.45,10.43,12.45,13.02,20.34.42,1.27.68,2.57,1.52,3.65,1.81,4.66,2.65,9.56,3.55,14.44.27,1.49.33,2.98-.78,4.24-1.78,1.48-3.9,1.94-6.08,1.55-9.47-1.69-18.16-5.17-25.39-11.73-1.88-1.7-3.57-3.6-2.4-6.48Z"/>
  <path class="cls-26" d="M463.95,128.02c.4,10.24.47,20.43-3.98,30.02-6.73,3.86-9.21,11.5-14.66,16.5-1.68,1.54-3.26,3.47-5.99,2.13-1.74-1.18-1.68-3.15-1.99-4.89-1.26-7.06-5.2-12.41-10.56-16.87-4.22-3.52-6.71-2.74-8.13,2.52-1.64,6.11-1.86,12.36-1.82,18.64-1.62,2.11-2.86,4.19-2.87,7.13-.01,3.17-2.32,5.44-4.87,7.11-2.4,1.58-4.79.72-6.94-.77-2.24-1.55-3.37-3.6-2.43-6.41,1.53-4.57,4.13-8.64,5.95-13.09,2.22-5.4,2.24-10.26-2.51-14.38-.43-3.94-1.75-8.01,1.72-11.36,1.42-2.05,3.45-2.4,5.71-2.01.98.17,1.97.33,2.9.66,7.97,2.87,15.87,4.33,23.52-.9,1.98-1.2,3.1.29,4.23,1.45,2.78,2.86,5.29,5.94,7.06,8.81.51-2.85-1.29-6.82,2.82-9.24,3.72,1.28,5.55-.66,6.54-3.9.95-3.13,1.69-6.33,2.75-9.43.52-1.52,1-4,3.55-1.73Z"/>
  <path class="cls-39" d="M156.24,215.91c8.24,10.85,19.74,15.06,32.8,16.11,2.85.6,3.75,2.56,3.17,5.12-.57,2.52-2.67,3.19-4.88,2.67-2.46-.58-4.01.76-5.69,2-3.46,1.14-6.84-.35-10.26-.48-3.58-.14-4.42,1.37-3.51,4.52,1.93,6.66,5.94,12.08,10.33,17.25,1.21,1.42,2.54,2.65,1.69,4.75-3.01,5.34-8.06,2.68-11.27,1.58-5.86-2.01-11.49-4.94-17.28-7.35-.78-.33-1.29-1.01-1.62-1.79-1.64-7.62-4.51-14.58-10.7-19.75-1.38-1.15-2.11-2.57-1.26-4.4,8.51.45,10.18-.83,11.92-11.37.73-4.42,2.39-7.36,6.57-8.85Z"/>
  <path class="cls-14" d="M308.04,125.7c7.19,4.57,14.12,9.35,18.43,17.09,1.79,3.21,2.73,5.06-2.31,5.79-8.95,1.3-17.84,2.08-26.78.29-11.21-2.24-19.05-8.95-24.43-18.81,7.15-7.41,16.04-9.1,25.73-7.45,3.2.54,6.25,2.03,9.36,3.09Z"/>
  <path class="cls-45" d="M404.86,144.31c.08,3.92.16,7.84.24,11.76,1.46,2.53.96,4.99-.06,7.56-3.09,7.76-8.17,14.21-13.34,20.62-3.59,2.96-6.48,6.66-10.34,9.35-1.68,1.17-3.13,2.57-5.36,1.44-5.41-9.65-4.6-32.01,7.47-41.68,4.47-3.57,9.22-6.38,14.5-8.43,2.3-.21,4.59-.42,6.89-.62Z"/>
  <path class="cls-6" d="M508.27,157.13c-10.14,9.18-11.5,22-14.23,34.26-.57,2.58-1.21,5.14-1.82,7.7-4.05,4.76-4.96,5-9.46,2.46-2.87-2.13-1.97-4.99-1.36-7.7,1.86-8.16,1.14-16.06-2.3-23.67-1.48-3.27-3.68-4.61-6.93-1.96-4.77.61-6.31-2.59-7.41-6.3.81-4.66,1.63-9.32,2.44-13.98,1.45-2.77.28-5.9,1.41-9.77.38,4.67,2.1,7.81,3.75,11.04,1.74,3.39,3.94,4.64,7.48,2.85,2.24.1,2.86,1.99,3.6,3.53,1.57,3.27,3.49,5.51,7.54,3.83.59-.24,1.25.23,1.82.55,5.7,1.98,10.53-.73,15.47-2.85Z"/>
  <path class="cls-41" d="M185.12,214.05c-3.91-10.13-8.71-19.64-18.13-25.92,1.93-3.73,4.06-7.27,8.1-9.12,2.35-2.93,6.61-2.99,8.93-5.95,2.56-3.25,3.46-7.09,4.03-11.07.78-5.47,2.11-10.75,6-14.98.64-.7,1.17-2.06,2.23-1.41.61.37.6,1.76.87,2.69-.57,9.56-2.93,18.85-4.66,28.21-1.75,9.51-1.99,19.02-1.59,28.61-.84,2.01,0,4.18-.61,6.22-.81,2.7-2.08,4.43-5.19,2.71Z"/>
  <path class="cls-53" d="M451.1,143.07c-.26,3.93-.06,7.94-1.86,12.01-5.32-3.39-8.15-8.83-12.24-13.04-2.59-4.81-5.92-9.21-7.75-14.46-2.25-6.48-2.32-12.96-.79-19.6.97-4.22,2.92-4.26,5.85-1.92,8.9,7.12,13.35,16.75,15.5,27.63.61,3.09.88,6.24,1.3,9.37Z"/>
  <path class="cls-11" d="M569.84,255.98c-4.09,2.82-8.13,5.73-12.3,8.44-2.88,1.86-4.72,1.35-4.36-2.56,1-10.85,2.63-21.48,10.81-29.72,3.57-2.73,7.3-5.17,11.54-6.76,4.97-1.86,6.1-1.1,6.38,4.36.45,8.63-2.92,15.82-8.42,22.19-1.19,1.38-2.43,2.71-3.65,4.06Z"/>
  <path class="cls-52" d="M513.97,230.04c-9.94,2.78-10.33,2.37-7.83-8.05.31-1.28.59-2.57.88-3.86,5.17-12.18,14.88-18.01,27.56-19.73,5.01-.68,6.17.59,4.4,5.33-.92,2.47-2.08,4.85-3.14,7.27-4.88,9.12-13.27,14.2-21.87,19.04Z"/>
  <path class="cls-35" d="M137.75,236.13c4.96,4.11,9.5,8.53,11.91,14.72,1.02,2.64,1.85,5.26,1.38,8.12-1.58,2.9-4.1,1.92-6.48,1.58-2.11-.3-4.13-.91-6.1-1.68-6.64-1.8-12.18-5.55-17.25-10.04-2.02-1.79-3.36-4.03-2.98-6.93-1.2-2.37-2.46-4.72-3.56-7.13-.67-1.48-1.79-3.25-.79-4.7,1.08-1.58,3.04-.59,4.66-.48,6.99.48,13.1,3.53,19.22,6.54Z"/>
  <path class="cls-4" d="M184.03,173.07q-.06,6.48-8.93,5.95c-7.64-3.24-15.3-6.41-20.23-13.71-1.97-2.91-3.54-5.95-4.72-9.26-1.35-3.8-.16-5.08,3.78-5.04,12.47.13,24.12,7.88,28.81,19.39.37.91.86,1.78,1.3,2.66Z"/>
  <path class="cls-35" d="M593.75,274.95c-10.08,15.15-34.36,16.66-45.99,2.26,14.26-1.06,27.88-3.34,40.14-10.51,2.66-1.44,5.33-2.88,8.31-4.49.61,4.9-1.38,8.73-2.47,12.74Z"/>
  <path class="cls-13" d="M514.37,180.14c-6.81.21-7.31-.58-4.38-6.92,4.99-10.81,19.18-19.1,30.45-17.81,3.39.39,2.32,2.49,1.75,4.38-3.53,11.68-14.84,19.95-27.82,20.36Z"/>
  <path class="cls-30" d="M118.22,241.9c4.93,7.34,12.47,11.16,20.07,14.92.06.49.39,1.04.28,1.44-.82,3.09-.66,5.98,1.43,8.57-13.17-1.13-25.78,1.15-37.91,6.29,1.7-4.03-.91-5.14-4.01-5.93,1.4-4.66,4.8-7.03,9.31-8.13,8.37-.67,11.04-3.85,9.96-11.98-.25-1.85-.24-3.59.87-5.18Z"/>
  <path class="cls-60" d="M262.04,132.02c.3,3.1-.39,4.71-3.81,2.97-2.96-1.51-6.12-2.65-8.95-4.35-8.74-5.26-12.55-15.82-9.71-25.63,1.03-3.56,2.71-3.6,5.42-1.9,10.71,6.71,15.68,16.77,17.06,28.92Z"/>
  <path class="cls-22" d="M590.83,304.95c-1.16-.04-2.34.06-3.48-.13-5.18-.87-6.13-2.94-3.56-7.54,3.72-6.64,9.4-11.08,16.11-14.36,2.61-.46,5.21-.93,7.82-1.38,4.67-.8,5.52.1,4.31,4.58-2.19,8.15-7.56,13.44-15.13,16.68-1.97.84-4.05,1.44-6.08,2.15Z"/>
  <path class="cls-22" d="M492.8,159.98c-6.26,5.91-7.19,5.74-11.02-2.38-.83-1.76-1.3-3.68-1.93-5.53-.21-6.83,1.89-12.68,6.92-17.49,2.31-2.21,3.83-2.45,5.94.35,4.88,6.49,5.59,13.3,2.34,20.62-.67,1.51-1.49,2.96-2.25,4.44Z"/>
  <path class="cls-34" d="M331,114.17c-.43-.36-.85-.71-1.28-1.07-4.23-4.5-9.99-6.43-15.31-9.1-5.69-2.85-10.4-6.68-12.09-13.12-.52-1.98-1.35-4.58.69-6.03,1.67-1.19,3.46.55,4.99,1.38,5.11,2.76,10.63,4.91,14.96,8.89,5.51,5.07,9.83,10.81,8.04,19.04Z"/>
  <path class="cls-22" d="M611.91,320.77c-2.42.65-4.95,2.36-6.94-.77-.99-9.99,4.47-16.95,10.96-23.47,2.72-2.73,3.82-1.25,4.76,1.51,2.61,7.71.36,15.33-6.13,20.49-.91.72-1.77,1.49-2.65,2.24Z"/>
  <path class="cls-34" d="M465.96,110.52c.1,1.55-.25,3.5-1.32,5.24-1.64,2.65-3.27,6.53-6.4,6.21-3.3-.35-4.89-4.24-5.77-7.47-1.63-6.03.89-11.03,4.5-15.62,1.06-1.35,2.23-1.15,3.4-.06,3.26,3.04,5.63,6.53,5.59,11.71Z"/>
  <path class="cls-7" d="M489.03,116.17c-.74,8.3-9.18,16.31-17.13,16.6-2.36.09-2.87-1-2.75-3.02.42-6.97,11.03-16.65,18.04-16.52,2.56.05,1.84,1.74,1.83,2.94Z"/>
  <path class="cls-42" d="M107.39,259.06c-2.03,3.94-5.42,6.32-9.31,8.13-2.69,1.03-5.51.72-8.3.85-4.22.19-5.18-1.3-2.65-4.78,4.37-4.63,8.99-8.88,15.9-8.91,3-.01,6.01.28,4.35,4.71Z"/>
  <path class="cls-36" d="M542.12,231.06c-.06.16-.1.32-.17.47-1.54,2.86-3.01,8.19-5.49,7.36-3.18-1.06-1.57-6.16-1.24-9.43.59-5.8,3.31-10.72,7.69-14.65,3.21-1.71,3.31.2,2.76,2.5-1.11,4.6-2.35,9.18-3.54,13.76Z"/>
  <path class="cls-71" d="M559.03,226.06c-2.11,1.82-4.15,3.73-6.34,5.44-1.31,1.02-2.9,1.97-3.98-.42-.5-6.41,1.4-11.67,7.23-15.01,1.24-.71,2.63-1.88,4.07-.9,1.22.83.83,2.41.59,3.68-.45,2.42-1.04,4.81-1.57,7.21Z"/>
  <path class="cls-46" d="M246.17,148.07c-1.05,3.76-3.1,2.3-5.13.97-2.69-3.18-5.46-6.24-5.13-10.94.24-3.51,1.41-3.88,4.38-2.31,5.09,2.71,5.89,7.24,5.88,12.27Z"/>
  <path class="cls-22" d="M577.92,390.1c-9.87-.8-19.21-3.41-27.9-8.23-1.26-3.15,1.24-4.06,3.18-5.24,10.24-6.2,21.31-9.97,33.23-11.2,4.29.59,9.13-.6,12.31,3.69,4.23,1.88,8.51,3.64,12.66,5.67,5.16,2.53,5.29,3.93.59,7.43-6.4,4.78-13.71,7.29-21.67,7.72-4.13.23-8.28.12-12.41.16Z"/>
  <path class="cls-2" d="M618.89,366.11c-6.72-4.2-13.45-8.39-20.95-11.12-2.31-5.69-7.46-6.4-12.58-7.2-2.29-.36-4.66-.07-6.89-.62-3.64-.9-6.43-2.69-5.68-7.17,1.71-2.93,4.5-2.33,7.1-2.02,2.6.31,5.17.91,8.25.03-2.76-4.26-6.34-7.12-9.8-10.11-1.82-1.57-4.36-2.67-4.36-5.68.58-3.42,4.02-2.46,5.92-3.88,8.92,5.22,16.43,12.61,25.95,16.92-.65.06-1.32.21-1.96.15-2.43-.25-5.29-1.2-6.44,1.88-1.16,3.15-.53,6.29,2.31,8.46,1.82,1.39,3.84,2.59,5.9,3.58,7.19,3.44,11.71,8.91,13.23,16.79Z"/>
  <path class="cls-12" d="M598.74,369.12c-4.27-.39-8.55-.78-12.82-1.17-2.59-2.14-5.74-3.71-7.15-7.04,10.06-2.12,19.65-.07,29.07,3.35-3.03,1.62-6.07,3.24-9.1,4.85Z"/>
  <path class="cls-58" d="M578.77,360.91c5.56-.88,6.24,3.2,7.15,7.04-11.08,1.42-21.47,4.9-31.13,10.49-1.69.98-3.58,1.72-4.77,3.43,1.03,3.65,3.88,6.06,6.04,8.95,3.53,4.73,3.35,6.8-.84,11.13-2.38.72-3.57-.85-4.95-2.38-4.82-5.33-10.69-8.79-17.96-9.59-1.98-.22-4.2-.77-5.47,1.19-1.37,2.12.44,3.74,1.66,5.23,3.61,4.43,7.99,7.87,13.32,10.06,1.8.74,3.86,1.22,4.54,3.47-.17,7.24-1.39,8.42-8.31,6.91-5.57-1.22-11.57-1.77-16.29-8.22,1.22,7.51-3.24,9.07-7.53,10.71-11.16,4.27-10.95,4.18-7.46,15.82,2.96,9.87,4.71,19.82,4.46,30.4-.3,12.71-1.5,25.23-3.88,37.61-2.58,13.43-6.81,26.43-13.78,38.31-2.75,4.68-4.64,8.63.71,13.03,2.72,2.23.74,6.25-3.16,6.81-2.08.3-4.3.53-6.4-.31-7.42.08-14.71-.82-21.79-3.13-3.48-1.48-6.82-3.23-9.65-5.79-6.5-5.89-7.57-11-3.24-18.62,2.95-5.19,6.09-10.18,8.47-15.74,6.54-15.27,9.14-31.4,9.7-47.66.5-14.3-3.61-28.15-11.39-40.29-5.39-8.41-10.68-16.85-15.64-25.5-2.36-4.11-5.42-7.45-9.36-10.19-5.3-3.68-5.44-5.65-1.25-10.33,1.33-1.48,2.06-3.45,3.81-4.58,5.24-1.99,6.84-1.52,9.91,3.08,3.38,5.08,6.62,10.27,10.79,14.77,7.89,13.08,20.08,18.19,34.74,18.58,2.05.05,4.1-.39,1.61-3.01-.71-.74-1.16-1.6-1.01-2.68.56-1.71,2.03-2.02,3.52-2.32,3.24-.64,3.55-2.57,2.22-5.15-3.23-6.23-7.02-12.07-12.47-16.63-1.68-1.41-3.51-2.66-2.88-5.3,1.65-3.48,4.47-2.82,7.23-1.91,6.6,2.18,13.13,4.53,19.34,7.75,5.83,3.02,7.33,2.63,11.59-2.11,3.96-4.4,9.05-7.27,13.96-10.38,13.26-4.24,26.26-9.33,39.93-12.24,1.93-.41,3.94-.5,5.91-.74Z"/>
  <path class="cls-33" d="M484.73,561.02c1.49-.07,2.99-.1,4.48-.22,1.83-.15,3.17-1.12,3.76-2.82.66-1.91-1.04-2.57-2.17-3.46-5.25-4.13-5.32-4.4-1.84-10.06,12.02-19.59,17.03-41.24,19.03-63.83,1.45-16.32,1.18-32.38-4.61-48.02-4.03-10.89-3.84-10.96,7.37-14.72.95-.32,1.9-.62,2.83-.96,5.54-2.03,8.19-3.85,3.69-9.57-.4-.5-.58-1.19-.78-1.82-.09-.29.02-.65.07-1.42,4.14.76,7.02,3.49,9.88,6,2.56,2.24,5.29,4.05,8.44,5.17,5.67,2.02,8.15.71,10.05-5.05,5.1-2.66,9.09.62,13.3,2.56,1.01.47,1.75,1.42,2.67,2.07-2.74,7.26-3.53,7.84-11.02,6.14-5.18-1.17-10.23-2.94-15.38-4.26-4.21-1.07-6.07.91-4.95,5.12,7.64,28.97,8.68,57.93,1.28,87.24-2.91,11.53-6.37,22.7-11.61,33.33-.81,1.64-1.52,3.33-2.24,5.01-1.74,4.08-.82,6.95,3.48,8.82,4.14,1.8,8.07,4.07,9.42,8.93-11.42-3.19-23.12-3.35-34.85-3.3-3.44.02-6.95.38-10.3-.87Z"/>
  <path class="cls-35" d="M560.9,414.86c-5.48-1.01-10.72-2.82-15.97-4.63-9.36-2.84-16.54-8.52-21.74-16.75-2.86-4.53-2.65-5.03,2.42-5.73,13-1.8,22.31,4.12,29.61,14.2,1.84,4.33,4.73,8.19,5.68,12.91Z"/>
  <path class="cls-15" d="M202.04,565.95c-10.05,4.41-19.06,10.39-26.98,18.01,4.63-8.43,1.35-15.39-2.89-23.14-11.27-20.59-18.28-42.56-19.3-66.34-.37-8.63-.57-17.25-.87-25.88-.39-11.22.89-22.24,3.48-33.12,1.03-4.34-.4-6.63-4.68-7.6-5.35-1.21-10.66-2.6-15.97-3.99-2.09-.55-4.19-1.13-6.17-1.98-5.64-2.43-5.99-4.6-1.59-8.79.31-.6.78-1.32,1.39-1.25,6.24.65,12.56,1.07,17.9,4.95,1.2,4.83,5.39,5.5,9.22,6.31,4.83,1.02,9.66.07,14.25-1.45,5.8-1.93,11.79-3.3,17.42-5.72,1.62-.7,3.06-1.46,4.56-.09,1.56,1.43,1.48,3.25.85,5.07-1.43,4.08-2.95,8.13-4.53,12.15-6.79,17.34-7.44,35.32-5.29,53.45,1.84,15.5,4.36,30.93,10.74,45.42,3.49,7.92,7.59,15.53,11.95,22.98,3.86,6.61,3.72,7.72-3.47,11Z"/>
  <path class="cls-52" d="M145.12,417.74c-6.02-1.54-12.04-3.07-18.05-4.61-2.7-1.22-4.33-2.61-1.44-5.44,1.36-1.33,2.33-3.06,3.47-4.61.16-4.04,3.28-5.74,6.08-7.7,7.61-7.02,16.14-12.39,26.33-14.84,1.6-.38,3.23-.64,4.68-1.47,9.63-1.87,19.34-3.08,29.19-2.53,1.98.11,3.99,0,5.91.6,4.97,1.54,6.31,4.18,3.41,8.52-7.66,11.45-15.61,22.72-28.32,29.34-8.05,4.34-16.63,6.06-25.73,5.36-2.22-.17-4.25-.57-5.54-2.62Z"/>
  <path class="cls-14" d="M96.07,392.09c-7.79-2.53-15.11-5.87-20.62-12.25-1.7-2.53-.3-3.71,1.89-4.84,4.7-2.42,9.78-3.59,14.83-4.91,1.61-2.11,3.88-1.91,6.16-1.83,10,.37,19.4,3,28.34,7.42,1.35,1.41,3.05,2.3,4.66,3.36,2.71,1.79,5.51,4.02,2.74,7.92-4.53,3-8.87,6.71-14.95,4.19-7.63,1.59-15.28,2.57-23.04.93Z"/>
  <path class="cls-15" d="M119.11,391.16c4.64-1.74,9.29-3.48,13.93-5.21,5.46,2.48,3.07,7.12,3.05,11.11-2.33,2.01-4.66,4.02-6.99,6.02-.83-1.65-1.84-3.46-3.75-3.6-5.45-.39-6.73-3.62-6.24-8.32Z"/>
  <path class="cls-30" d="M110.67,336.1c-2.79.34-1.5,2.47-1.37,3.71.29,2.75,1.02,5.45,1.57,8.16-1.3,1.51-.33,3.21-.2,4.75.15,1.83.59,3.53-1.24,4.78-2.45.96-3.66-.92-5.03-2.28-6.26-6.25-13.46-10.21-22.63-9.38-1.7.15-2.89-.44-3.74-1.86-2.51-2-1.81-4.18-.54-6.56,1.48-2.79,3.12.61,4.59-.26.36-1.99,1.62-3.28,3.38-4.05,17.99-7.87,27.62-22.79,34.26-40.33,1.05-2.77,1.44-6.43,5.51-7,4.45,2.15,4.64,2.78,2.47,7.98,4.08-9.27,8.12-12.07,15.88-11.04,1.89.25,3.65.6,4.03,2.9-5.23,4.66-3.07,9.61-.68,14.67.96,2.04,2.52,4.05,1.46,6.59-.71,1.07-2,2.18-1.6,3.39,1.33,3.97-1.15,5.83-3.79,7.72-1.56,1.37-3.29,1.05-5.14.68-4.25-.86-4.91-.15-4.52,4.26.82,9.2,5.57,16.47,11.39,23.22.47,1.09.21,2.32.64,3.41,1.09,2.76,1.12,5.48-1.79,6.91-2.77,1.35-5.8,2.62-8.81.02-2.63-2.27-5.43-4.28-7.63-7.08-4.46-5.66-9.85-10.28-16.48-13.32Z"/>
  <path class="cls-28" d="M124.95,286.96c-2.91,6.48-5.73,13.01-8.76,19.44-7.08,14.97-18.67,25.01-34.1,30.76-1.78-2.96-.99-6.08-.5-9.14,1.5-9.44,5.41-17.95,10.34-26.04-1.24-2.62.09-4.55,1.88-6.16,7.59-6.83,16.5-11.14,26.37-13.52,2.43-.59,4.67-.36,5.73,2.45.06.9-.24,1.64-.95,2.21Z"/>
  <path class="cls-59" d="M78.03,343.98c13.41-2.95,23.09,2.98,31.02,13.05,4.26.13,5.76,3.27,6.03,6.6.29,3.62-2.93,4.58-5.8,4.83-5.57.49-11.32,1.61-16.2-2.51-7.59-2.84-14.5-6.65-19.52-13.29-3.83-5.06-3.71-5.56,2.23-7.63.78-.27,1.5-.7,2.24-1.05Z"/>
  <path class="cls-30" d="M125.39,284.9c-1.18-.87-2.46-.78-3.79-.42-11.51,3.1-22.27,7.46-29.68,17.51-2.07-.16-3.73-1.12-3.66-3.29.13-3.75-2.49-4.65-5.17-5.65,12.59-12.96,27.87-19.37,45.99-18.86,1.44,3.56-.35,8.77-3.69,10.72Z"/>
  <path class="cls-50" d="M93.08,365.95c5.4.74,10.72,1.52,16.26.25,4.08-.93,4.76-2.26,2.21-5.46-.92-1.16-1.67-2.47-2.49-3.71.9-2.96-1.89-6.67,1.83-9.06,2.65,9.38,9.53,15.61,16.26,21.97.28.8.83,1.41,1.42,1.99,1.25,1.21,3.28,2.03,2.52,4.33-.89,2.68-3.25,1.57-5.07,1.81-10.76-4.86-21.79-8.56-33.83-7.99-.53-1.56.79-2.72.91-4.14Z"/>
  <path class="cls-56" d="M445.03,278.03c-15.23,25.13-35.58,46.09-54.74,68.1-20,22.97-28.51,51-31.32,80.96-1.62,17.25-1.16,34.57-2.09,51.84-1.63-3.8-.68-7.8-.86-11.7-.14-3.1.11-6.22-1.52-9.9-.87,3.38-1.58,6.09-2.28,8.8-.29,0-.58,0-.87.01-.17-2.14-.33-4.29-.5-6.43-.18-37.64,5.62-73.94,25.07-106.92,12.28-20.83,18.67-43.56,23.02-67.06,1.03-5.56,2.94-10.88,5.67-15.87,2.8-1.59,4.69-.58,6,2.09,1.37,3.26-.96,5.93-1.51,8.88-.45,2.38-1.41,4.66-1.62,7.1-.88,9.55-2.96,18.91-4.36,28.38.52-3.3,3.27-5.09,5.24-7.48,6.78-6.44,12.04-14.08,17.31-21.73,1.26-1.83,2.09-4.28,4.87-4.55,3.7.41,5.9-2.14,8.36-4.22,1.95-1.65,3.95-3.19,6.13-.29Z"/>
  <path class="cls-43" d="M303.81,612.65c.66-6.23,3.88-11.22,7.74-15.87,6.35-7.64,14.56-13.08,22.48-18.85,13.26-9.67,25.33-20.5,33.71-34.89,5.16-8.86,8.39-18.37,9.56-28.63,3.75,10.08,3.2,20.09,0,30.1-4.97,15.56-14.73,27.75-26.91,38.23-6.05,5.2-12.26,10.23-18.14,15.61-8.06,7.36-12.69,16.53-13.36,27.54-.39-1.58-.75-3.17-1.18-4.74-.37-1.33-.9-2.66-2.67-2.08-3.82,1.25-6.18-.1-7.85-3.69-.55-1.18-2.24-1.84-3.4-2.73Z"/>
  <path class="cls-64" d="M383.15,547.06c.31-3.05.62-6.09.93-9.14,1.11,4.42,1.49,8.79,0,13.12-.31-1.33-.62-2.66-.93-3.99Z"/>
  <path class="cls-25" d="M405.62,583.32c7.97,12.49,19.24,17.44,31.43,21.1,6.83,2.05,13.72,4.13,19.45,8.73,2.35,1.88,2.61,2.82-.7,4.15-17.83,7.14-36.3,11.93-55.11,15.52-5.67,1.08-5.85.8-5.68-5.09.17-5.7,1.49-11.2,3.15-16.61,2.67-8.69,5.86-17.23,7.45-27.79Z"/>
  <path class="cls-44" d="M392.87,533.04c-1.47-3.95-.9-7.97.02-12.04.3,3.38.6,6.75.9,10.13-.31.64-.62,1.27-.92,1.91Z"/>
  <path class="cls-48" d="M258.03,550.95c-7.75,3.4-15.65,6.37-24,7.98,3.47-8.8-4.04-13.43-8-18.75-11.12-14.91-14.23-32.23-17.52-49.78-3.95-21.12-.11-40.97,8.09-60.34.59-1.39.98-2.83,1.36-4.28,1.34-5.12.61-6.68-4.25-9.1-2.38-1.18-4.92-2.03-7.29-3.25-6.66-3.43-7.27-4.55-6.34-11.97.12-.98-.13-2,.2-2.97,2.57-5.97,7.26-10.64,10.15-16.42,5.13-5.26,10.88-8.92,18.69-7.3.65.07,1.41-.02,1.91.33,3.7,2.61,7.33,5.33,11.42,7.33-.63,3.59-3.62,2.9-5.87,2.94-6.76.12-11.84,3.54-16.6,7.81-3.92,3.52-4.16,7.46-1.53,11.8-.59,5.3.75,6.8,6.42,7.46,11.15,1.3,21-1.66,29.57-8.87,4.7-3.95,9.99-6.38,16.21-6.56,1.62.38,2.76,1.53,4,2.52,1.09,1.35,1.09,3.11,1.73,4.64,2.95,7.01.62,12.01-6.29,15.6-6.71,3.48-10.91,9.66-14.57,16.02-7.25,12.61-8.97,26.65-9.96,40.82-.2,2.9,1.03,5.54,1.74,8.27,4.68,18.12,11.37,35.16,25.33,48.44,2.1,2,2.05,4.46.29,6.74-1.74,2.25-3.05,4.73-4.16,7.33-3.42,1.63-5.91,6.11-10.72,3.58Z"/>
  <path class="cls-72" d="M203.04,398.98c.1.32.36.68.28.94-2.28,7.75-1.9,8.56,5.7,12.03,3.48,1.59,6.97,3.15,10.43,4.79,2.68,1.27,3.54,3.12,2.29,6.08-1.74,4.13-3.03,8.44-4.69,12.61-8.23,20.56-9.31,41.52-4.75,63.14,1.9,9.01,4.11,17.98,7.65,26.28,3.78,8.87,8.99,17.38,16.85,23.66,3.75,3,3.83,4.89.22,7.81-1.03.83-1.98,1.75-2.97,2.63-10.66,2.34-21.32,4.68-31.98,7.02,4.26-2.81,3.98-5.53,1.3-9.89-10.98-17.85-19.1-36.88-21.37-58.02-.51-4.79-1.39-9.55-1.94-14.33-2.41-21.11.57-41.42,9.19-60.88.76-1.71,2.69-3.88.94-5.46-1.67-1.51-3.63.72-5.4,1.36-9.19,3.33-17.96,8.1-28.25,7.24-6.76-.57-10.16-2.89-11.39-8.22,10.71,1.01,21.07-.13,30.83-4.98,4.53,2.92,8.47,1.78,12.07-1.76,3.3-3.26,6.8-6.34,9.7-9.99,1.38-1.74,2.71-3.54,5.32-2.03Z"/>
  <path class="cls-51" d="M273.02,400.99c-1-.67-2-1.33-3-2-.8-.63-1.8-1.17-2.72-.91-5.63,1.58-8.35-2.1-11.04-5.9-2.59-2.62-6.04-3.74-9.24-5.3-3.97-6.98-12.01-6.55-17.99-9.88-7.16-1.3-12.4,2.06-17,6.99-4.48,3.57-3.96,3-6.34-2.04-2.92-6.16.65-9.65,3.35-13.85,18.34-.74,35.54,3.1,51.39,12.61,26.74,16.05,44.14,39.29,50.47,69.63,6.42,30.76.24,59.18-19.82,84.32-10.19,12.77-23.45,20.27-38,26.31-1.71-5,2.24-7.2,4.95-10.02,3-1.67,6-3.34,8.99-5.01,7.81-8.09,15.8-16.04,21.76-25.7,4.72-7.65,7.64-15.87,7.99-24.93.08-2.04-.03-4.01-.88-5.86-4.61-9.98-3.21-19.86.9-29.47,3.26-7.63,1.06-14.75-1.15-21.89-2.03-6.56-5.21-12.7-9.23-18.22-4.55-6.24-7.94-13.29-13.39-18.89Z"/>
  <path class="cls-21" d="M414.84,550.05c11.29,15.03,27.62,20.59,45.09,24.01-.7,1-1.4,1.99-2.1,2.99-17.74-3.44-33.69-9.9-43.96-25.99-.46-1.08.09-1.21.97-1.01Z"/>
  <path class="cls-38" d="M243.39,312.9c26.7.85,43.09,16,53.52,39.03,5.43,12,8.08,24.9,10.6,37.99-4.79-5.83-10.06-11.1-15.71-16.01-24.05-20.89-52.05-27.69-83.15-23.26-5.56.79-11.03,2.24-16.55,3.39-3.47-.45-2.79-2.91-1.78-4.67,1.82-3.16,4.25-6.05,8.2-6.57,5.1-.67,10.19-1.15,13.77-5.56.37-.46,1.24-.37,1.88-.5,12.44-1.32,24.42-4.58,34.61-8.63-6.78-2.25-14.69-6.16-23.52-6.64-3.14-.3-6.39.15-9.36-1.14-1.59-.69-3.61-1.41-3.26-3.8.32-2.19,2.5-2.66,3.94-2.71,8.93-.28,17.81-2.38,26.8-.92Z"/>
  <path class="cls-19" d="M267.05,190.04c3.88-4.53,3.92-11.21-.07-16.3-1.21-1.55-2.7-2.92-4.25-4.15q-7.85-6.23-4.66-15.65c10.84,8.33,20.6,17.47,23.49,31.69.16.8.19,1.62.28,2.44-3.21,3.03-3.4,7.01-3.34,11,.12,7.14-.55,14.14-3.19,20.85-4.02,2.29-8.09,4.32-12.84,2.1-2.49-.32-3.53-2.13-4.4-4.21-2.2-5.28-5.78-9.67-9.44-13.95-3.22-3.77-5.74-3.32-7.7,1.32-4.05,9.55-3.65,19.04.65,28.44.8,1.75,2.37,3.32,1.73,5.54-4.77,6.18-11.07,5.8-17.17-1.31-6.82-7.96-13.4-16.14-17.44-25.97-1.36-3.31-3.38-4.69-6.87-3.5-4.23-10.48-4.26-21.3-2.62-32.26,1.37.36,2.19-.21,2.66-1.5.44-1.18.57-2.98,2.33-2.65,2,.38,2.21,2.36,2.21,3.96,0,3.78-.37,7.57-.37,11.35.01,8.72,1.94,10.45,10.61,9.8,7.46-.47,10.5-6.2,13.86-11.58,1.18-1.89,1.68-4.56,4.77-4.42,3.89,3.54,8.74,4.43,13.72,4.98,1.16-.86,2.23-.51,3.13.36,5.66,5.55,12.63,9.82,16.76,17.55-.82-3.43-1.83-6.21-2.73-9.03-.58-1.82-1.09-3.56.87-4.89Z"/>
  <path class="cls-65" d="M389.92,182.78c6.39-8.15,12.43-16.49,15.17-26.72,5.46,1.87,5.55,6.2,4.35,10.59-1.34,4.94-3.55,9.6-6.15,14.06-1.57,2.69-2.91,5.69,1.18,7.42,3.82,1.62,5.47-1.26,6.76-4,1.38-2.94.79-6.66,3.56-9.08,2.27.19,2.94,1.99,3.5,3.7,2.57,7.82,6.87,14.64,11.89,21.01,3.17-6.89,6.11-13.92,7.65-21.46.25-1.21.97-2.09,2.31-2.26,4.42-3.79,8.46-7.71,10.18-13.67,1.36-4.69,6.52-2.62,9.63-4.35-5.29,13.34-10.57,26.67-15.86,40.01-6.67,9.08-15.81,15.94-22.53,25.02-1.7,2.29-4.28,4.81-8.02,3.63-2.15-1.56-1.75-3.76-1.36-5.89.74-4.07-.14-7.94-1.46-11.72-1.58-4.53-3.65-4.93-7.24-1.6-7.08,6.58-8.98,16.27-4.89,25.03,1.05,2.24,2.51,4.31,2.7,6.89-2.56,4.92-7.16,5.25-10.02.07-4.55-8.24-9.84-16.07-13.94-24.55-2.14-4.16-1.74-7.79,1.72-11.25,2.08-2.09,3.51-4.82,5.5-7.04,2.61-2.91,4.92-5.82,4.13-10.14-.24-1.3.71-2.51,1.23-3.73Z"/>
  <path class="cls-55" d="M290.9,174.07c7.7,1.87,11.84,6.6,12.63,14.64.44,4.52.85,9.13,4.71,12.75,1.8,1.68.16,5.22,1.58,7.64,2.5.42,2.77,2.65,3.45,4.43,1.07,2.79,1.91,5.68,3.5,8.24,2.31,3.75,4.48,4.12,7.51.95,4.57-4.78,7.45-10.56,9.11-16.93.54-2.09.79-4.26,2.43-5.88,1.98-.66,2.7-2.4,3.77-3.98,1.16-1.72,2.26-4.37,5.33-2.84,1.18,13.51,5.23,26.13,11.75,37.98-1.31,2.5-.8,6.2-4.63,7.06-3.62-.03-4.61-3.34-6.62-5.36-.7-.7-1.33-1.7-2.43-1.39-1.43.41-1.35,1.79-1.25,2.91.53,5.68,2.39,10.93,5.02,15.99,1.31,2.52,3.63,4.92,2.24,8.25-2.15,2.07-3.82,4.71-6.89,5.65-2.22.39-3.27-1.3-4.49-2.61-6.63-7.06-14.18-13.06-21.78-19-1-.78-2.01-2.39-3.34-1.65-1.63.91-.57,2.69-.39,4.09,1.1,8.65,3.79,16.85,7.09,24.88.8,1.94,2.07,4.01-.26,5.88-3.02.78-4.75-1.56-6.9-2.86-7.16-9.61-8.67-20.96-9.33-32.37-.29-4.9-.5-9.19-5.57-11.47.09-7.98.24-15.97.25-23.95.03-10.79-2.36-21.09-6.49-31.02Z"/>
  <path class="cls-24" d="M215.05,339.16c-5.51,2.83-10.7,6.03-17.29,6.63-3.55.33-6.99,3.29-5.67,8.25-12.53,4.62-24.01,12.02-37.37,14.37-7.38,1.3-14.42,0-20.73-4.32-.39-.89-.17-1.99.58-2.16,4.18-.97,7.68-4.46,12.1-4.04,6.99.68,13.18-1.88,19.32-4.28,4.95-1.93,9.8-4.14,14.77-6.08,3.71-1.45,3.91-2.5.95-5.09-4.67-4.08-7.89-9.43-12.35-13.72-3.18-3.06-1.84-7.4,2.71-10.8,10.77-2.74,11.19-4.35,3.57-12.49-1.91-2.04-5.13-3.68-3.57-7.48,1.08-1.56,2.44-1.97,4.13-.99,14,11.78,30.49,15.45,48.33,15.1,6.28-.12,12.64-.54,18.88.86-9.84-.62-19.26,1.91-28.87,3.7,3.93,2.51,8.61.25,12.53,2.25-1.4,3.73-4.73,2.51-7.28,2.53-7.15.05-13.89,1.27-19.83,5.49-1.86,1.32-4.36,2.53-3.74,5.32.55,2.48,3.18,2.63,5.2,3.25,2.88.88,5.86,1.07,8.86,1.21,1.91.09,4.17-.18,4.79,2.51Z"/>
  <path class="cls-69" d="M373.99,274.02c1.88,13.7-.96,26.73-5.58,39.52-3.75,10.38-9.35,19.8-14.75,29.34-2.86,5.05-5.45,10.25-8.2,15.47-1.86-.43-1.45-2.28-1.87-3.5-8.26-23.81-19.31-46.23-33.15-67.31-2.99-4.55-5.97-9.2-7.58-14.52,5.39-3.31,6.51-3.26,10.72.43,2.61,2.04,4.58,4.58,6.32,7.41,9.67,15.7,19.71,31.19,25.66,48.84.94,2.79,2.11,1.92,3.25.08,1.48-2.39,2.4-5.1,4.22-7.3,1.68-4.53,1.71-9.4,3-14.01,2.86-2.42,3.67-5.71,4-9.25.53-5.77,2.77-11.18,3.54-16.91.14-1.04.5-2.12,1.45-2.45,3.12-1.09,5.02-3.56,7.13-5.84.47-.51,1.22-.36,1.84-.02Z"/>
  <path class="cls-1" d="M482.83,199.97c3.34,2.03,6.31.02,9.38-.88-3.17,13.24-5.84,26.62-10.23,39.55-.9,2.67-2,5.29-4.03,7.37-2.48,1.76-4.93,3.96-7.82.63-1.12-1.62-.45-3.18.19-4.72.7-1.69,1.46-3.38,1.85-5.15.61-2.78,3.5-6.45.9-8.15-2.3-1.51-5.06,2.21-7.44,3.85-10.69,7.38-15.31,17.87-15.34,30.64-1.87,3.22-4.93,5.03-8.04,6.74-1.68.92-3.4,1.01-4.92-.45-1.48-2.22-.44-4.49-.14-6.75.9-6.87,2.82-13.63,2.27-20.66-.76-2.03.38-3.44,1.59-4.83,1.18-1.36,2.19-2.87,3.34-4.24,3.71-4.44,5.58-9.17,2.95-14.83,5.08-10.2,6.81-21.48,10.29-32.2.48-.17.89-.45,1.24-.81,1.96-2.07,3.97-4.46,7.15-2.53,2.97,1.81,2.6,4.96,1.85,7.67-2.11,7.7-3.52,15.6-6.77,22.97-.58,1.32-1.52,2.99-.11,4.17,1.63,1.37,3.08-.06,4.44-.97,2.2-1.47,3.52-4.03,6.11-5.03,3.82-1.75,4.67-5.98,7.29-8.75,1.15-1.22,1.58-3.41,4.01-2.65Z"/>
  <path class="cls-15" d="M173.08,320.2c-3.89,3.21-3.89,4.71-.4,8.28,5.28,5.4,9.03,12.29,16.3,15.74,2.21,1.05.59,2.61-.9,3.12-11.89,4.12-22.96,11.11-35.46,12.62-6.49.78-12.17,4.02-18.62,4.13-10.77-6.83-17.82-16.76-23.32-27.99,4.67-.63,8.38.98,11.54,4.49,3.66,4.06,7.58,7.89,11.42,11.79,2.5,2.54,5.42,4.4,8.77,1.87,3.18-2.4.26-5.12-.25-7.7,1.72-1.76,3.36-.65,4.94.2,3.24,1.74,6.65,2.96,10.32,3.3,4.42.41,6.25-1.65,5.08-5.97-2.59-9.55-8.42-16.68-16.74-21.93-1.8-1.13-4.67-1.64-3.78-4.93,3.75-2.81,1.94-7.99,4.77-11.18,2.19-.19,3.14,1.5,4.35,2.83,4.64,5.07,10.21,8.3,17.23,8.75,1.9.12,4.14-.07,4.76,2.57Z"/>
  <path class="cls-17" d="M221.86,263.11c3.13,3.78,5.9,7.81,9.26,11.43,7.54,8.14,16.34,13.94,27.15,16.76,7.24,1.89,14.13,4.69,19.72,10.09-6.57-1.81-12.89-4.38-19.67-5.46-12.59-1.99-25.26-1.74-37.81-.71-20.71,1.7-37.55-6.12-52.71-19.12.53-6.57,4.63-8.36,10.64-4.35,3.99,2.67,7.86,5.52,12.07,7.85,9.7,5.39,20.23,4.97,30.78,4.31,1.25-.08,1.55-1.05,1.26-2.2-1.1-2.78-2.72-5.27-4.18-7.84-.88-1.56-1.87-3.17-1.04-5.11,1.98-1.51.55-5.75,4.52-5.67Z"/>
  <path class="cls-18" d="M378.99,214.04c4.82,7.29,9.29,14.77,13.39,22.5,1.49,2.82,3.31,6.94,7.67,2.75,2.8-6.28,7.11-11.01,13.68-13.45,4.29-2.33,7.96-5.38,10.53-9.54,4.93-7.95,12.64-12.81,19.83-18.26-3.44,12.27-11.01,21.78-20.19,30.21-6.85,6.29-13.86,12.39-20.05,19.37-4.39,4.95-7.77,10.61-12.35,17.18-2.24-17.42-9.93-31.48-17.69-45.52-.35-1.42-.74-3.01-.22-4.28,1.17-2.84,3-3.94,5.38-.96Z"/>
  <path class="cls-24" d="M373.99,274.02c-1.08,1.52-1.72,3.23-1.86,5.07-.21,2.8-.12,4.92-4.22,2.78-2.72-1.42-2.78,1.81-2.84,3.68-.19,7.08-3.42,13.44-4.73,20.26-.22,1.17-1.44,2.15-2.19,3.22-2.58-.71-2.35-2.95-2.56-4.87-1.38-12.82-5.5-24.64-12.61-35.41-1.16-1.76-2.69-3.59-.95-5.87,1.62-2.08,3.22-4.19,5.98-4.86,1.72-1.09,2.94-.04,3.79,1.18,4.09,5.93,8.64,11.62,9.89,16.07-1.52-9.81-3.79-22.31-10.06-33.63-.86-1.54-1.05-3.15.35-4.58,1.3-2.19,1.77-5.04,4.67-5.99,3.34,5.67,6.94,11.21,9.96,17.04,4.19,8.1,7.56,16.53,7.38,25.91Z"/>
  <path class="cls-20" d="M278.1,235.2c-3.21,14.4-2.56,28.6,2.63,42.91-20.94-5.99-41.57-11.27-53.89-31.01.16-5.55,2.24-6.75,7.17-4.43,3.82,1.8,6.22,5.05,8.99,7.97,1.37,1.44,3.1,2.48,4.68,3.67,2.23,3.39,12.34,5.39,15.34,2.93,1.98-1.63,1.83-4.19,2.33-6.41,1.46-6.51,3.42-12.69,9.05-16.97,2.54-1.93,3.06-1.79,3.69,1.34Z"/>
  <path class="cls-47" d="M209.05,368.1c.71,3.18.79,5.9-2.15,8.47-2.76,2.42,1.23,4.58,1.48,7.11.24,2.37,2.38.18,3.66.3-2.77,5.14-6.81,9.51-9,15-4.01,4.18-7.96,8.42-12.06,12.5-1.75,1.74-3.71,3.34-5.79,4.66-4.9,3.1-7.09,2.23-9.23-3.38,11.69-7.1,19.55-17.8,27.12-28.79,2.08-3.02,1.43-4.27-2.19-4.56-11.67-.93-23.25-.26-34.76,1.76-1.55-.45-2.75-1.12-2.03-3.07,14.79-4.22,29.35-9.49,44.96-10Z"/>
  <path class="cls-37" d="M224.92,280.99c1.21.85,2.74,1.57,2.19,3.44-.32,1.07-1.44,1.48-2.42,1.41-6.63-.52-13.08,1.51-19.81.77-9.84-1.09-17.95-5.56-25.65-11.19-6.02-4.4-5.97-4.47-11.42.69-8.78-4.56-17.84-8.3-27.81-9.29-2.95-1.6-6.44-.2-10.09-1.57,3-3.1,6.95-4.6,8.38-8.44,4.25.72,8.5,1.44,12.74,2.16,6.85,3.05,13.67,6.16,20.55,9.14,2.59,1.12,5.14.84,7.37-1.06,1.89-1.51,3.51-.36,4.98.67,11.04,7.77,23.09,12.34,36.78,11.95,1.51-.04,2.95.44,4.22,1.32Z"/>
  <path class="cls-67" d="M378.99,214.04c-4.64-1.12-3.51,3.43-5.16,5.25-8.03-12.08-11.99-25.58-13.75-39.82-.46-3.75-.81-7.52-1.21-11.27,5.37-2.79,7.1-2.1,7.92,3.75,1.04,7.38,3.15,14.46,5.35,21.53.6,1.91,1.23,4.34,3.85,1.57,4.64-4.08,9.29-8.17,13.93-12.25,4.23,6.19.92,10.67-3.21,15.17-2.58,2.81-4.63,6.1-7.11,9-1.98,2.32-1.15,4.66-.61,7.08Z"/>
  <path class="cls-63" d="M221.86,263.11c-.99,2.05-1.98,4.1-2.98,6.15-3.1,1.16-4.23-1.4-5.39-3.2-3.27-5.08-7.46-9.31-11.82-13.38-4.44-4.14-9.72-6.8-15.52-8.58-2.38-.73-5.46-.83-6.09-4.24,1.47-1.17,3.18-1.93,5.03-1.75,5.36.5,5.91-1.94,3.93-6.09-1.3-5.99-2.61-11.98-3.91-17.97,4.27-1.46,4.06-5.82,5.79-8.93,2.02,12.13,7.41,22.81,13.88,33.1,5.36,8.53,12.22,16.02,17.07,24.88Z"/>
  <path class="cls-2" d="M472.98,213.26c-3.56,2.16-5.82,5.98-9.78,7.63-1.86.77-3.83,1.72-5.62.16-1.89-1.65-1-3.75-.18-5.53,3.53-7.59,5.35-15.71,7.48-23.74.63-2.37,2.14-5.05.17-7.08-1.72-1.77-3.49,1.14-5.44,1.08-.66-.02-1.32.08-1.99.12,2.38-7.99,4.75-15.98,7.13-23.96,2.38,1.71,4.76,3.41,7.14,5.12,1.61.67,2.27,2,2,3.6-1.14,6.7.23,13.22,1.53,19.7,1.59,7.94.4,15.49-2.44,22.91Z"/>
  <path class="cls-33" d="M278.1,235.2c-3.11.62-8.37,5.74-8.99,9.04-.82,4.38-1.6,8.78-2.06,13.2-.35,3.47-1.8,4.79-5.19,3.77-3.19-.96-6.49-1.12-9.79-1.36-2.62-.19-4.64-1.6-6.07-3.82.57-2.08,2.29-2.2,3.97-2.19,1.51,0,3,.2,4.07-1.2,1.08-1.01,1.62-2.47,2.74-3.44,5.17-1.33,6.79-5.89,8.8-9.95,1.61-3.25,2.6-6.78,3.32-10.34.77-3.8,2.16-7.22,5.1-9.87,1.18-8.52,2.5-17.02,2.11-25.69-.17-3.71,2.14-5.34,5.73-5.26,2.42,16,1.97,31.78-3.75,47.13Z"/>
  <path class="cls-27" d="M256.83,254.62c-3.34,2.53-7.21.95-10.82,1.41-4.28-2.1-6.76-6.1-9.93-9.37-4.17-4.29-5.35-4.16-9.23.45-9.92-11.89-20.5-23.35-25-38.74,1.07-2.3.99-6.19,3.8-6.28,2.4-.07,2.83,3.72,3.77,5.89,4.59,10.64,11.39,19.79,18.79,28.54,4.06,4.81,9.19,7.3,13.48,2.56,1.87-.44,3.15.43,4.18,1.86,3.43,4.74,8.13,8.47,10.97,13.69Z"/>
  <path class="cls-27" d="M176.18,296.95c-1.34.3-2.4,1-3.16,2.14-1.74,1.18-3.15.3-4.51-.75-5.56-4.28-11.32-8.11-18.34-9.65-1.4-.31-2.92-.92-3.08-2.8-11.93-4.02-16.22,4.55-20.89,13.68-1.55-4.75,3.26-9.22-1.24-12.6.15-.69.29-1.38.44-2.07-.48-4.16,2.24-7.22,3.69-10.72,14.31-.65,26.93,3.45,37.43,13.41,3.26,3.08,6.45,6.24,9.67,9.36Z"/>
  <path class="cls-73" d="M447.33,218.1c6.11,4.17,6.38,4.77,2.43,11.03-2.65,4.18-5.81,8.04-8.74,12.04.23,3.36-2.21,5.05-4.44,6.68-9.01,6.64-17.6,13.67-23.53,23.41-.89,1.47-2,2.76-4.04,1.83-.74-2.06-2.49-2.76-4.39-3.23,3.41-7.77,9.22-13.67,15.17-19.45,6.65-6.46,13.64-12.6,19.54-19.81,3.16-3.86,5.5-8.23,8-12.5Z"/>
  <path class="cls-17" d="M313.01,274.02c-1.24-.66-2.48-2.05-3.92-.73-2.26,2.07-4.19.58-6.23-.27-4.78-9.32-6-19.39-6.12-29.66-.05-4.77.25-9.55.39-14.32.79-.26,1.61-.44,2.35-.8,3.9-1.86,5.56-.53,5.52,3.66-.06,5.8-.18,11.59,1,17.34,1.6,7.82,3.56,15.52,7.02,22.76.54.68.63,1.35-.02,2.02Z"/>
  <path class="cls-23" d="M164.08,378.1c.68,1.02,1.35,2.04,2.03,3.07-11.08,3.28-21.04,8.65-30.02,15.89-2.69-3.24-1.72-7.49-3.05-11.11,1.39-2.84-1.26-3.66-2.64-4.95-1.27-1.18-2.92-1.95-4.4-2.91,6.35-1.88,1.49-5.32,1.13-8.14,11.04,8.52,23.48,10.68,36.95,8.15Z"/>
  <path class="cls-66" d="M344.9,193.08c-3.04,2.23-3.94,6.54-7.79,7.98-2.42-.87-2.43-3.05-2.43-4.99-.02-8.41-1.22-16.58-4.47-24.39-.66-1.58-1.02-3.22.53-4.58,4.19-2.43,8.37-4.88,11.19-9.02,2.97,11.5,2.96,23.25,2.97,35Z"/>
  <path class="cls-17" d="M435.99,381c-6.71,7.43-6.64,7.34,1.23,13.95,4.68,3.93,7.23,9.5,10.03,14.75,2.59,4.86,5.58,9.39,8.65,13.95,12.2,18.04,17.21,37.77,13.81,59.59-2.16,13.85-4.83,27.45-10.73,40.26-1.19,2.58-2.42,5.05-4.25,7.27-6.55,7.97-6.29,13.16.92,20.31,2.36,2.34,4.86,4.53,7.3,6.79-20.06-3.86-37.64-12.56-52.41-26.77,1.24-3.2-1.15-5.34-2.34-7.78-2.68-5.51-6.37-10.55-7.69-16.72-.51-2.4-.19-4.49.75-6.75,2.73-6.6,5.69-13.15,6.71-20.33.19-1.32.73-2.74.32-3.95-3.01-8.8-3.51-18.84-12.08-24.95-1.97-1.41-2.32-3.45-2.58-5.68-.81-7.06,2.01-13.48,3.66-20.04,1.17-4.63,2.79-9.19,4.19-13.79,3.95-5.95,7.39-12.24,12.37-17.49,4.85-5.11,10.15-9.6,16.39-12.89,1.84-.97,3.96-2.22,5.77.26Z"/>
  <path class="cls-67" d="M573.91,340.17c1.17,3.51,3.73,4.87,7.29,4.83,4.19-.04,8.34.6,12.31,1.83,3.84,1.19,6.65,3.45,4.43,8.17-14.33-3.51-28.67-2.09-43.01-.03-5.83-4.47-12.16-4.11-18.79-2.21-7.02,2.01-14.17,2.04-21.32.57-5.02-.6-9.72-2.22-14.1-4.68-12.62-7.07-25.94-11.92-40.45-13.22-1.99-.18-4.2-.34-4.86-2.72-.72-2.59,1.12-4.01,2.99-5.18,3.63-2.27,6.61-5.57,10.85-6.87,14.07,8.23,28.85,14.93,44.24,20.29,2.71.94,6.31,3.14,8.31.33,1.97-2.75-1.77-4.83-3.31-7.01-4.25-6.01-10.36-9.73-16.7-13.11-2.08-1.11-4.34-2.06-3.72-5.13,3.42-5.1,9.19-4.23,14.09-5.56,1.28.23,2.5.73,3.91.43,9.82-2.15,16.63,2.64,22.3,9.87,1.23,1.57,2.46,3.14,3.65,4.75,2.36,3.17,5.06,4.21,8.46,1.5,1.82-.65,3.22.17,4.54,1.29,4.63,3.9,9.74,6.91,15.59,8.61,1.61.47,3.16,1.19,3.3,3.25Z"/>
  <path class="cls-69" d="M435.99,381c-13.14,5-22.08,14.63-29.15,26.35-.94,1.55-1.9,3.09-2.85,4.63-4.29,6.72-6.64,14.24-8.85,21.79-1.75,5.96-6.15,10.67-7.55,16.83-.47,2.08-2.11,1.96-3.75.13,2.93-26.93,12.46-50.97,33.32-68.91,20.13-17.3,43.38-21.16,68.55-12.09,9.48,3.42,18.81,7.84,29.18,7.16,6.06-.4,12.04-1.96,18.05-3-2.52,3.55-5.7,6.45-9.05,9.19-1.27,1.03-2.52,2.19-3.43,3.53-3.18,4.67-7.18,5.96-12.22,3.09-6.4-3.65-13.3-6.01-20.17-8.46-2.01-.72-4.07-1.71-6.12-.04-1.39,2.04-3.19,1.24-4.89.62-4.86-1.78-9.96-2.32-15.02-3.06-1.98-.29-4.11-.47-5.52,1.31-1.51,1.9-.24,3.73.54,5.55,1.31,3.04,3.9,5.33,4.95,8.53.12,1.16-.5,2.25-.36,3.4.22,1.82.52,3.72-1.48,4.75-2.04,1.04-3.33-.65-4.79-1.59-.82-.53-1.56-1.2-2.4-1.71-3.56-5.1-7.2-10.15-10.64-15.33-1.61-2.43-3.2-4.23-6.35-2.65Z"/>
  <path class="cls-51" d="M383.83,450.73c.72.2,1.46.08,1.67-.65,3.44-11.84,11.05-21.79,15.02-33.38.66-1.93,1.61-3.65,3.46-4.72-3.34,8.33-6.74,16.63-7.65,25.68-.51,5.16-1.65,10.47,4.71,13.17.43.18.84.62,1.05,1.04,5.96,12.12,12.31,24.17,5.82,38.22-1.67,3.61-3,7.37-4.5,11.06-1.37,3.38-.54,6.59,1.01,9.59,3.42,6.62,7.01,13.15,10.61,19.86-1.26,1.52-3.04.06-4.51.51-9.55-8.27-16.16-18.69-20.96-30.17-6.46-15.47-7.81-31.75-6.33-48.33.06-.64.39-1.26.59-1.88Z"/>
  <path class="cls-8" d="M512.93,312.98c-4.95.66-9.89,1.33-14.18,4.21-.94,1.74-2.56,2.11-4.28,1.83-6.33-1.03-12.23.7-18.08,2.73-2.1.73-4.15,1.23-6.3.33-4.33,3.19-8.66,6.39-13.88,10.24,4.19.65,7.22,1.24,10.27,1.55,9.2.93,17.8,3.71,26.04,7.86,7.24,3.65,14.26,7.88,22.43,9.3,2.31,1.29,4.37,2.93,6.51,4.47,1.58,1.14,2.66,2.45,1.5,4.5-10.93.65-20.48-3.7-29.84-8.46-13.32-6.78-27.25-10.55-42.29-9.52-10.72.74-20.9,3.62-30.94,8.09,9.58-20.65,60.37-45.74,92.9-46.16,1.85-.48,4.07-1.28,5.32.49,1.23,1.76-1.12,3.11-1.59,4.74-.55,1.93-2.27,2.65-3.58,3.8Z"/>
  <path class="cls-10" d="M481.91,271.95c-3.63,2.68-6.24,6.23-9.35,10.86,7.74-1.33,14.75-1.33,21.44-3.68.38-1.37,1.37-2.13,2.6-2.66,2.32-.95,4.26.46,6.33,1.03,3.33,1.01,6.3,2.7,8.96,4.94,1.19,1,2.03,2.33,1.43,3.93-.62,1.64-2.22,1.06-3.46,1.13-3.62.21-7.26-.36-10.86.35-16.69,1.15-32.83,4.54-48.09,11.76.58-7.89,11.58-21.99,26.1-33.57,4.94.36,5.96,1.58,4.92,5.92Z"/>
  <path class="cls-48" d="M498.98,287.85c3.94-1.82,8.27-.15,12.59-1.37-1.08-4.71-5.82-5.01-8.61-7.46,6.65-3.82,13.68-2.58,20.69-1.57,3.01,1.08,6.64-1.56,9.31,1.57,3.82,4.07,9.31,4.22,14.13,5.61,9.56,2.76,18.24,7.21,26.63,12.31,6.15,3.74,6.04,3.93,1.01,9.27-23.16-14.75-48.72-19.58-75.75-18.36Z"/>
  <path class="cls-17" d="M512.93,312.98c.97-2.73-.45-6.43,3.48-7.83-1.03-1.64-2.52-.75-3.62-1.2,14.29-2.09,28.26-.1,42.12,3.3,2.6,4.81-1.74,5.74-4.27,7.68-1.38.42-3.32-.79-4.19.7-1,1.72.73,3.02,1.6,4.36,1.55,2.38,4.68,4.11,3.04,7.73-1.09,5.54-2.71,6.28-7.16,3.27-1.68-1.14-3.09-2.53-4.15-4.25-6.17-10.03-14.51-15.79-26.86-13.76Z"/>
  <path class="cls-43" d="M471.26,246.08c2.24,1.19,4.46.09,6.69-.07-4.7,7.35-11.1,13.03-18.03,18.17-5.48,4.07-10.23,8.91-14.9,13.84-2.37,0-4.14,1.27-5.51,2.99-2.31,2.92-5.1,4.08-8.72,2.93-.26-.21-.6-.44-.65-.73-.58-3.59,4.54-12.51,8.07-14.13,4.2-1.28,7.22-4.46,10.79-6.75.28-2.19,1.7-3.44,3.58-4.34,5.67-2.7,11.01-5.87,15.15-10.72.97-1.13,2.14-1.43,3.52-1.2Z"/>
  <path class="cls-61" d="M522.95,360c-2.72-2.94-6.51-4.93-8.01-8.97,9.55,2.29,18.71-.53,27.97-2.11,7.83-1.34,8.43-.96,12.01,6.05-10.58,2.19-20.92,5.86-31.97,5.03Z"/>
  <path class="cls-18" d="M481.91,271.95c-.66-2.78-3.52-3.75-4.92-5.92,8.05-7.69,12.75-17.19,15.08-27.96,1.12.2,2.26.62,3.37.56,2.82-.16,3.61,1.34,3.11,3.7-2.45,11.6-7.51,21.76-16.64,29.62Z"/>
  <path class="cls-67" d="M548.8,312.09c3.2-.15,5.85-.99,6.11-4.85,9.04,2.08,17.22,6.11,24.98,11.09-.74,2.42-2.75,3.14-4.91,3.66-1.69,1.41-3.31.94-5.03-.05-5.5-3.19-11.45-5.17-17.62-6.59-1.77-.41-3.74-.68-3.53-3.26Z"/>
  <path class="cls-57" d="M414.84,550.05c-.32.34-.64.67-.97,1.01-3.14-3.65-5.09-7.82-5.37-12.75,2.11,3.91,4.23,7.83,6.34,11.74Z"/>
  <path class="cls-14" d="M496.83,278.94c-.95.06-1.89.13-2.84.19-1.63-10.92,1.98-20.19,9.26-28.1,6.62-7.2,15.3-11.57,23.68-16.3,2.88-.54,2.24,1.67,2.33,3.12.27,4.45-.51,8.82-1.19,13.19,2.13,3.33.3,6.21-1.43,8.75-7.21,10.55-15.94,18.9-29.81,19.15Z"/>
  <path class="cls-3" d="M532.95,279.02c-2.91.29-5.82.59-8.73.88-2.45-.92-3.2-2.8-2.58-5.16,2.28-8.77,6.58-16.49,12.41-23.38.81-.95,1.93-1.2,3.14-1.11.86-.77,1.69-1.57,2.57-2.32,1.47-1.26,2.66-4.04,4.45-3.43,2.2.76,1.54,3.7,1.46,5.72-.22,5.6-.47,11.21-2.24,16.63-1.81,5.55-6.13,8.84-10.48,12.16Z"/>
  <path class="cls-15" d="M537.19,250.26c-5.18,7.18-9.79,14.69-12.67,23.11-.7,2.06-2.33,4.27-.3,6.53-7.04-1.52-14.17-.69-21.27-.88-2.04-.03-4.08-.05-6.13-.08,15.03-4.13,25.55-13.3,31.24-27.9,3.11.6,5.84-3.32,9.12-.79Z"/>
  <path class="cls-53" d="M330.74,167.1c5.87,10.62,6.75,22.17,6.38,33.96-1.78,10.23-6.18,19.02-13.67,26.37-2.84,2.79-4.39,2.44-6.49-.58-3.76-5.4-6.23-11.24-7.14-17.75-1.42-16.08,4.67-29.09,16.35-39.79,1.27-1.17,2.29-3.04,4.57-2.2Z"/>
  <path class="cls-35" d="M235.31,181.07c-2.34,6.72-6.38,12.22-11.56,17.09-3.18,2.99-5.24,2.74-7.07-1.09-2.59-6.61-5.79-12.98-3.49-20.57,2.84-9.37,9.78-14.29,18.08-17.91,2.49-1.09,3.08,1.19,3.71,2.88,2.41,6.49,2.27,13.04.33,19.61Z"/>
  <path class="cls-29" d="M267.05,190.04c2.12,6.23,5.14,12.29,3.16,19.72-4.73-10.11-14.41-15.56-21.19-23.71-.89-2.14-2-4.21-2.58-6.43-.47-1.79-2.1-4.12-.26-5.52,1.59-1.21,3.78.24,5.62.89,7.44,2.62,10.96,9.23,15.25,15.06Z"/>
  <path class="cls-14" d="M440.15,176.06c-.49,7.74-2.94,14.89-6.56,21.67-2.84,5.33-3.91,5.41-7.74.48-5.36-6.9-9.21-14.55-11.05-23.14-1.12-8.06.25-15.73,3.12-23.3,1.25-3.3,2.61-4.24,5.71-2.21,9.65,6.28,16.48,14.26,16.51,26.51Z"/>
  <path class="cls-14" d="M180.07,239.86c15.84,2.68,27.05,11.93,35.58,25.01.99,1.52,2.15,2.93,3.23,4.39,2.01,3.91,4.02,7.82,6.03,11.73-14.42,2.96-27.14-1.31-39.03-9.14-2.35-1.55-4.63-3.2-6.94-4.8-7.13-6.57-12.25-14.38-14.68-23.84-1.26-4.9-.61-5.57,4.47-4.9,3.78.5,7.55,1.03,11.33,1.55Z"/>
  <path class="cls-59" d="M472.98,213.26c-1.06-1.28-1.05-2.76-.68-4.26,1.97-8.1,1.56-16.19-.5-24.16-1.55-6-.66-11.87.1-17.79.65-2.11-.02-5.4,2.45-5.96,2.12-.48,3.14,2.52,4.44,4.17,5.97,7.55,6.66,16.33,5.68,25.42-.34,3.12-1.08,6.19-1.64,9.28-2.26,5.18-5.54,9.61-9.85,13.29Z"/>
  <path class="cls-68" d="M548.8,312.09c9.37,1.59,18.16,4.73,26.17,9.9,5.51,4.27,10.75,8.85,15.47,13.99.97,1.05,2.94,1.93,2.3,3.5-.7,1.73-2.86,1.39-4.46,1.35-4.8-.13-9.59-.43-14.38-.66-9.11-1.39-16.54-5.84-22.8-12.45-2.79-3.66-5.65-7.28-8.35-11-.81-1.12-2.45-2.33-1.55-3.85.85-1.44,2.71-.68,4.13-.78,1.15-.08,2.31,0,3.46,0Z"/>
  <path class="cls-53" d="M459.91,394.35c-3.23-4.15-5.98-8.51-7.84-13.52-1.23-3.32-.11-3.95,2.81-4.25,9.46-.96,18.43.78,27.05,4.62,8.2,5.81,13.6,13.82,17.76,22.78,2.43,5.22,2.02,5.83-3.74,6-1.65.05-3.3.12-4.95.18-1.41,2.29-3.58,2.05-5.75,1.67-7.51-1.29-14.19-4.37-20.18-9.09-2.79-2.2-3.95-5.28-5.17-8.38Z"/>
  <path class="cls-17" d="M459.91,394.35c8.26,9.41,18.48,14.96,31.1,15.8.62.22,1.23.49,1.87.65,1.94.49,4.83-.21,4.76,3.03-.07,3.36-2.82,4.68-5.48,4.61-10.38-.26-20.55-1.79-28.82-8.8-3.76-3.19-6.93-7.08-10.36-10.65q6.48,2.17,6.94-4.64Z"/>
  <path class="cls-53" d="M147.08,285.89c10.56.64,18.37,6.68,25.93,13.21,3.49,3.91,6.9,7.9,10.51,11.7,2.99,3.16,1.97,5.01-1.65,6.3-2.93,1.05-5.87,2.07-8.8,3.1-8.81.56-16.52-1.71-22.7-8.41-1.6-1.74-2.86-3.54-3.64-5.73-1.64-4.1-3.42-8.15-4.88-12.31-2.62-7.46-2.43-7.66,5.22-7.85Z"/>
  <path class="cls-14" d="M141.96,317.23c11.86,5.65,19.95,14.5,23.36,27.37,1.73,6.52.66,8.07-6.19,8.15-6.4.07-11.85-2.69-16.99-6.19-7.14-7.23-10.82-16.02-11.77-26.05-.58-6.11.22-6.84,5.96-5.11,1.89.57,3.76,1.23,5.63,1.84Z"/>
  <path class="cls-28" d="M438.23,269.09c-1.61,5.39-4.87,9.95-7.42,14.86-6.46,9.14-12.03,18.98-20.81,26.28-4.19,1.39-5.36-1.47-5.44-4.49-.16-5.9-.44-11.82.28-17.71.62-5.2,2.49-10.05,4.19-14.94,7.55-13.77,19.99-22.63,32.01-31.92,2.08,7.7-.44,15.1-1.53,22.58-.26,1.8-.84,3.56-1.27,5.33Z"/>
  <path class="cls-72" d="M404.83,288.03c.06,4.44-.22,8.92.27,13.31.39,3.44.64,7.39,4.89,8.89-3.2,2.98-5.22,7.1-9.82,10.25.74-3.63,1.07-6.36,1.86-8.96,2.33-7.68,1-15.77,2.8-23.5Z"/>
  <path class="cls-47" d="M273.02,400.99c5.84,2.57,8.68,8.13,12.2,12.82,7.46,9.92,13.29,20.74,15.31,33.24.81,5.03.37,9.7-1.68,14.58-3.69,8.78-5.2,18.01-.42,26.97,1.96,3.67,1.05,7.21.49,10.71-3.29,20.52-14.78,35.53-31.91,46.63,5-8.82,5.42-9.2-.95-16.08-11.41-12.32-17.26-27.36-20.77-43.11-5.08-22.79.26-43.65,15.2-61.88,2.87-3.5,5.67-6.6,10.19-8.37,5.43-2.12,6.01-8.12,2.32-15.52Z"/>
  <path class="cls-54" d="M249.01,384.89c2.96,1.71,5.92,3.42,8.87,5.13.41,1.92-.18,3.64-1.34,5.09-8.68,10.82-21.1,16.69-35.09,13.3-2.16-.52-3.61-1.47-4.36-3.52-5.31-2.93-5.59-4.03-2.26-9.05,6.46-9.74,15.53-14.03,27.15-12.97,2.96-1.48,4.72,1.24,7.02,2.03Z"/>
  <path class="cls-47" d="M217.09,404.88c19,5.86,31.35-2.33,40.79-14.87,2.21,5.47,7.7,6.52,12.14,8.97-5.75-.51-9.7,3.18-13.64,6.33-8.82,7.06-18.5,10.86-29.95,9.72-2.67-.27-5.22-.57-7.74-1.58-6.62-2.68-6.86-3.78-1.61-8.57Z"/>
  <path class="cls-47" d="M249.01,384.89c-2.34-.68-4.68-1.35-7.02-2.03-4.73-1.05-8.99-3.12-12.95-5.86,6.93,1.96,14.47,2.34,19.98,7.89Z"/>
  <path class="cls-52" d="M215.05,339.16c-7.12-.14-14.26-.09-20.84-3.5-4.71-2.44-4.79-2.87-1.11-6.45,7.38-7.19,16.21-10.64,26.5-10.44,2.48.05,4.96.05,7.44.08,8.93,1.75,17.71,3.9,25.76,9.88-12.41,5.94-24.89,8.88-37.76,10.43Z"/>
  <path class="cls-54" d="M258.64,323.15c13.19,1.02,28.63,16.66,28.49,27.07-.02,1.76.7,3.98-1.16,5.05-1.95,1.13-3.39-.77-4.75-1.81-10.18-7.82-15.71-19.02-22.59-30.31Z"/>
  <path class="cls-14" d="M256.83,254.62c-3.81-.25-5.28-3.61-7.43-5.88-2.82-2.99-5.17-6.42-7.72-9.67-7.17-12.39-8.59-25.03-1.54-37.98,3.2-5.86,3.77-5.94,8.26-1.17,5.62,5.97,10.49,12.46,13.66,20.1,4.98,6.94,4,20.57-2.1,28.67-.59.78-1.4,1.39-1.83,2.31-.85,1.06-1.26,2.27-1.32,3.62Z"/>
  <path class="cls-27" d="M258.15,251c3.21-10.08,6.43-20.17,3.92-30.97,4.11,1.22,8.03.15,11.94-1-1.72,6.34-3.36,12.71-5.2,19.03-1.69,5.8-5.29,10.14-10.67,12.95Z"/>
  <path class="cls-22" d="M413.74,225.85c-3.7,5.36-8.25,9.85-13.68,13.45-9.84-13.07-7.66-27.4,5.53-37.45,2.68-2.05,4.12-1.16,5.44,1.34,3.81,7.21,4.9,14.74,2.72,22.66Z"/>
  <path class="cls-45" d="M342.04,262.87c10.07,13.75,16.14,28.89,16.12,46.16-.38,5.1-1.5,10.03-3.2,14.84-1.94,1.7-3.4.63-4.54-.97-10.04-14.14-22.57-26.47-30.63-42.04-.92-1.77-2.46-3.57-1.07-5.83-5.69-12.63-9.96-25.59-9.72-40.83,12.27,9.06,23.43,17.94,33.04,28.67Z"/>
  <path class="cls-54" d="M351.99,237.05c8.5,14.65,12.41,30.42,11.64,47.39-4.27-9.42-9.46-18.2-15.61-26.43-3.36-6.8-7.69-13.17-8.62-21.01-.5-4.2-.32-8.16,2.1-12.03,4.48,3.39,6.97,8.19,10.49,12.08Z"/>
  <path class="cls-48" d="M318.72,275.04c6.78,13.26,16.14,24.68,25.8,35.86,3.64,4.21,5.97,9.45,10.43,12.98-2.06,3.8-4.1,7.61-6.2,11.39-.55.99-1.07,2.38-2.35,2.36-1.45-.02-1.53-1.59-1.86-2.64-6.87-22.21-19.17-41.6-31.53-60.97,0-.67.01-1.34.02-2.02,1.9,1.01,3.8,2.02,5.7,3.03Z"/>
  <path class="cls-45" d="M471.26,246.08c-5.09,8.6-13.65,12.45-22.25,16.25-2.06-7.41.51-14.04,4.12-20.14,5.59-9.44,14.76-14.82,24.88-20.68-.8,9.35-3.56,17.01-6.74,24.57Z"/>
  <path class="cls-52" d="M470.09,322.08c8.93-5.27,18.46-7.02,28.66-4.89,11.56,4.46,20.57,11.99,27,22.57.83,1.37,2.31,2.91,1.4,4.52-.94,1.67-3,1-4.58.9-2.31-.15-4.7-.26-6.88-.92-14.03-4.28-27.26-10.45-40.2-17.29-2.13-1.13-4.49-2.28-5.4-4.89Z"/>
</svg>