<?xml version="1.0" encoding="UTF-8"?>
<svg id="Layer_1" xmlns="http://www.w3.org/2000/svg" viewBox="0 0 700 700">
  <path d="M336.55,664.45c-59.07-.93-122.89-21.3-178.66-64.26-57.62-44.4-95.95-101.95-113.57-172.79-3.91-15.72-6.37-31.7-7.64-47.93-1.1-14.17-1.36-28.35-.55-42.41,2.12-36.74,10.36-72.17,25.19-106,12.54-28.61,29.04-54.73,49.46-78.26,43.67-50.33,97.85-83.78,162.63-99.85,28.84-7.15,58.16-10.31,87.8-8.89,46.9,2.24,91.45,13.69,133.11,35.8,32.11,17.04,60.83,38.6,85.33,65.38,36.9,40.34,62.06,87.13,74.4,140.56,5.88,25.46,8.84,51.3,7.94,77.41-1.75,50.59-13.89,98.39-39.05,142.65-15.39,27.07-34.35,51.34-56.97,72.6-41.3,38.82-89.61,64.81-144.92,77.65-24.16,5.61-48.63,8.28-84.51,8.33ZM342.78,646.49c18.81-.39,31.78-.77,44.71-2.4,66.33-8.33,123.26-36.27,170.52-83.22,50.57-50.23,79.34-110.96,84.88-182.42,2.37-30.64.42-60.9-6.89-90.68-15.54-63.34-48.18-116.25-98.77-157.55-68.84-56.19-147.75-77.19-235.38-64.55-55.78,8.04-105.54,30.68-147.27,68.63-81.51,74.12-114.81,166.21-95.62,274.99,13.53,76.7,55.1,137.13,117.76,182.68,51.05,37.12,109.05,53.79,166.07,54.52Z"/>
  <path d="M109.88,336.25c3.08,1.5,3.63,3.72,4.59,5.58,3.74,7.2,8.8,13.34,14.77,18.74,10.07,9.1,21.6,11.39,34.3,6.67,6.39-2.37,12.53-5.39,18.85-7.97,31.1-12.72,61.91-12.94,92.13,2.73,11.66,6.05,21.44,14.59,30.11,24.43.84.96,1.33,2.35,3.41,2.76-.95-7.74-3.16-14.97-5.27-22.18-4.96-16.95-12.65-32.18-27.44-42.95-11.5-8.38-24.67-10.31-38.32-10.72-10.32-.31-20.68.2-30.93-1.48-13.34-2.19-24.47-8.69-33.61-18.35-12.09-12.78-26.6-19.03-44.18-18.21-15.65.73-29.73,5.32-41.19,16.51-1.02,1-1.89,2.36-3.94,2.47-.05-2.22,1.33-3.67,2.52-5.11,13.82-16.71,31.8-23.49,53.13-21.89,13.85,1.04,26.19,6.11,36.97,14.83,12.76,10.32,27.25,14.76,43.65,13.94,13.29-.66,26.62-1.56,39.9.72,6.07,1.05,11.87,2.92,17.81,4.7-3.42-3.63-7.69-6.17-12.37-7.14-19.9-4.14-33.13-16.75-43.79-33.06-5.37-8.22-11.34-16.05-16.84-24.19-12.53-18.55-15.83-38.75-11.02-60.55,1.9-8.58,3.96-17.16,4.62-25.99.57-7.5-.76-14.57-4-21.34-.54-1.12-1.61-2.22-.6-4.08,3.73,2.39,5.34,6.17,6.94,9.85,4.75,10.9,3.63,22.21,1.69,33.42-3.15,18.11-3.56,35.87,6.14,52.34,8.75,14.86,19.65,28.1,31.83,40.27,3.2,3.2,6.89,5.97,11.11,7.54,9.75,3.64,19.64,6.88,30.14,10.51-1.14-5-2.22-9.29-3.07-13.63-2.24-11.39-.84-22.56,2.37-33.56,3.84-13.16,4.47-26.49,2.72-40.04-1.79-13.83-8.35-24.76-19.56-32.92-5.72-4.16-9.71-9.37-10.57-16.98,4.66,8.55,14.06,9.33,21.24,13.71,15.98,9.74,22.06,25.02,24.13,42.65,1.47,12.51.24,24.99-.39,37.44-1.01,19.83,3.46,37.92,14.59,54.45,14.4,21.37,25.22,44.51,33.58,69.99,8.47-18.11,20.01-33.51,25.5-51.99,7.19-24.21,4.77-47.04-9.27-68.37-7.1-10.79-12.73-22.23-15.07-35.09-1.71-9.38-1.92-18.89-2.2-28.36-.77-25.8-11.41-45.4-34.76-57.49-5.33-2.76-10.43-5.97-14.24-10.8-1.82-2.3-3.57-4.65-3.83-7.87.77,0,1.26-.13,1.36.02,5.57,8.1,14.61,10.48,22.9,14.28,26.98,12.37,42.01,33.45,44.71,63.06,1.29,14.15,5.03,27.52,12.08,39.82,8.45,14.74,16.95,29.41,19.27,46.68,2.09-.29,2.26-1.84,2.88-2.85,6.32-10.37,14.47-19.18,23.73-26.86,14.14-11.72,23.94-26.01,29.26-43.72,2.95-9.84,7.72-19.12,11.43-28.75,3.44-8.92,5.51-18.13,4.95-27.8-.1-1.7-.71-3.61,1.3-5.91,3.11,6.55,3.6,12.93,2.88,19.5-.82,7.46-2.53,14.72-4.68,21.91-3.39,11.3-6.73,22.63-9.84,34.01-3.97,14.52-11.32,26.92-22.27,37.23-3.15,2.97-6.12,6.15-9.42,8.95-14.15,11.99-21.66,27.4-24.59,45.53-3.13,19.38-9.12,37.91-19.19,54.85-18.65,31.37-26.04,65.6-26.93,101.66-.42,16.97-.79,33.98-6.38,50.35-9.73,28.47-29.12,48.48-54.93,62.8-8.43,4.68-17.23,8.7-25.78,13.17-3.83,2-7.59,4.17-11.2,6.55-10.04,6.62-15.42,15.91-15.32,28.08.02,2.87-.2,4.58-3.77,3.05-16.57-7.1-32.41-15.55-47.51-25.41-2.38-1.55-2.23-2.67-.33-4.52,7.52-7.33,16.71-11.46,26.71-13.88,9.05-2.19,18.24-3.83,27.3-6.01,41.9-10.08,66.45-38.14,72.44-80.84,6.97-49.63-26.81-95.86-65.91-110.52-22.45-8.42-44.75-6.52-67.12.23-8.59,2.59-17.12,5.51-26.29,5.52-20.52.01-41.47-18.33-44.01-38.67-.2-1.59-.03-3.22-.03-5.44Z"/>
  <path d="M413.72,549.21c7.59,14.82,20.89,22.05,36.1,26.66,15.59,4.72,31.75,5.6,47.83,6.91,4.84.39,9.55,1.17,14.16,2.76,2.53.88,2.42,1.88.5,3.28-10.38,7.58-21.63,13.76-32.77,20.1-1.23.7-2.54.67-3.77-.21-8.65-6.21-18.98-6.77-28.94-8.49-9.11-1.58-17.9-3.91-25.62-9.23-7.48-5.16-13.11-11.8-15.74-20.65-3.61-12.1-8.39-23.86-11.05-36.29-.22,4.67,1.14,9.13,2.23,13.59.99,4.03,2.12,8.07,3.64,11.93,5.61,14.2,4.13,28.06-1.68,41.75-4.36,10.26-9.39,20.33-8.6,31.97.15,2.19-1.19,2.68-3.1,2.97-10.56,1.62-21.23,1.84-31.86,2.56-3.29.22-3.84-1.4-3.63-4.29.51-6.96,2.65-13.4,6.04-19.39,4.84-8.55,10.07-16.88,14.85-25.46,8.39-15.05,13.44-31.06,13.3-48.47-2.17,17.27-9.93,31.91-21.11,44.96-5.64,6.58-11.43,13.03-16.86,19.77-6.48,8.03-10.18,17.2-9.38,27.71.29,3.81-.97,5.26-4.71,4.62-.65-.11-1.33-.06-2-.08-11.63-.42-12.25-1.04-11.55-12.9.56-9.4,4.74-17.21,11.11-23.97,6.31-6.7,13.77-12.08,20.69-18.09,13.11-11.39,23.22-24.73,27.52-41.91,2.15-8.59,1.98-17.07-.94-26.38-3.19,28.03-19.68,46.39-40.3,62.01-5.84,4.43-11.83,8.66-17.56,13.23-12.89,10.29-18.97,23.36-15.69,40.02.7,3.58.09,5.26-4.24,4.51-13.31-2.3-26.4-5.42-39.37-9.13-3.15-.9-4.16-2.16-3.81-5.59,1.15-11.27,6.3-20.18,14.88-27.32,5.02-4.17,10.6-7.5,16.21-10.78,8.91-5.22,17.66-10.68,26.05-16.74,28.38-20.49,42.38-48.4,43.36-83.13.5-17.82.42-35.65,1.94-53.44,2.95-34.45,14.57-65.25,38.83-90.39,16.14-16.72,31.38-34.03,43.61-53.88,4.14-6.71,9.38-12.82,15.97-17.06,18.46-11.91,26.97-29.29,30.83-50.28,2.4-13.03,5.63-25.98,8.66-38.92,1.82-7.76,5.14-14.77,11.31-20.14,2.11-1.84,4.29-3.54,7.57-4.09-.23.83-.21,1.39-.47,1.61-8.4,6.86-12.14,16.1-13.29,26.52-1.19,10.78-3.91,21.2-6.42,31.71-1.88,7.88-2.12,16.14-3.23,24.21-1.63,11.84-6.92,21.79-15.8,29.8-8.91,8.04-18.11,15.83-23.51,26.93-.84,1.73-2.13,3.29-2.22,5.83,13.06-5.87,26.44-9.58,40.42-10.99,36.57-3.68,69.89,3.6,98.04,28.74,8.52,7.61,16.88,15.55,28.85,19.44-2.47,2.14-4.16,1.39-5.82,1.01-7.83-1.79-14.61-5.81-20.63-10.8-27.24-22.56-58.67-26.78-92.28-21.41-30.68,4.9-56.53,19-77.77,41.63-.56.59-1.06,1.24-1.22,2.71,1.35-.56,2.68-1.14,4.04-1.68,22.2-8.73,44.51-9.42,65.71,2.06,18.9,10.23,37.86,11.89,58.34,6.38,14.5-3.9,29.44-5.54,44.52-2.79,12.72,2.32,22.92,9.16,32.87,17.62-2.54,1.13-4.14,0-5.55-.87-20.39-12.54-41.59-12.08-63.38-4.3-7.2,2.57-14.55,4.76-21.86,7.01-16.06,4.94-31.74,4.25-47.29-2.51-12.67-5.51-25.96-6.93-39.62-4.06-15.93,3.35-29.35,11.18-39.4,23.83-21.69,27.3-30.4,58.75-23.8,92.83,8.15,42.08,37.06,64.58,77.1,74.48,14.8,3.66,29.97,4.17,45.17,4.05,8.21-.07,16.28.94,24.02,3.86,5.71,2.16,5.8,2.7,1.29,6.43-.51.43-1.09.78-1.56,1.24-5.69,5.52-11.39,7.79-20.2,6.02-14.11-2.83-28.8-2.7-43.2-4.24-13.49-1.44-26.53-4.58-38.37-11.7-6.57-3.95-11.61-9.38-16.41-15.23Z"/>
  <path d="M155.22,419.17c-9.76.01-18.19-1.73-26.31-4.92-4.87-1.92-5.05-2.63-1.62-6.54,15.01-17.05,33.55-26.97,56.57-27.64,6.32-.18,12.64-.31,18.95.39,2.23.25,3.63.88,1.98,3.34-7.53,11.22-15.16,22.37-27.18,29.42-7.21,4.22-15.02,6.19-22.39,5.95Z"/>
  <path d="M355.15,325.57c-9.92-15.54-23.21-27.52-31.98-42.95-7.58-13.34-12.76-27.4-13.37-42.89-.05-1.29.13-2.58.2-3.85.56-.05.98-.22,1.17-.08,18.64,13.89,37.09,27.92,44.53,51.53,3.15,10.01,4.56,20.07,2.46,30.47-.5,2.47-1.29,4.78-3.01,7.77Z"/>
  <path d="M406.67,584.84c8.19,12.81,21.19,17.33,34.56,21.38,5.88,1.78,11.73,3.84,16.56,7.92,1.96,1.66,3.19,2.84-.48,4.31-18.16,7.25-36.94,12.13-56.1,15.83-4.77.92-5.65-.69-5.47-5.02.39-9.48,3.63-18.23,6.36-27.12,1.71-5.56,3.4-11.11,4.57-17.3Z"/>
  <path d="M217.01,283.22c-22.56-.06-46.21-17.35-52.07-38.06-1.86-6.56-1.54-6.78,5.04-6.36,22.16,1.41,38.75,11.58,49.58,31.04.89,1.6,1.85,3.15,2.75,4.74,4.81,8.47,4.69,8.66-5.29,8.64Z"/>
  <path d="M385.39,126.17c-.23,9.42-3.17,17.86-9.19,25.19-1.42,1.73-2.72,3.03-4.66.52-9.39-12.1-18.93-24.14-21.41-39.9-1.12-7.12-.66-14.23,1.2-21.22.43-1.62.83-3.64,3.2-2.45,13.14,6.57,25.4,14.07,29.84,29.48.79,2.75,1.12,5.53,1.02,8.39Z"/>
  <path d="M405.41,296.42c-.05-13.86,4.94-25.69,14.38-35.71,5.97-6.34,12.99-11.44,19.92-16.63,2.45-1.84,3.49-1.39,3.34,1.72-.61,12.23-2.15,24.2-8.87,34.91-6.03,9.6-11.92,19.28-19.88,27.46-4.29,4.41-5.52,4.03-7.52-1.92-1.08-3.2-1.17-6.54-1.36-9.83Z"/>
  <path d="M338.34,194.61c.48,12.89-3.92,23.99-13.17,33.21-4.14,4.13-4.62,4.13-8.06-.88-10.32-15.03-9-35.18,3.35-50.09,2.23-2.69,4.71-5.16,7.13-7.69,2.4-2.5,4.15-1.96,5.6,1.11,3.63,7.67,5.31,15.74,5.15,24.34Z"/>
  <path d="M186.8,233.3c-24.78-1.64-41.59-25.13-35.13-48.64.86-3.11,2.47-2.97,4.81-2.04,12.07,4.79,21.67,12.24,26.77,24.61,3,7.26,5.01,14.78,6.53,22.47.56,2.82,0,4.29-2.99,3.6Z"/>
  <path d="M81.37,334.57c2.19-22.74,13.12-43.29,40.47-49.16,2.02-.43,5.6-2.07,3.9,2.52-6.45,17.43-13.59,34.46-30.56,44.77-3.14,1.91-6.34,3.63-9.77,4.94-2.95,1.13-4.56.41-4.05-3.06Z"/>
  <path d="M310.52,151.28c-13.34.36-24.99-3.16-33.45-14.29-4.87-6.41-4.58-7.84,2.76-11.33,17.33-8.23,43.25,2.57,49.5,20.54.79,2.27.07,2.97-1.99,3.36-5.57,1.06-11.14,1.91-16.83,1.72Z"/>
  <path d="M264.29,229.57c-.22,8.74-2.86,16.42-5.73,24.05-.84,2.24-1.92,3.02-3.88,1.06-8.82-8.79-16.71-18.13-18.35-31.14-1.13-8.98,1.22-17.11,6.21-24.53.95-1.41,2.06-3.56,4.21-1.33,7.51,7.81,15.12,15.58,17.12,26.88.32,1.79.32,3.63.43,5Z"/>
  <path d="M551.33,382.88c16.04-14.95,45.73-17.73,63.64-6.45,3.54,2.23,2.75,3.57.1,5.77-11.48,9.48-24.91,10.23-38.74,8.55-8.7-1.06-17.31-2.84-25-7.86Z"/>
  <path d="M493.93,411.1c-21.48-.32-33.71-13.29-40.96-29.8-1.25-2.85.03-3.44,2.48-3.66,16.24-1.43,30.99,2.59,39.79,17.18,2.15,3.56,3.98,7.3,6.01,10.93,2.13,3.82,1.05,5.56-3.31,5.36-1.33-.06-2.66,0-4,0Z"/>
  <path d="M441.42,176.92c-.27,8.87-3.22,16.86-7.75,24.39-1.52,2.53-2.9,2.79-4.89.56-11.4-12.76-18.58-30.54-10.22-49.18,1.7-3.8,3.41-4.74,7.06-2.27,9.46,6.4,16.2,14.27,15.81,26.5Z"/>
  <path d="M373.6,181.11c-.85-21.05,12.41-31.82,28.46-36.22,2.96-.81,4.18.02,4.48,3.21.56,5.97-.49,11.59-2.93,16.96-5.5,12.1-14.31,21.48-24.63,29.6-2.56,2.01-3.65,1.17-4.27-1.75-.88-4.09-1.23-8.21-1.11-11.8Z"/>
  <path d="M106.37,394.28c-11.31-.17-21.12-4.03-29.1-12.19-3.52-3.6-3.34-4.48,1.29-6.74,8.3-4.06,16.93-5.51,26.18-3.88,8.98,1.59,17.29,4.77,25.19,9.18,2.02,1.13,4.72,2.27,4.62,4.8-.09,2.42-3.02,2.79-4.92,3.63-7.39,3.25-15.14,5-23.26,5.21Z"/>
  <path d="M170.35,321.36c-9.24-.05-15.87-3.74-20.61-10.63-4.1-5.95-6.47-12.74-8.51-19.63-1.04-3.5.2-4.82,3.94-4.65,8.44.39,15.96,2.93,22.56,8.27,6.37,5.16,12.01,11.01,17.2,17.35,2.4,2.93,1.79,4.39-1.41,5.87-4.44,2.06-8.92,3.7-13.16,3.4Z"/>
  <path d="M531.09,240.3c-.23,18.57-14.49,35.88-32.19,39.39-4.08.81-5.45-.22-5.01-4.4,1.22-11.45,5.78-20.97,15.05-28.11,5.16-3.98,10.78-7.15,16.44-10.29,5.51-3.07,5.78-2.91,5.7,3.42Z"/>
  <path d="M221.67,319.63c10.31-.08,19.58,2.87,28.42,7.39,1.13.58,2.7,1.52,2.87,2.51.29,1.68-1.78,1.63-2.89,2.06-13.07,5.13-26.45,8.89-40.68,8.5-5.38-.15-10.45-1.4-15.32-3.85-3.6-1.81-3.15-3.27-.61-5.72,7.98-7.7,17.41-11.38,28.21-10.88Z"/>
  <path d="M490.28,317.19c14.74.01,32.54,12.46,38,25.76,1.32,3.22-.06,3.98-2.77,3.77-2.81-.21-5.7-.34-8.37-1.15-14.51-4.38-28.2-10.75-41.51-17.92-1.67-.9-4.24-1.89-4.09-3.92.15-2.02,2.88-2.4,4.62-3.22,4.74-2.21,9.82-2.95,14.12-3.33Z"/>
  <path d="M158.81,354.11c-8.05-.55-15.28-4.43-20.57-11.73-5.15-7.1-7.3-15.17-7.42-23.86-.04-2.68.72-3.89,3.86-3.3,15.38,2.9,29.14,16.29,32.35,31.77,1.14,5.49-.47,7.07-8.22,7.13Z"/>
  <path d="M585.59,342.06c-20.12,1.47-32.63-9.83-42.66-25.39-2.5-3.88.11-3.7,2.63-3.64,14.27.35,26.52,5.81,37.17,15.04,3.64,3.16,7,6.65,10.42,10.05.75.75,2.25,1.37,1.56,2.74-.57,1.12-1.98,1.13-3.13,1.18-1.99.08-3.99.02-5.99.02Z"/>
  <path d="M236.72,383.68c8.26-.03,14.19,2.45,19.91,5.59,1.52.83,2.9,1.73,1.13,3.77-10.53,12.12-23.89,19.23-40.56,12.08-3.74-1.61-4.28-3.5-2.2-6.8,5.44-8.63,12.49-14.57,21.72-14.64Z"/>
  <path d="M452.31,145.55c-.45,3.64,1.33,9.1-2.28,10.34-2.69.92-5.31-4.24-7.59-7-6.17-7.47-11.96-15.17-14.08-24.98-1.19-5.55-.41-10.91.78-16.31.76-3.47,2.45-3.94,5.26-1.96,9.73,6.86,14.45,16.77,16.78,28,.81,3.88,1.63,7.85,1.12,11.92Z"/>
  <path d="M238.2,174.85c-.71,9.71-5.92,18.78-14.85,25.87-2,1.59-3.27,1.41-4.88-.69-11.1-14.53-4.11-35.58,13.52-40.79,2.43-.72,3.45.19,4.15,2.13,1.36,3.78,2.25,7.65,2.07,13.47Z"/>
  <path d="M583.41,232.64c.18,9.12-4.1,16.25-10.27,22.44-4.48,4.5-9.53,8.27-15.24,11.11-2.04,1.02-3.63,1.46-4.05-1.85-2.02-16.07,7.69-32.84,22.53-38.57,5.9-2.28,6.85-1.62,7.01,4.87.02.66,0,1.33,0,1.99Z"/>
  <path d="M537.86,198.67c3.57-.56,4.42,1.37,3.33,4.7-5.18,15.74-16.62,24.79-31.89,29.68-2.7.87-3.84.11-3.72-3.09.61-17.39,14.52-31.14,32.29-31.29Z"/>
  <path d="M103.97,368.19c-13.71-.35-23.56-6.06-31.23-15.99-2.53-3.27-1.41-4.81,2.09-6.08,12.54-4.56,23-2.01,32.03,8.07.78.87,1.6,1.72,2.22,2.7,1.85,2.89,6.34,6.14,4.94,8.57-1.86,3.23-7.09,2.55-10.06,2.74Z"/>
  <path d="M117.35,229.69c15.11.27,30.37,11.03,34.55,24.11,1.89,5.91,1.07,6.84-4.98,5.82-15.41-2.58-26.5-10.68-32.54-25.32-1.43-3.47-.57-5.12,2.97-4.62Z"/>
  <path d="M185.3,177.06c.32,3.05-1.16,4.46-4.4,3.9-13.81-2.38-24.59-8.81-29.87-22.49-2.5-6.48-1.52-7.7,5.31-6.89,12.31,1.45,22.27,6.4,27.35,18.51.9,2.14,1.62,4.36,1.61,6.97Z"/>
  <path d="M548.49,278.48c17.74-1.84,34.61-5.47,49.11-16.89,1.93,9.91-6.24,25.79-18.51,27.08-11.57,1.22-21.79-2.09-30.6-10.19Z"/>
  <path d="M479.1,222.78c.28,18.43-10.41,33.97-27.2,39.84-2.7.94-3.23.2-3.05-2.27.36-5.17,1.33-10.15,3.66-14.86,4.23-8.53,17.23-19.71,26.6-22.71Z"/>
  <path d="M416.17,219.49c.3,9.22-6.95,14.49-13.91,19.96-1.53,1.21-2.19.28-3.08-.95-8.39-11.76-4.62-28.92,7.99-36.53,2.3-1.39,3.69-.9,4.81,1.26,2.47,4.77,4.13,9.77,4.19,16.27Z"/>
  <path d="M364.72,286.3c-4.55-12.3-12.91-22.37-19.25-33.6-3.42-6.06-5.66-12.43-5.45-19.45.08-2.63.59-5.26,2.69-7.77,16.8,17.01,22.66,37.69,22.01,60.82Z"/>
  <path d="M562.83,416.35c-14.2-3.8-27.24-6.87-36.11-18.1-1.99-2.52-5.69-5.56-3.99-8.41,1.45-2.43,6.09-1.93,9.37-1.69,8.71.62,15.92,4.36,21.54,11.09,3.98,4.76,6.46,10.29,9.18,17.11Z"/>
  <path d="M513.98,182.08c-5.13-.07-5.97-1.2-4.5-5.51,5.26-15.48,19.89-20.43,32.16-20.84,4.11-.14,3.07,2.78,2.33,4.85-4.04,11.24-11.97,18.16-23.66,20.66-2.27.49-4.61.61-6.32.83Z"/>
  <path d="M472.12,214.41c3.29-12.04,1.49-23.42-.63-34.92-1.05-5.72,1.43-11.47,2.5-17.16.51-2.71,2.23-.81,3.2.09,4.66,4.35,7.52,9.68,8.38,16.02,1.62,11.96.42,23.25-8.12,32.67-1.18,1.31-2.29,2.88-5.32,3.3Z"/>
  <path d="M263.73,135.18c-.08.88,0,2.53-2.7,2.05-10.67-1.89-20.11-11.4-21.82-22.1-.6-3.75.34-7.25,1.29-10.8.74-2.73,2.15-2.97,4.4-1.61,11.93,7.19,18.02,17.84,18.83,32.46Z"/>
  <path d="M589.32,306.16c-1.89-.04-4.5-.39-5.88-2.78-1.27-2.2.4-4.15,1.5-5.95,6.03-9.8,15.15-14.48,26.32-15.89,3.48-.44,3.48,1.22,3.03,3.76-1.93,11.05-13.15,20.71-24.97,20.86Z"/>
  <path d="M547.06,252.65c-.05,5.5-.4,11-2.63,16.09-2.97,6.76-7.73,11.54-15.58,12.17-3.78.3-5.67-.68-4.08-5.09,3.86-10.76,9.16-20.58,17.4-28.65,1.04-1.02,2.08-2.83,3.53-2.37,1.93.61,1.2,2.8,1.34,4.37.1,1.15.02,2.32.02,3.48Z"/>
  <path d="M498.97,147.63c-.33,7.15-3.81,12.34-8.16,17.06-1.54,1.68-3.01,1.42-4.61-.29-8.03-8.53-7.27-22.38,1.63-29.91,2.25-1.9,3.96-1.85,5.9.38,3.31,3.81,4.69,8.31,5.24,12.75Z"/>
  <path d="M333.35,111.83c-.16.63-.12,1.85-.72,2.45-.81.82-1.88.04-2.64-.57-5.13-4.08-11.26-6.34-16.97-9.35-6.32-3.33-10.15-8.43-11.03-15.57-.32-2.6.26-5.41,3.61-3.83,8.2,3.89,16.83,7.31,22.76,14.74,2.75,3.44,4.44,7.37,4.99,12.13Z"/>
  <path d="M270.87,212.09c-3.88-10.47-13.31-15.88-19.98-23.79-2.61-3.09-4.04-6.85-4.76-10.82-.48-2.63.42-3.73,3.27-3.06,3.98.93,7.43,2.68,10.4,5.52,7.65,7.33,11.61,16.42,12.99,26.76.22,1.64.37,3.33-1.92,5.39Z"/>
  <path d="M259.63,324.06c13.18,1.44,27.65,15.34,28.48,26.43.15,2.05,1.03,4.73-1.28,5.91-2.05,1.05-3.65-1.07-5.13-2.25-9.91-7.84-15.41-18.87-22.06-30.09Z"/>
  <path d="M623.3,304.5c-.07,8.38-4.88,15.15-11.8,17.97-3.69,1.5-5.29.09-5.73-3.5-.79-6.47,2.47-11.46,5.97-16.36.38-.54.79-1.09,1.29-1.5,2.35-1.94,4.16-6.44,7.06-5.3,3.57,1.4,2.84,6.19,3.22,8.69Z"/>
  <path d="M452.63,112.19c-.22-4.87,1.92-8.58,4.46-12.15,1.6-2.24,3.21-2.34,5.34-.47,7.29,6.41,6.79,17.65-1.04,23.47-1.75,1.3-3.02,1-4.29-.42-2.72-3.05-4.86-6.36-4.47-10.43Z"/>
  <path d="M469.66,130.84c.25-7.46,11.4-17.59,18.81-17.18,2.32.13,2.64,1.31,2.44,3.28-.84,8.47-9.57,16.95-17.93,17.33-2.89.13-3.42-.42-3.32-3.43Z"/>
  <path d="M92.74,269.8c-1.72-.19-3.03-.33-4.35-.49-2.28-.28-2.65-1.34-1.69-3.41,2.93-6.33,11.94-11.8,18.62-11.13,4.33.43,5.26,2.07,3.03,5.87-3.57,6.06-9.03,8.96-15.61,9.16Z"/>
  <path d="M547.69,212.86c-1.11,10.18-2.96,18.75-8.09,26.33-.61.9-1.27,2.28-2.59,1.98-1.46-.33-1.07-1.86-1.18-2.95-.95-10.09,1.52-18.68,11.85-25.36Z"/>
  <path d="M562.08,219.09c.36,7.41-3.87,11.16-9.05,14.25-1.87,1.11-2.94.56-3.65-1.52-2.03-5.91,3.88-15.72,10.11-16.47,3.9-.47,2.2,2.68,2.6,3.74Z"/>
  <path d="M247.82,147.31c-.28,1.44-.15,3.35-1.7,4.29-1.79,1.08-3.13-.49-4.33-1.49-3.91-3.23-5.99-7.4-5.88-12.54.04-2.13.57-3.57,3.29-2.62,4.8,1.66,8.76,7.11,8.64,12.36Z"/>
</svg>