<?xml version="1.0" encoding="UTF-8" standalone="no"?>
<!-- Created with Inkscape (http://www.inkscape.org/) -->

<svg
   width="119.50563mm"
   height="119.50563mm"
   viewBox="0 0 119.50563 119.50563"
   version="1.1"
   id="svg1"
   inkscape:version="1.4 (e7c3feb1, 2024-10-09)"
   sodipodi:docname="tmt-logo-black-f.svg"
   xmlns:inkscape="http://www.inkscape.org/namespaces/inkscape"
   xmlns:sodipodi="http://sodipodi.sourceforge.net/DTD/sodipodi-0.dtd"
   xmlns="http://www.w3.org/2000/svg"
   xmlns:svg="http://www.w3.org/2000/svg">
  <sodipodi:namedview
     id="namedview1"
     pagecolor="#ffffff"
     bordercolor="#000000"
     borderopacity="0.25"
     inkscape:showpageshadow="false"
     inkscape:pageopacity="0.0"
     inkscape:pagecheckerboard="0"
     inkscape:deskcolor="#d1d1d1"
     inkscape:document-units="mm"
     inkscape:zoom="1"
     inkscape:cx="188"
     inkscape:cy="275.5"
     inkscape:window-width="2032"
     inkscape:window-height="1164"
     inkscape:window-x="0"
     inkscape:window-y="25"
     inkscape:window-maximized="0"
     inkscape:current-layer="layer1" />
  <defs
     id="defs1" />
  <g
     inkscape:label="Layer 1"
     inkscape:groupmode="layer"
     id="layer1"
     transform="translate(-53.181139,-70.114588)">
    <path
       id="path301"
       style="fill:#333333;fill-opacity:1;stroke-width:0.65104"
       class="cls-2"
       inkscape:transform-center-x="-0.28687397"
       inkscape:transform-center-y="-1.2603608"
       d="M 111.57809 70.131124 C 109.56127 70.178761 107.52817 70.328976 105.48389 70.585877 C 72.775332 74.696292 49.541496 104.60916 53.651911 137.31772 C 57.762325 170.02628 87.67468 193.2596 120.38324 189.14918 C 153.09179 185.03878 176.32563 155.12641 172.21522 122.41786 C 168.3617 91.753577 141.83046 69.416573 111.57809 70.131124 z M 114.28335 75.525627 C 140.75619 76.139632 163.45627 96.014242 166.85895 123.0912 C 170.6056 152.90496 149.52417 180.04629 119.71041 183.79292 C 111.35711 184.84266 103.21415 183.94119 95.736164 181.44681 C 97.525595 178.1193 100.32773 174.05427 104.48912 170.99008 C 106.70882 169.3555 111.00269 167.86204 113.35679 167.41718 C 113.36969 167.41474 113.38215 167.41339 113.39503 167.41097 C 122.7849 177.73893 136.58479 178.94287 146.55063 165.58473 C 144.56733 165.52043 141.53538 165.28874 139.40688 163.70991 C 130.01513 156.74338 122.39148 154.8097 113.50821 166.0338 C 112.82001 166.0831 112.12276 166.13889 111.38275 166.2374 C 108.95745 166.56041 106.26723 167.17093 103.40753 168.22643 C 98.557432 170.01656 94.543727 173.85287 92.187027 176.51688 C 92.143027 175.92667 92.093906 175.33519 92.075406 174.74954 C 92.007406 172.5889 92.501348 170.0888 93.359048 167.36653 C 94.044648 165.48614 95.375175 162.65427 97.829577 160.09773 C 100.11578 157.71622 101.98873 156.08967 104.22453 154.55853 C 113.86073 147.95927 114.62722 149.97023 123.56392 145.54151 C 126.86292 143.9066 128.85081 142.21404 130.15422 140.51236 C 141.43329 136.77215 154.23412 114.97512 144.20401 100.90392 C 129.65342 110.78157 124.94091 119.92649 128.46026 139.77649 C 128.15713 140.0655 127.84196 140.34543 127.49857 140.60124 C 124.37207 142.93034 120.53723 144.16568 110.28463 146.00298 C 106.78753 146.62967 103.94274 147.72576 101.71564 148.8736 C 105.21224 142.05394 108.77707 135.16218 110.75127 129.17352 C 112.22104 124.71495 112.26853 119.68288 111.63804 114.84571 C 116.09778 108.27302 118.79815 101.55879 116.48735 93.85009 C 114.17735 86.14034 108.12751 81.764108 100.48781 78.617428 L 100.48264 78.613294 C 93.130805 91.438254 96.716323 103.44394 108.25168 115.0488 C 108.22295 116.2614 108.1643 117.48245 108.04187 118.70645 C 106.95897 129.5313 96.317452 143.25876 89.761852 156.04681 C 89.033052 153.75655 88.103362 151.13329 86.990962 148.61832 C 86.575161 147.67836 86.140615 146.76243 85.702151 145.86707 C 85.881885 142.51245 86.181647 139.39826 86.075255 136.31882 C 85.682655 124.79317 80.155904 117.65524 69.314004 114.25401 C 67.728404 113.75471 66.19315 113.06285 65.85065 115.61982 C 64.184239 128.04511 71.279652 141.92105 83.938952 146.33836 C 84.864755 149.26363 85.71692 152.36314 86.125381 154.99158 C 86.568281 157.84185 86.806085 160.37377 86.936185 162.26142 C 85.122671 166.89271 84.096305 171.42328 83.570499 175.61564 C 70.493879 167.21614 61.1006 153.29483 59.008174 136.64438 C 55.26154 106.83061 76.342949 79.688771 106.15672 75.942139 C 108.02008 75.707975 109.87296 75.570784 111.71038 75.526661 C 112.57168 75.505978 113.42939 75.505821 114.28335 75.525627 z M 131.48024 85.557056 C 127.05624 86.429486 123.5014 88.176936 121.3098 91.993356 C 120.1284 94.054666 119.76445 96.326083 120.41735 98.647213 C 121.00545 100.7343 121.53169 100.9254 123.47039 99.912252 C 129.15339 96.944052 131.57324 92.132756 131.48024 85.557056 z M 82.823257 95.590036 C 82.614157 95.595036 82.402855 95.610461 82.191255 95.637061 C 78.805755 96.062511 76.362467 99.207696 76.787967 102.59323 C 77.213367 105.97876 80.359148 108.42196 83.744648 107.99651 C 87.130248 107.57105 89.572819 104.42589 89.147419 101.04035 C 88.748519 97.866419 85.959957 95.520296 82.823257 95.590036 z M 124.85428 102.88313 C 124.65498 102.88713 124.45447 102.90227 124.25277 102.92757 C 121.02607 103.33307 118.69461 106.33245 119.10011 109.55921 C 119.50561 112.78598 122.50712 115.11737 125.73382 114.71187 C 128.96062 114.30637 131.28991 111.30545 130.88441 108.07868 C 130.50431 105.0536 127.84408 102.81675 124.85428 102.88313 z M 93.446898 105.78941 C 92.842851 105.82041 92.458029 106.50408 92.27591 107.39087 C 91.44291 111.47684 93.274729 114.41888 96.256029 116.90553 C 98.525329 118.79532 101.32238 120.12747 102.67838 123.00903 C 102.93618 123.56024 103.57161 123.64585 104.33151 123.48394 L 104.32634 123.48291 C 105.37204 121.35159 104.99479 119.12597 104.26019 116.98098 C 102.54679 111.98779 98.21808 109.29325 94.40808 106.19404 C 94.041611 105.89615 93.721465 105.77533 93.446898 105.78941 z M 157.35359 108.25903 C 157.22099 108.26203 157.08772 108.27159 156.95362 108.28849 C 154.80932 108.55796 153.2466 110.57024 153.5161 112.71457 C 153.7855 114.85891 155.79789 116.42414 157.94219 116.15467 C 160.08649 115.8852 161.6492 113.87085 161.3797 111.72652 C 161.1271 109.7162 159.34249 108.21656 157.35359 108.25903 z M 122.95983 122.01995 C 122.77733 122.02202 122.55669 122.06785 122.28855 122.16774 C 115.03155 124.8696 109.6502 133.06493 111.5998 141.3614 C 113.6018 140.401 115.49036 139.64923 117.22426 138.64115 C 123.12196 135.21596 125.27837 130.30074 123.98147 123.61778 C 123.82823 122.82333 123.75063 122.01097 122.95983 122.01995 z M 90.900284 122.36049 C 88.755184 124.59024 88.020649 127.04496 88.513349 130.70882 C 89.239649 136.10342 91.650521 141.1409 91.890921 146.65772 C 94.729421 138.47964 95.02165 130.43249 90.89925 122.36411 L 90.900284 122.36049 z M 158.95918 125.33757 C 153.49582 125.25575 147.01602 128.89963 145.81735 133.62492 C 150.19475 135.81609 159.11182 130.72981 163.17132 126.34061 C 161.93917 125.67544 160.48892 125.36049 158.95918 125.33757 z M 154.78734 139.1419 C 154.58344 139.1469 154.37756 139.16147 154.17136 139.18737 C 150.87156 139.60204 148.48886 142.66755 148.90346 145.96732 C 149.31816 149.26707 152.38568 151.64989 155.68548 151.23522 C 158.98518 150.82055 161.36601 147.75296 160.95131 144.4532 C 160.56261 141.35966 157.84444 139.07389 154.78734 139.1419 z M 135.1074 144.29921 C 131.78566 144.32023 128.7078 145.65498 125.63925 147.75223 C 130.72275 152.89012 136.35859 154.69932 143.06299 152.53023 C 145.35069 151.7906 145.60641 151.2307 144.42311 149.16196 C 143.10621 146.86232 141.04508 145.39793 138.51908 144.73639 C 137.34906 144.43102 136.21465 144.2922 135.1074 144.29921 z M 67.409728 144.48886 C 67.531628 147.94594 69.666924 154.60528 72.680724 156.58321 C 76.932724 160.30192 80.456255 158.44945 84.308955 162.53995 C 81.749555 154.64791 76.764528 148.31315 67.409728 144.48886 z M 117.07543 152.4615 C 108.70863 154.77366 101.89936 159.11315 97.585664 167.10918 L 97.582046 167.11022 C 100.64375 167.61161 103.08819 166.82081 105.83219 164.32848 C 109.87209 160.65808 112.65813 155.80034 117.07543 152.4615 z " />
  </g>
</svg>
